Fira Sans-Light Condensed.ufo
<glyph name="exclam" format="1">
  <advance width="210"/>
  <unicode hex="0021"/>
  <outline>
    <contour>
      <point x="104" y="680" type="line"/>
      <point x="104" y="188" type="line"/>
      <point x="106" y="188" type="line"/>
      <point x="106" y="680" type="line"/>
    </contour>
    <contour>
      <point x="101" y="10"/>
      <point x="98" y="7"/>
      <point x="98" y="3" type="curve" smooth="yes"/>
      <point x="98" y="-1"/>
      <point x="101" y="-4"/>
      <point x="105" y="-4" type="curve" smooth="yes"/>
      <point x="109" y="-4"/>
      <point x="112" y="-1"/>
      <point x="112" y="3" type="curve" smooth="yes"/>
      <point x="112" y="7"/>
      <point x="109" y="10"/>
      <point x="105" y="10" type="curve" smooth="yes"/>
    </contour>
  </outline>
</glyph>
<glyph name="dollar" format="1">
  <advance width="432"/>
  <unicode hex="0024"/>
  <outline>
    <contour>
      <point x="208" y="-8" type="line"/>
      <point x="208" y="-144" type="line"/>
      <point x="210" y="-144" type="line"/>
      <point x="210" y="-8" type="line"/>
    </contour>
    <contour>
      <point x="212" y="805" type="line"/>
      <point x="212" y="669" type="line"/>
      <point x="214" y="669" type="line"/>
      <point x="214" y="805" type="line"/>
    </contour>
    <contour>
      <point x="127" y="670"/>
      <point x="71" y="601"/>
      <point x="71" y="522" type="curve" smooth="yes"/>
      <point x="71" y="439"/>
      <point x="106" y="400"/>
      <point x="216" y="357" type="curve" smooth="yes"/>
      <point x="318" y="317"/>
      <point x="365" y="274"/>
      <point x="365" y="173" type="curve" smooth="yes"/>
      <point x="365" y="72"/>
      <point x="302" y="-7"/>
      <point x="208" y="-7" type="curve" smooth="yes"/>
      <point x="135" y="-7"/>
      <point x="93" y="23"/>
      <point x="54" y="69" type="curve"/>
      <point x="53" y="67" type="line"/>
      <point x="92" y="21"/>
      <point x="135" y="-9"/>
      <point x="208" y="-9" type="curve" smooth="yes"/>
      <point x="304" y="-9"/>
      <point x="367" y="71"/>
      <point x="367" y="173" type="curve" smooth="yes"/>
      <point x="367" y="275"/>
      <point x="320" y="319"/>
      <point x="216" y="359" type="curve" smooth="yes"/>
      <point x="106" y="402"/>
      <point x="73" y="441"/>
      <point x="73" y="522" type="curve" smooth="yes"/>
      <point x="73" y="599"/>
      <point x="127" y="668"/>
      <point x="214" y="668" type="curve" smooth="yes"/>
      <point x="276" y="668"/>
      <point x="315" y="643"/>
      <point x="348" y="606" type="curve"/>
      <point x="349" y="608" type="line"/>
      <point x="316" y="644"/>
      <point x="277" y="670"/>
      <point x="214" y="670" type="curve" smooth="yes"/>
    </contour>
  </outline>
</glyph>
<glyph name="percent" format="1">
  <advance width="617"/>
  <unicode hex="0025"/>
  <outline>
    <contour>
      <point x="122" y="-9" type="line"/>
      <point x="124" y="-9" type="line"/>
      <point x="498" y="690" type="line"/>
      <point x="496" y="690" type="line"/>
    </contour>
    <contour>
      <point x="223" y="668"/>
      <point x="262" y="620"/>
      <point x="262" y="520" type="curve" smooth="yes"/>
      <point x="262" y="423"/>
      <point x="225" y="368"/>
      <point x="162" y="368" type="curve" smooth="yes"/>
      <point x="100" y="368"/>
      <point x="62" y="421"/>
      <point x="62" y="517" type="curve" smooth="yes"/>
      <point x="62" y="618"/>
      <point x="99" y="668"/>
      <point x="162" y="668" type="curve" smooth="yes"/>
    </contour>
    <contour>
      <point x="97" y="670"/>
      <point x="60" y="618"/>
      <point x="60" y="517" type="curve" smooth="yes"/>
      <point x="60" y="421"/>
      <point x="98" y="366"/>
      <point x="162" y="366" type="curve" smooth="yes"/>
      <point x="227" y="366"/>
      <point x="264" y="423"/>
      <point x="264" y="520" type="curve" smooth="yes"/>
      <point x="264" y="620"/>
      <point x="225" y="670"/>
      <point x="162" y="670" type="curve" smooth="yes"/>
    </contour>
    <contour>
      <point x="516" y="293"/>
      <point x="555" y="245"/>
      <point x="555" y="145" type="curve" smooth="yes"/>
      <point x="555" y="48"/>
      <point x="518" y="-7"/>
      <point x="455" y="-7" type="curve" smooth="yes"/>
      <point x="392" y="-7"/>
      <point x="355" y="46"/>
      <point x="355" y="142" type="curve" smooth="yes"/>
      <point x="355" y="243"/>
      <point x="392" y="293"/>
      <point x="455" y="293" type="curve" smooth="yes"/>
    </contour>
    <contour>
      <point x="390" y="295"/>
      <point x="353" y="243"/>
      <point x="353" y="142" type="curve" smooth="yes"/>
      <point x="353" y="46"/>
      <point x="391" y="-9"/>
      <point x="455" y="-9" type="curve" smooth="yes"/>
      <point x="520" y="-9"/>
      <point x="557" y="48"/>
      <point x="557" y="145" type="curve" smooth="yes"/>
      <point x="557" y="245"/>
      <point x="518" y="295"/>
      <point x="455" y="295" type="curve" smooth="yes"/>
    </contour>
  </outline>
</glyph>
<glyph name="ampersand" format="1">
  <advance width="591"/>
  <unicode hex="0026"/>
  <outline>
    <contour>
      <point x="188" y="691"/>
      <point x="138" y="639"/>
      <point x="138" y="549" type="curve" smooth="yes"/>
      <point x="138" y="472"/>
      <point x="160" y="436"/>
      <point x="226" y="361" type="curve"/>
      <point x="144" y="308"/>
      <point x="102" y="252"/>
      <point x="102" y="158" type="curve" smooth="yes"/>
      <point x="102" y="57"/>
      <point x="165" y="-9"/>
      <point x="261" y="-9" type="curve" smooth="yes"/>
      <point x="341" y="-9"/>
      <point x="401" y="34"/>
      <point x="441" y="114" type="curve"/>
      <point x="539" y="-1" type="line"/>
      <point x="541" y="0" type="line"/>
      <point x="442" y="115" type="line"/>
      <point x="473" y="187"/>
      <point x="489" y="258"/>
      <point x="502" y="347" type="curve"/>
      <point x="500" y="347" type="line"/>
      <point x="487" y="258"/>
      <point x="472" y="189"/>
      <point x="441" y="116" type="curve"/>
      <point x="230" y="361" type="line"/>
      <point x="315" y="420"/>
      <point x="369" y="461"/>
      <point x="369" y="550" type="curve" smooth="yes"/>
      <point x="369" y="638"/>
      <point x="324" y="691"/>
      <point x="256" y="691" type="curve" smooth="yes"/>
    </contour>
    <contour>
      <point x="440" y="115" type="line"/>
      <point x="399" y="35"/>
      <point x="341" y="-7"/>
      <point x="261" y="-7" type="curve" smooth="yes"/>
      <point x="166" y="-7"/>
      <point x="104" y="58"/>
      <point x="104" y="158" type="curve" smooth="yes"/>
      <point x="104" y="251"/>
      <point x="146" y="306"/>
      <point x="228" y="360" type="curve"/>
    </contour>
    <contour>
      <point x="323" y="689"/>
      <point x="367" y="637"/>
      <point x="367" y="550" type="curve" smooth="yes"/>
      <point x="367" y="463"/>
      <point x="314" y="422"/>
      <point x="228" y="362" type="curve"/>
      <point x="161" y="438"/>
      <point x="140" y="473"/>
      <point x="140" y="549" type="curve" smooth="yes"/>
      <point x="140" y="638"/>
      <point x="189" y="689"/>
      <point x="256" y="689" type="curve" smooth="yes"/>
    </contour>
  </outline>
</glyph>
<glyph name="parenleft" format="1">
  <advance width="269"/>
  <unicode hex="0028"/>
  <outline>
    <contour>
      <point x="129" y="694"/>
      <point x="65" y="577"/>
      <point x="65" y="350" type="curve"/>
      <point x="65" y="123"/>
      <point x="129" y="6"/>
      <point x="202" y="-125" type="curve"/>
      <point x="204" y="-124" type="line"/>
      <point x="131" y="7"/>
      <point x="67" y="123"/>
      <point x="67" y="350" type="curve"/>
      <point x="67" y="577"/>
      <point x="131" y="693"/>
      <point x="204" y="824" type="curve"/>
      <point x="202" y="825" type="line"/>
    </contour>
  </outline>
</glyph>
<glyph name="asterisk" format="1">
  <advance width="363"/>
  <unicode hex="002A"/>
  <outline>
    <contour>
      <point x="181" y="564" type="line"/>
      <point x="258" y="435" type="line"/>
      <point x="260" y="436" type="line"/>
      <point x="183" y="565" type="line" smooth="yes"/>
      <point x="182" y="566" type="line"/>
    </contour>
    <contour>
      <point x="181" y="727" type="line"/>
      <point x="181" y="567" type="line"/>
      <point x="182" y="566" type="line"/>
      <point x="183" y="567" type="line"/>
      <point x="183" y="727" type="line"/>
    </contour>
    <contour>
      <point x="183" y="567" type="line"/>
      <point x="182" y="566" type="line"/>
      <point x="183" y="565" type="line"/>
      <point x="308" y="614" type="line"/>
      <point x="307" y="616" type="line"/>
    </contour>
    <contour>
      <point x="55" y="614" type="line"/>
      <point x="180" y="565" type="line"/>
      <point x="182" y="566" type="line"/>
      <point x="181" y="567" type="line"/>
      <point x="56" y="616" type="line"/>
    </contour>
    <contour>
      <point x="180" y="565" type="line"/>
      <point x="103" y="436" type="line"/>
      <point x="104" y="435" type="line"/>
      <point x="182" y="564" type="line"/>
      <point x="182" y="566" type="line"/>
    </contour>
  </outline>
</glyph>
<glyph name="plus" format="1">
  <advance width="393"/>
  <unicode hex="002B"/>
  <outline>
    <contour>
      <point x="195" y="485" type="line"/>
      <point x="195" y="332" type="line"/>
      <point x="70" y="332" type="line"/>
      <point x="70" y="330" type="line"/>
      <point x="195" y="330" type="line"/>
      <point x="195" y="177" type="line"/>
      <point x="197" y="177" type="line"/>
      <point x="197" y="330" type="line"/>
      <point x="323" y="330" type="line"/>
      <point x="323" y="332" type="line"/>
      <point x="197" y="332" type="line"/>
      <point x="197" y="485" type="line"/>
    </contour>
  </outline>
</glyph>
<glyph name="comma" format="1">
  <advance width="113"/>
  <unicode hex="002C"/>
  <outline>
    <contour>
      <point x="55" y="10"/>
      <point x="52" y="7"/>
      <point x="52" y="3" type="curve" smooth="yes"/>
      <point x="52" y="0"/>
      <point x="54" y="-2"/>
      <point x="57" y="-3" type="curve"/>
      <point x="30" y="-109" type="line"/>
      <point x="33" y="-109" type="line"/>
      <point x="63" y="-6" type="line" smooth="yes"/>
      <point x="64" y="-3"/>
      <point x="65" y="1"/>
      <point x="65" y="4" type="curve" smooth="yes"/>
      <point x="65" y="7"/>
      <point x="63" y="10"/>
      <point x="59" y="10" type="curve" smooth="yes"/>
    </contour>
  </outline>
</glyph>
<glyph name="period" format="1">
  <advance width="110"/>
  <unicode hex="002E"/>
  <outline>
    <contour>
      <point x="51" y="10"/>
      <point x="48" y="7"/>
      <point x="48" y="3" type="curve" smooth="yes"/>
      <point x="48" y="-1"/>
      <point x="51" y="-4"/>
      <point x="55" y="-4" type="curve" smooth="yes"/>
      <point x="59" y="-4"/>
      <point x="62" y="-1"/>
      <point x="62" y="3" type="curve" smooth="yes"/>
      <point x="62" y="7"/>
      <point x="59" y="10"/>
      <point x="55" y="10" type="curve" smooth="yes"/>
    </contour>
  </outline>
</glyph>
<glyph name="one" format="1">
  <advance width="317"/>
  <unicode hex="0031"/>
  <outline>
    <contour>
      <point x="195" y="660" type="line"/>
      <point x="45" y="543" type="line"/>
      <point x="46" y="541" type="line"/>
      <point x="195" y="658" type="line"/>
      <point x="195" y="0" type="line"/>
      <point x="197" y="0" type="line"/>
      <point x="197" y="660" type="line"/>
    </contour>
  </outline>
</glyph>
<glyph name="two" format="1">
  <advance width="369"/>
  <unicode hex="0032"/>
  <outline>
    <contour>
      <point x="109" y="670"/>
      <point x="69" y="637"/>
      <point x="32" y="582" type="curve"/>
      <point x="33" y="581" type="line"/>
      <point x="71" y="636"/>
      <point x="110" y="668"/>
      <point x="175" y="668" type="curve" smooth="yes"/>
      <point x="258" y="668"/>
      <point x="304" y="601"/>
      <point x="304" y="512" type="curve" smooth="yes"/>
      <point x="304" y="376"/>
      <point x="245" y="301"/>
      <point x="30" y="2" type="curve"/>
      <point x="30" y="0" type="line"/>
      <point x="311" y="0" type="line"/>
      <point x="312" y="2" type="line"/>
      <point x="33" y="2" type="line"/>
      <point x="246" y="300"/>
      <point x="306" y="374"/>
      <point x="306" y="512" type="curve" smooth="yes"/>
      <point x="306" y="601"/>
      <point x="260" y="670"/>
      <point x="175" y="670" type="curve" smooth="yes"/>
    </contour>
  </outline>
</glyph>
<glyph name="three" format="1">
  <advance width="385"/>
  <unicode hex="0033"/>
  <outline>
    <contour>
      <point x="129" y="670"/>
      <point x="84" y="649"/>
      <point x="45" y="599" type="curve"/>
      <point x="46" y="598" type="line"/>
      <point x="86" y="648"/>
      <point x="131" y="668"/>
      <point x="178" y="668" type="curve" smooth="yes"/>
      <point x="257" y="668"/>
      <point x="306" y="608"/>
      <point x="306" y="513" type="curve" smooth="yes"/>
      <point x="306" y="404"/>
      <point x="242" y="354"/>
      <point x="167" y="354" type="curve" smooth="yes"/>
      <point x="141" y="354" type="line"/>
      <point x="141" y="352" type="line"/>
      <point x="164" y="352" type="line" smooth="yes"/>
      <point x="264" y="352"/>
      <point x="322" y="292"/>
      <point x="322" y="178" type="curve" smooth="yes"/>
      <point x="322" y="69"/>
      <point x="263" y="-7"/>
      <point x="174" y="-7" type="curve" smooth="yes"/>
      <point x="111" y="-7"/>
      <point x="72" y="16"/>
      <point x="31" y="73" type="curve"/>
      <point x="29" y="72" type="line"/>
      <point x="70" y="15"/>
      <point x="110" y="-9"/>
      <point x="174" y="-9" type="curve" smooth="yes"/>
      <point x="264" y="-9"/>
      <point x="324" y="68"/>
      <point x="324" y="178" type="curve" smooth="yes"/>
      <point x="324" y="293"/>
      <point x="265" y="348"/>
      <point x="180" y="353" type="curve"/>
      <point x="250" y="359"/>
      <point x="308" y="407"/>
      <point x="308" y="513" type="curve" smooth="yes"/>
      <point x="308" y="609"/>
      <point x="258" y="670"/>
      <point x="178" y="670" type="curve" smooth="yes"/>
    </contour>
  </outline>
</glyph>
<glyph name="four" format="1">
  <advance width="405"/>
  <unicode hex="0034"/>
  <outline>
    <contour>
      <point x="45" y="199" type="line"/>
      <point x="45" y="196" type="line"/>
      <point x="372" y="196" type="line"/>
      <point x="372" y="198" type="line"/>
      <point x="47" y="198" type="line"/>
      <point x="218" y="669" type="line"/>
      <point x="216" y="670" type="line"/>
    </contour>
    <contour>
      <point x="292" y="418" type="line"/>
      <point x="292" y="197" type="line"/>
      <point x="292" y="0" type="line"/>
      <point x="294" y="0" type="line"/>
      <point x="294" y="418" type="line"/>
    </contour>
  </outline>
</glyph>
<glyph name="five" format="1">
  <advance width="385"/>
  <unicode hex="0035"/>
  <outline>
    <contour>
      <point x="75" y="660" type="line"/>
      <point x="75" y="360" type="line"/>
      <point x="77" y="360" type="line"/>
      <point x="107" y="389"/>
      <point x="141" y="407"/>
      <point x="184" y="407" type="curve" smooth="yes"/>
      <point x="275" y="407"/>
      <point x="326" y="334"/>
      <point x="326" y="213" type="curve" smooth="yes"/>
      <point x="326" y="85"/>
      <point x="274" y="-7"/>
      <point x="177" y="-7" type="curve" smooth="yes"/>
      <point x="118" y="-7"/>
      <point x="73" y="20"/>
      <point x="43" y="64" type="curve"/>
      <point x="41" y="63" type="line"/>
      <point x="72" y="18"/>
      <point x="118" y="-9"/>
      <point x="177" y="-9" type="curve" smooth="yes"/>
      <point x="275" y="-9"/>
      <point x="328" y="84"/>
      <point x="328" y="213" type="curve" smooth="yes"/>
      <point x="328" y="335"/>
      <point x="276" y="409"/>
      <point x="184" y="409" type="curve" smooth="yes"/>
      <point x="140" y="409"/>
      <point x="105" y="390"/>
      <point x="77" y="362" type="curve"/>
      <point x="77" y="658" type="line"/>
      <point x="311" y="658" type="line"/>
      <point x="311" y="660" type="line"/>
    </contour>
  </outline>
</glyph>
<glyph name="six" format="1">
  <advance width="420"/>
  <unicode hex="0036"/>
  <outline>
    <contour>
      <point x="131" y="670"/>
      <point x="70" y="516"/>
      <point x="70" y="287" type="curve" smooth="yes"/>
      <point x="70" y="114"/>
      <point x="114" y="-9"/>
      <point x="226" y="-9" type="curve" smooth="yes"/>
      <point x="316" y="-9"/>
      <point x="365" y="67"/>
      <point x="365" y="222" type="curve" smooth="yes"/>
      <point x="365" y="361"/>
      <point x="310" y="423"/>
      <point x="229" y="423" type="curve" smooth="yes"/>
      <point x="154" y="423"/>
      <point x="106" y="359"/>
      <point x="72" y="289" type="curve"/>
      <point x="72" y="286" type="line"/>
      <point x="108" y="358"/>
      <point x="155" y="421"/>
      <point x="229" y="421" type="curve" smooth="yes"/>
      <point x="309" y="421"/>
      <point x="363" y="360"/>
      <point x="363" y="222" type="curve" smooth="yes"/>
      <point x="363" y="69"/>
      <point x="315" y="-7"/>
      <point x="226" y="-7" type="curve" smooth="yes"/>
      <point x="115" y="-7"/>
      <point x="72" y="116"/>
      <point x="72" y="287" type="curve"/>
      <point x="72" y="288" type="line"/>
      <point x="72" y="516"/>
      <point x="133" y="668"/>
      <point x="247" y="668" type="curve" smooth="yes"/>
      <point x="284" y="668"/>
      <point x="309" y="655"/>
      <point x="331" y="633" type="curve"/>
      <point x="332" y="635" type="line"/>
      <point x="310" y="656"/>
      <point x="285" y="670"/>
      <point x="247" y="670" type="curve" smooth="yes"/>
    </contour>
  </outline>
</glyph>
<glyph name="eight" format="1">
  <advance width="434"/>
  <unicode hex="0038"/>
  <outline>
    <contour>
      <point x="146" y="670"/>
      <point x="85" y="619"/>
      <point x="85" y="514" type="curve" smooth="yes"/>
      <point x="85" y="446"/>
      <point x="109" y="406"/>
      <point x="189" y="365" type="curve"/>
      <point x="191" y="364" type="line"/>
      <point x="224" y="348" type="line" smooth="yes"/>
      <point x="323" y="300"/>
      <point x="372" y="262"/>
      <point x="372" y="164" type="curve" smooth="yes"/>
      <point x="372" y="54"/>
      <point x="313" y="-7"/>
      <point x="219" y="-7" type="curve" smooth="yes"/>
      <point x="121" y="-7"/>
      <point x="62" y="53"/>
      <point x="62" y="169" type="curve" smooth="yes"/>
      <point x="62" y="261"/>
      <point x="105" y="319"/>
      <point x="191" y="364" type="curve"/>
      <point x="189" y="365" type="line"/>
      <point x="105" y="321"/>
      <point x="60" y="264"/>
      <point x="60" y="169" type="curve" smooth="yes"/>
      <point x="60" y="51"/>
      <point x="120" y="-9"/>
      <point x="219" y="-9" type="curve" smooth="yes"/>
      <point x="314" y="-9"/>
      <point x="374" y="52"/>
      <point x="374" y="164" type="curve" smooth="yes"/>
      <point x="374" y="251"/>
      <point x="338" y="293"/>
      <point x="245" y="340" type="curve"/>
      <point x="243" y="341" type="line"/>
      <point x="203" y="360" type="line" smooth="yes"/>
      <point x="119" y="401"/>
      <point x="87" y="439"/>
      <point x="87" y="514" type="curve" smooth="yes"/>
      <point x="87" y="618"/>
      <point x="147" y="668"/>
      <point x="218" y="668" type="curve" smooth="yes"/>
      <point x="289" y="668"/>
      <point x="349" y="624"/>
      <point x="349" y="513" type="curve" smooth="yes"/>
      <point x="349" y="433"/>
      <point x="317" y="389"/>
      <point x="243" y="341" type="curve"/>
      <point x="245" y="340" type="line"/>
      <point x="321" y="389"/>
      <point x="351" y="435"/>
      <point x="351" y="513" type="curve" smooth="yes"/>
      <point x="351" y="625"/>
      <point x="290" y="670"/>
      <point x="218" y="670" type="curve" smooth="yes"/>
    </contour>
  </outline>
</glyph>
<glyph name="nine" format="1">
  <advance width="413"/>
  <unicode hex="0039"/>
  <outline>
    <contour>
      <point x="347" y="393" type="line"/>
      <point x="309" y="310"/>
      <point x="260" y="263"/>
      <point x="196" y="263" type="curve" smooth="yes"/>
      <point x="113" y="263"/>
      <point x="55" y="333"/>
      <point x="55" y="460" type="curve" smooth="yes"/>
      <point x="55" y="599"/>
      <point x="116" y="668"/>
      <point x="201" y="668" type="curve" smooth="yes"/>
      <point x="306" y="668"/>
      <point x="346" y="575"/>
      <point x="346" y="391" type="curve"/>
      <point x="346" y="389" type="line"/>
      <point x="345" y="151"/>
      <point x="256" y="50"/>
      <point x="101" y="-9" type="curve"/>
      <point x="102" y="-11" type="line"/>
      <point x="258" y="48"/>
      <point x="348" y="151"/>
      <point x="348" y="393" type="curve" smooth="yes"/>
      <point x="348" y="575"/>
      <point x="307" y="670"/>
      <point x="201" y="670" type="curve" smooth="yes"/>
      <point x="115" y="670"/>
      <point x="53" y="600"/>
      <point x="53" y="460" type="curve" smooth="yes"/>
      <point x="53" y="332"/>
      <point x="112" y="261"/>
      <point x="196" y="261" type="curve" smooth="yes"/>
      <point x="260" y="261"/>
      <point x="310" y="308"/>
      <point x="347" y="389" type="curve"/>
    </contour>
  </outline>
</glyph>
<glyph name="less" format="1">
  <advance width="407"/>
  <unicode hex="003C"/>
  <outline>
    <contour>
      <point x="74" y="334" type="line"/>
      <point x="74" y="332" type="line"/>
      <point x="332" y="175" type="line"/>
      <point x="333" y="177" type="line"/>
      <point x="76" y="333" type="line"/>
      <point x="333" y="485" type="line"/>
      <point x="332" y="487" type="line"/>
    </contour>
  </outline>
</glyph>
<glyph name="question" format="1">
  <advance width="383"/>
  <unicode hex="003F"/>
  <outline>
    <contour>
      <point x="144" y="690"/>
      <point x="102" y="663"/>
      <point x="65" y="610" type="curve"/>
      <point x="67" y="609" type="line"/>
      <point x="103" y="661"/>
      <point x="145" y="688"/>
      <point x="199" y="688" type="curve"/>
      <point x="270" y="688"/>
      <point x="316" y="637"/>
      <point x="316" y="559" type="curve"/>
      <point x="316" y="413"/>
      <point x="164" y="434"/>
      <point x="164" y="271" type="curve"/>
      <point x="164" y="188" type="line"/>
      <point x="166" y="188" type="line"/>
      <point x="166" y="271" type="line"/>
      <point x="166" y="433"/>
      <point x="318" y="412"/>
      <point x="318" y="559" type="curve"/>
      <point x="318" y="638"/>
      <point x="271" y="690"/>
      <point x="199" y="690" type="curve"/>
    </contour>
    <contour>
      <point x="160" y="10"/>
      <point x="157" y="7"/>
      <point x="157" y="3" type="curve" smooth="yes"/>
      <point x="157" y="-1"/>
      <point x="160" y="-4"/>
      <point x="164" y="-4" type="curve" smooth="yes"/>
      <point x="168" y="-4"/>
      <point x="171" y="-1"/>
      <point x="171" y="3" type="curve" smooth="yes"/>
      <point x="171" y="7"/>
      <point x="168" y="10"/>
      <point x="164" y="10" type="curve" smooth="yes"/>
    </contour>
  </outline>
</glyph>
<glyph name="at" format="1">
  <advance width="846"/>
  <unicode hex="0040"/>
  <outline>
    <contour>
      <point x="230" y="691"/>
      <point x="93" y="492"/>
      <point x="93" y="244" type="curve"/>
      <point x="93" y="-46"/>
      <point x="241" y="-192"/>
      <point x="436" y="-192" type="curve"/>
      <point x="485" y="-192"/>
      <point x="543" y="-180"/>
      <point x="583" y="-161" type="curve"/>
      <point x="583" y="-159" type="line"/>
      <point x="543" y="-178"/>
      <point x="485" y="-190"/>
      <point x="436" y="-190" type="curve"/>
      <point x="242" y="-190"/>
      <point x="95" y="-45"/>
      <point x="95" y="244" type="curve"/>
      <point x="95" y="491"/>
      <point x="231" y="689"/>
      <point x="438" y="689" type="curve"/>
      <point x="649" y="689"/>
      <point x="751" y="517"/>
      <point x="751" y="309" type="curve"/>
      <point x="751" y="81"/>
      <point x="686" y="16"/>
      <point x="627" y="16" type="curve"/>
      <point x="569" y="16"/>
      <point x="532" y="72"/>
      <point x="532" y="175" type="curve"/>
      <point x="530" y="175" type="line"/>
      <point x="530" y="71"/>
      <point x="568" y="14"/>
      <point x="627" y="14" type="curve"/>
      <point x="687" y="14"/>
      <point x="753" y="80"/>
      <point x="753" y="309" type="curve"/>
      <point x="753" y="518"/>
      <point x="650" y="691"/>
      <point x="438" y="691" type="curve"/>
    </contour>
    <contour>
      <point x="353" y="474"/>
      <point x="278" y="403"/>
      <point x="278" y="231" type="curve"/>
      <point x="278" y="87"/>
      <point x="333" y="16"/>
      <point x="408" y="16" type="curve"/>
      <point x="467" y="16"/>
      <point x="509" y="70"/>
      <point x="532" y="169" type="curve"/>
      <point x="530" y="169" type="line"/>
      <point x="507" y="72"/>
      <point x="467" y="18"/>
      <point x="408" y="18" type="curve"/>
      <point x="334" y="18"/>
      <point x="280" y="88"/>
      <point x="280" y="231" type="curve"/>
      <point x="280" y="402"/>
      <point x="354" y="472"/>
      <point x="435" y="472" type="curve"/>
      <point x="476" y="472"/>
      <point x="509" y="456"/>
      <point x="530" y="443" type="curve"/>
      <point x="530" y="175" type="line"/>
      <point x="531" y="174" type="line"/>
      <point x="532" y="175" type="line"/>
      <point x="532" y="444" type="line"/>
      <point x="510" y="458"/>
      <point x="476" y="474"/>
      <point x="435" y="474" type="curve"/>
    </contour>
  </outline>
</glyph>
<glyph name="B" format="1">
  <advance width="476"/>
  <unicode hex="0042"/>
  <outline>
    <contour>
      <point x="106" y="680" type="line"/>
      <point x="106" y="0" type="line"/>
      <point x="215" y="0" type="line" smooth="yes"/>
      <point x="342" y="0"/>
      <point x="423" y="46"/>
      <point x="423" y="183" type="curve" smooth="yes"/>
      <point x="423" y="293"/>
      <point x="353" y="358"/>
      <point x="251" y="360" type="curve"/>
      <point x="339" y="367"/>
      <point x="392" y="429"/>
      <point x="392" y="513" type="curve" smooth="yes"/>
      <point x="392" y="619"/>
      <point x="330" y="680"/>
      <point x="196" y="680" type="curve" smooth="yes"/>
    </contour>
    <contour>
      <point x="330" y="678"/>
      <point x="390" y="617"/>
      <point x="390" y="513" type="curve" smooth="yes"/>
      <point x="390" y="429"/>
      <point x="334" y="361"/>
      <point x="235" y="361" type="curve" smooth="yes"/>
      <point x="107" y="361" type="line"/>
      <point x="107" y="359" type="line"/>
      <point x="240" y="359" type="line" smooth="yes"/>
      <point x="352" y="359"/>
      <point x="421" y="292"/>
      <point x="421" y="183" type="curve" smooth="yes"/>
      <point x="421" y="46"/>
      <point x="340" y="2"/>
      <point x="216" y="2" type="curve" smooth="yes"/>
      <point x="108" y="2" type="line"/>
      <point x="108" y="678" type="line"/>
      <point x="197" y="678" type="line" smooth="yes"/>
    </contour>
    <contour>
      <point x="230" y="680" type="move" name="top"/>
    </contour>
    <contour>
      <point x="254" y="0" type="move" name="bottom"/>
    </contour>
  </outline>
</glyph>
<glyph name="C" format="1">
  <advance width="434"/>
  <unicode hex="0043"/>
  <outline>
    <contour>
      <point x="157" y="690"/>
      <point x="70" y="577"/>
      <point x="70" y="339" type="curve" smooth="yes"/>
      <point x="70" y="114"/>
      <point x="155" y="-9"/>
      <point x="280" y="-9" type="curve" smooth="yes"/>
      <point x="347" y="-9"/>
      <point x="387" y="23"/>
      <point x="413" y="50" type="curve"/>
      <point x="412" y="52" type="line"/>
      <point x="386" y="25"/>
      <point x="346" y="-7"/>
      <point x="280" y="-7" type="curve" smooth="yes"/>
      <point x="157" y="-7"/>
      <point x="72" y="115"/>
      <point x="72" y="339" type="curve" smooth="yes"/>
      <point x="72" y="576"/>
      <point x="159" y="688"/>
      <point x="281" y="688" type="curve" smooth="yes"/>
      <point x="341" y="688"/>
      <point x="376" y="662"/>
      <point x="405" y="631" type="curve"/>
      <point x="406" y="633" type="line"/>
      <point x="377" y="664"/>
      <point x="342" y="690"/>
      <point x="281" y="690" type="curve" smooth="yes"/>
    </contour>
    <contour>
      <point x="265" y="341" type="move" name="center"/>
    </contour>
    <contour>
      <point x="280" y="0" type="move" name="bottom"/>
    </contour>
    <contour>
      <point x="282" y="680" type="move" name="top"/>
    </contour>
  </outline>
</glyph>
<glyph name="D" format="1">
  <advance width="503"/>
  <unicode hex="0044"/>
  <outline>
    <contour>
      <point x="106" y="680" type="line"/>
      <point x="106" y="0" type="line"/>
      <point x="197" y="0" type="line" smooth="yes"/>
      <point x="311" y="0"/>
      <point x="433" y="69"/>
      <point x="433" y="348" type="curve" smooth="yes"/>
      <point x="433" y="626"/>
      <point x="310" y="680"/>
      <point x="192" y="680" type="curve" smooth="yes"/>
    </contour>
    <contour>
      <point x="309" y="678"/>
      <point x="431" y="624"/>
      <point x="431" y="348" type="curve" smooth="yes"/>
      <point x="431" y="71"/>
      <point x="311" y="2"/>
      <point x="197" y="2" type="curve" smooth="yes"/>
      <point x="108" y="2" type="line"/>
      <point x="108" y="678" type="line"/>
      <point x="192" y="678" type="line" smooth="yes"/>
    </contour>
    <contour>
      <point x="253" y="340" type="move" name="center"/>
    </contour>
    <contour>
      <point x="254" y="0" type="move" name="bottom"/>
    </contour>
    <contour>
      <point x="237" y="680" type="move" name="top"/>
    </contour>
  </outline>
</glyph>
<glyph name="E" format="1">
  <advance width="406"/>
  <unicode hex="0045"/>
  <outline>
    <contour>
      <point x="106" y="680" type="line"/>
      <point x="106" y="0" type="line"/>
      <point x="365" y="0" type="line"/>
      <point x="365" y="2" type="line"/>
      <point x="108" y="2" type="line"/>
      <point x="108" y="360" type="line"/>
      <point x="321" y="360" type="line"/>
      <point x="321" y="362" type="line"/>
      <point x="108" y="362" type="line"/>
      <point x="108" y="678" type="line"/>
      <point x="356" y="678" type="line"/>
      <point x="356" y="680" type="line"/>
    </contour>
    <contour>
      <point x="348" y="0" type="move" name="ogonek"/>
    </contour>
    <contour>
      <point x="232" y="680" type="move" name="top"/>
    </contour>
    <contour>
      <point x="65" y="680" type="move" name="topleft"/>
    </contour>
    <contour>
      <point x="232" y="0" type="move" name="bottom"/>
    </contour>
  </outline>
</glyph>
<glyph name="F" format="1">
  <advance width="385"/>
  <unicode hex="0046"/>
  <outline>
    <contour>
      <point x="108" y="0" type="line"/>
      <point x="108" y="345" type="line"/>
      <point x="319" y="345" type="line"/>
      <point x="319" y="347" type="line"/>
      <point x="108" y="347" type="line"/>
      <point x="108" y="678" type="line"/>
      <point x="352" y="678" type="line"/>
      <point x="352" y="680" type="line"/>
      <point x="106" y="680" type="line"/>
      <point x="106" y="0" type="line"/>
    </contour>
    <contour>
      <point x="237" y="680" type="move" name="top"/>
    </contour>
    <contour>
      <point x="107" y="0" type="move" name="bottom"/>
    </contour>
  </outline>
</glyph>
<glyph name="G" format="1">
  <advance width="491"/>
  <unicode hex="0047"/>
  <outline>
    <contour>
      <point x="178" y="690"/>
      <point x="70" y="595"/>
      <point x="70" y="345" type="curve" smooth="yes"/>
      <point x="70" y="99"/>
      <point x="156" y="-9"/>
      <point x="287" y="-9" type="curve" smooth="yes"/>
      <point x="347" y="-9"/>
      <point x="393" y="15"/>
      <point x="426" y="39" type="curve"/>
      <point x="426" y="342" type="line"/>
      <point x="300" y="342" type="line"/>
      <point x="301" y="340" type="line"/>
      <point x="424" y="340" type="line"/>
      <point x="424" y="40" type="line"/>
      <point x="393" y="17"/>
      <point x="348" y="-7"/>
      <point x="287" y="-7" type="curve" smooth="yes"/>
      <point x="156" y="-7"/>
      <point x="72" y="101"/>
      <point x="72" y="345" type="curve" smooth="yes"/>
      <point x="72" y="595"/>
      <point x="179" y="688"/>
      <point x="279" y="688" type="curve" smooth="yes"/>
      <point x="333" y="688"/>
      <point x="372" y="669"/>
      <point x="410" y="633" type="curve"/>
      <point x="411" y="635" type="line"/>
      <point x="372" y="671"/>
      <point x="334" y="690"/>
      <point x="279" y="690" type="curve" smooth="yes"/>
    </contour>
    <contour>
      <point x="277" y="680" type="move" name="top"/>
    </contour>
    <contour>
      <point x="278" y="0" type="move" name="bottom"/>
    </contour>
  </outline>
</glyph>
<glyph name="H" format="1">
  <advance width="535"/>
  <unicode hex="0048"/>
  <outline>
    <contour>
      <point x="429" y="0" type="line"/>
      <point x="429" y="680" type="line"/>
      <point x="427" y="680" type="line"/>
      <point x="427" y="362" type="line"/>
      <point x="108" y="362" type="line"/>
      <point x="108" y="680" type="line"/>
      <point x="106" y="680" type="line"/>
      <point x="106" y="0" type="line"/>
      <point x="108" y="0" type="line"/>
      <point x="108" y="360" type="line"/>
      <point x="427" y="360" type="line"/>
      <point x="427" y="0" type="line"/>
    </contour>
    <contour>
      <point x="268" y="0" type="move" name="bottom"/>
    </contour>
    <contour>
      <point x="267" y="680" type="move" name="top"/>
    </contour>
    <contour>
      <point x="65" y="680" type="move" name="topleft"/>
    </contour>
    <contour>
      <point x="437" y="0" type="move" name="bottomright"/>
    </contour>
    <contour>
      <point x="267" y="340" type="move" name="center"/>
    </contour>
  </outline>
</glyph>
<glyph name="I" format="1">
  <advance width="214"/>
  <unicode hex="0049"/>
  <outline>
    <contour>
      <point x="106" y="680" type="line"/>
      <point x="106" y="0" type="line"/>
      <point x="108" y="0" type="line"/>
      <point x="108" y="680" type="line"/>
    </contour>
    <contour>
      <point x="116" y="0" type="move" name="ogonek"/>
    </contour>
    <contour>
      <point x="107" y="680" type="move" name="top"/>
    </contour>
    <contour>
      <point x="65" y="680" type="move" name="topleft"/>
    </contour>
    <contour>
      <point x="107" y="0" type="move" name="bottom"/>
    </contour>
  </outline>
</glyph>
<glyph name="J" format="1">
  <advance width="224"/>
  <unicode hex="004A"/>
  <outline>
    <contour>
      <point x="121" y="680" type="line"/>
      <point x="121" y="85" type="line" smooth="yes"/>
      <point x="121" y="-6"/>
      <point x="105" y="-49"/>
      <point x="24" y="-89" type="curve"/>
      <point x="25" y="-91" type="line"/>
      <point x="107" y="-50"/>
      <point x="123" y="-7"/>
      <point x="123" y="85" type="curve" smooth="yes"/>
      <point x="123" y="680" type="line"/>
    </contour>
    <contour>
      <point x="122" y="680" type="move" name="top"/>
    </contour>
    <contour>
      <point x="112" y="-188" type="move" name="bottom"/>
    </contour>
  </outline>
</glyph>
<glyph name="K" format="1">
  <advance width="419"/>
  <unicode hex="004B"/>
  <outline>
    <contour>
      <point x="385" y="680" type="line"/>
      <point x="110" y="366" type="line"/>
      <point x="398" y="0" type="line"/>
      <point x="401" y="0" type="line"/>
      <point x="113" y="366" type="line"/>
      <point x="388" y="680" type="line"/>
    </contour>
    <contour>
      <point x="106" y="680" type="line"/>
      <point x="106" y="1" type="line"/>
      <point x="108" y="1" type="line"/>
      <point x="108" y="680" type="line"/>
    </contour>
    <contour>
      <point x="232" y="680" type="move" name="top"/>
    </contour>
    <contour>
      <point x="233" y="0" type="move" name="bottom"/>
    </contour>
  </outline>
</glyph>
<glyph name="L" format="1">
  <advance width="364"/>
  <unicode hex="004C"/>
  <outline>
    <contour>
      <point x="106" y="680" type="line"/>
      <point x="106" y="0" type="line"/>
      <point x="344" y="0" type="line"/>
      <point x="344" y="2" type="line"/>
      <point x="108" y="2" type="line"/>
      <point x="108" y="680" type="line"/>
    </contour>
    <contour>
      <point x="225" y="0" type="move" name="bottom"/>
    </contour>
    <contour>
      <point x="107" y="680" type="move" name="top"/>
    </contour>
    <contour>
      <point x="149" y="680" type="move" name="topright"/>
    </contour>
    <contour>
      <point x="287" y="355" type="move" name="center"/>
    </contour>
  </outline>
</glyph>
<glyph name="M" format="1">
  <advance width="622"/>
  <unicode hex="004D"/>
  <outline>
    <contour>
      <point x="483" y="680" type="line"/>
      <point x="310" y="88" type="line"/>
      <point x="138" y="680" type="line"/>
      <point x="135" y="680" type="line"/>
      <point x="70" y="0" type="line"/>
      <point x="72" y="0" type="line"/>
      <point x="106" y="361" type="line" smooth="yes"/>
      <point x="117" y="474"/>
      <point x="133" y="632"/>
      <point x="137" y="676" type="curve"/>
      <point x="309" y="85" type="line"/>
      <point x="311" y="85" type="line"/>
      <point x="484" y="676" type="line"/>
      <point x="491" y="604"/>
      <point x="504" y="468"/>
      <point x="515" y="354" type="curve" smooth="yes"/>
      <point x="550" y="0" type="line"/>
      <point x="552" y="0" type="line"/>
      <point x="486" y="680" type="line"/>
    </contour>
    <contour>
      <point x="310" y="680" type="move" name="top"/>
    </contour>
    <contour>
      <point x="311" y="0" type="move" name="bottom"/>
    </contour>
    <contour>
      <point x="559" y="0" type="move" name="bottomright"/>
    </contour>
  </outline>
</glyph>
<glyph name="Q" format="1">
  <advance width="564"/>
  <unicode hex="0051"/>
  <outline>
    <contour>
      <point x="155" y="690"/>
      <point x="70" y="572"/>
      <point x="70" y="338" type="curve" smooth="yes"/>
      <point x="70" y="104"/>
      <point x="151" y="-9"/>
      <point x="282" y="-9" type="curve" smooth="yes"/>
      <point x="286" y="-9"/>
      <point x="290" y="-9"/>
      <point x="301" y="-8" type="curve"/>
      <point x="307" y="-7" type="line"/>
      <point x="427" y="6"/>
      <point x="494" y="118"/>
      <point x="494" y="340" type="curve" smooth="yes"/>
      <point x="494" y="578"/>
      <point x="414" y="690"/>
      <point x="282" y="690" type="curve" smooth="yes"/>
    </contour>
    <contour>
      <point x="282" y="-9" type="line"/>
      <point x="398" y="-7"/>
      <point x="454" y="-24"/>
      <point x="504" y="-73" type="curve"/>
      <point x="506" y="-72" type="line"/>
      <point x="454" y="-21"/>
      <point x="396" y="-8"/>
      <point x="307" y="-7" type="curve"/>
    </contour>
    <contour>
      <point x="413" y="688"/>
      <point x="492" y="576"/>
      <point x="492" y="340" type="curve" smooth="yes"/>
      <point x="492" y="107"/>
      <point x="418" y="-7"/>
      <point x="282" y="-7" type="curve" smooth="yes"/>
      <point x="152" y="-7"/>
      <point x="72" y="106"/>
      <point x="72" y="338" type="curve" smooth="yes"/>
      <point x="72" y="570"/>
      <point x="156" y="688"/>
      <point x="282" y="688" type="curve" smooth="yes"/>
    </contour>
    <contour>
      <point x="277" y="680" type="move" name="top"/>
    </contour>
    <contour>
      <point x="277" y="0" type="move" name="bottom"/>
    </contour>
  </outline>
</glyph>
<glyph name="R" format="1">
  <advance width="460"/>
  <unicode hex="0052"/>
  <outline>
    <contour>
      <point x="106" y="680" type="line"/>
      <point x="106" y="0" type="line"/>
      <point x="108" y="0" type="line"/>
      <point x="108" y="678" type="line"/>
      <point x="209" y="678" type="line" smooth="yes"/>
      <point x="349" y="678"/>
      <point x="393" y="609"/>
      <point x="393" y="506" type="curve" smooth="yes"/>
      <point x="393" y="388"/>
      <point x="321" y="336"/>
      <point x="230" y="336" type="curve" smooth="yes"/>
      <point x="107" y="336" type="line"/>
      <point x="107" y="334" type="line"/>
      <point x="230" y="334" type="line"/>
      <point x="323" y="334"/>
      <point x="395" y="387"/>
      <point x="395" y="506" type="curve" smooth="yes"/>
      <point x="395" y="610"/>
      <point x="350" y="680"/>
      <point x="209" y="680" type="curve" smooth="yes"/>
    </contour>
    <contour>
      <point x="254" y="336" type="line"/>
      <point x="412" y="0" type="line"/>
      <point x="415" y="0" type="line"/>
      <point x="256" y="336" type="line"/>
    </contour>
    <contour>
      <point x="230" y="680" type="move" name="top"/>
    </contour>
    <contour>
      <point x="246" y="0" type="move" name="bottom"/>
    </contour>
  </outline>
</glyph>
<glyph name="S" format="1">
  <advance width="442"/>
  <unicode hex="0053"/>
  <outline>
    <contour>
      <point x="129" y="690"/>
      <point x="72" y="619"/>
      <point x="72" y="538" type="curve" smooth="yes"/>
      <point x="72" y="452"/>
      <point x="108" y="412"/>
      <point x="221" y="368" type="curve" smooth="yes"/>
      <point x="326" y="327"/>
      <point x="375" y="282"/>
      <point x="375" y="178" type="curve" smooth="yes"/>
      <point x="375" y="74"/>
      <point x="310" y="-7"/>
      <point x="213" y="-7" type="curve" smooth="yes"/>
      <point x="138" y="-7"/>
      <point x="94" y="24"/>
      <point x="54" y="71" type="curve"/>
      <point x="53" y="69" type="line"/>
      <point x="93" y="22"/>
      <point x="138" y="-9"/>
      <point x="213" y="-9" type="curve" smooth="yes"/>
      <point x="312" y="-9"/>
      <point x="377" y="73"/>
      <point x="377" y="178" type="curve" smooth="yes"/>
      <point x="377" y="283"/>
      <point x="328" y="329"/>
      <point x="221" y="370" type="curve" smooth="yes"/>
      <point x="108" y="414"/>
      <point x="74" y="454"/>
      <point x="74" y="538" type="curve" smooth="yes"/>
      <point x="74" y="617"/>
      <point x="130" y="688"/>
      <point x="219" y="688" type="curve" smooth="yes"/>
      <point x="283" y="688"/>
      <point x="323" y="662"/>
      <point x="357" y="624" type="curve"/>
      <point x="358" y="626" type="line"/>
      <point x="324" y="663"/>
      <point x="284" y="690"/>
      <point x="219" y="690" type="curve" smooth="yes"/>
    </contour>
    <contour>
      <point x="224" y="680" type="move" name="top"/>
    </contour>
    <contour>
      <point x="214" y="0" type="move" name="bottom"/>
    </contour>
  </outline>
</glyph>
<glyph name="U" format="1">
  <advance width="515"/>
  <unicode hex="0055"/>
  <outline>
    <contour>
      <point x="417" y="680" type="line"/>
      <point x="417" y="169" type="line" smooth="yes"/>
      <point x="417" y="74"/>
      <point x="375" y="-7"/>
      <point x="258" y="-7" type="curve" smooth="yes"/>
      <point x="139" y="-7"/>
      <point x="98" y="74"/>
      <point x="98" y="169" type="curve" smooth="yes"/>
      <point x="98" y="680" type="line"/>
      <point x="96" y="680" type="line"/>
      <point x="96" y="169" type="line" smooth="yes"/>
      <point x="96" y="73"/>
      <point x="138" y="-9"/>
      <point x="258" y="-9" type="curve" smooth="yes"/>
      <point x="376" y="-9"/>
      <point x="419" y="73"/>
      <point x="419" y="169" type="curve" smooth="yes"/>
      <point x="419" y="680" type="line"/>
    </contour>
    <contour>
      <point x="326" y="0" type="move" name="ogonek"/>
    </contour>
    <contour>
      <point x="258" y="680" type="move" name="top"/>
    </contour>
    <contour>
      <point x="427" y="680" type="move" name="topright"/>
    </contour>
    <contour>
      <point x="258" y="0" type="move" name="bottom"/>
    </contour>
  </outline>
</glyph>
<glyph name="V" format="1">
  <advance width="442"/>
  <unicode hex="0056"/>
  <outline>
    <contour>
      <point x="405" y="680" type="line"/>
      <point x="222" y="2" type="line"/>
      <point x="37" y="680" type="line"/>
      <point x="35" y="680" type="line"/>
      <point x="221" y="0" type="line"/>
      <point x="223" y="0" type="line"/>
      <point x="407" y="680" type="line"/>
    </contour>
    <contour>
      <point x="221" y="680" type="move" name="top"/>
    </contour>
    <contour>
      <point x="221" y="0" type="move" name="bottom"/>
    </contour>
  </outline>
</glyph>
<glyph name="W" format="1">
  <advance width="643"/>
  <unicode hex="0057"/>
  <outline>
    <contour>
      <point x="601" y="680" type="line"/>
      <point x="471" y="3" type="line"/>
      <point x="323" y="680" type="line"/>
      <point x="321" y="680" type="line"/>
      <point x="172" y="2" type="line"/>
      <point x="42" y="680" type="line"/>
      <point x="40" y="680" type="line"/>
      <point x="171" y="0" type="line"/>
      <point x="173" y="0" type="line"/>
      <point x="322" y="678" type="line"/>
      <point x="470" y="0" type="line"/>
      <point x="472" y="0" type="line"/>
      <point x="603" y="680" type="line"/>
    </contour>
    <contour>
      <point x="322" y="680" type="move" name="top"/>
    </contour>
    <contour>
      <point x="322" y="0" type="move" name="bottom"/>
    </contour>
  </outline>
</glyph>
<glyph name="X" format="1">
  <advance width="383"/>
  <unicode hex="0058"/>
  <outline>
    <contour>
      <point x="41" y="680" type="line"/>
      <point x="189" y="370" type="line"/>
      <point x="191" y="369" type="line"/>
      <point x="365" y="0" type="line"/>
      <point x="367" y="0" type="line"/>
      <point x="193" y="370" type="line"/>
      <point x="191" y="371" type="line"/>
      <point x="43" y="680" type="line"/>
    </contour>
    <contour>
      <point x="339" y="680" type="line"/>
      <point x="191" y="371" type="line"/>
      <point x="189" y="370" type="line"/>
      <point x="16" y="0" type="line"/>
      <point x="18" y="0" type="line"/>
      <point x="191" y="369" type="line"/>
      <point x="193" y="370" type="line"/>
      <point x="341" y="680" type="line"/>
    </contour>
    <contour>
      <point x="191" y="680" type="move" name="top"/>
    </contour>
    <contour>
      <point x="191" y="0" type="move" name="bottom"/>
    </contour>
    <contour>
      <point x="373" y="0" type="move" name="bottomright"/>
    </contour>
  </outline>
</glyph>
<glyph name="Y" format="1">
  <advance width="392"/>
  <unicode hex="0059"/>
  <outline>
    <contour>
      <point x="370" y="680" type="line"/>
      <point x="197" y="273" type="line"/>
      <point x="22" y="680" type="line"/>
      <point x="20" y="680" type="line"/>
      <point x="196" y="271" type="line"/>
      <point x="196" y="0" type="line"/>
      <point x="198" y="0" type="line"/>
      <point x="198" y="271" type="line"/>
      <point x="372" y="680" type="line"/>
    </contour>
    <contour>
      <point x="196" y="680" type="move" name="top"/>
    </contour>
    <contour>
      <point x="197" y="0" type="move" name="bottom"/>
    </contour>
    <contour>
      <point x="2" y="680" type="move" name="topleft"/>
    </contour>
  </outline>
</glyph>
<glyph name="Z" format="1">
  <advance width="414"/>
  <unicode hex="005A"/>
  <outline>
    <contour>
      <point x="67" y="680" type="line"/>
      <point x="67" y="678" type="line"/>
      <point x="371" y="678" type="line"/>
      <point x="37" y="2" type="line"/>
      <point x="37" y="0" type="line"/>
      <point x="359" y="0" type="line"/>
      <point x="359" y="2" type="line"/>
      <point x="39" y="2" type="line"/>
      <point x="373" y="678" type="line"/>
      <point x="373" y="680" type="line"/>
    </contour>
    <contour>
      <point x="208" y="680" type="move" name="top"/>
    </contour>
    <contour>
      <point x="212" y="0" type="move" name="bottom"/>
    </contour>
  </outline>
</glyph>
<glyph name="bracketleft" format="1">
  <advance width="254"/>
  <unicode hex="005B"/>
  <outline>
    <contour>
      <point x="90" y="790" type="line"/>
      <point x="90" y="-100" type="line"/>
      <point x="180" y="-100" type="line"/>
      <point x="180" y="-98" type="line"/>
      <point x="92" y="-98" type="line"/>
      <point x="92" y="788" type="line"/>
      <point x="180" y="788" type="line"/>
      <point x="180" y="790" type="line"/>
    </contour>
  </outline>
</glyph>
<glyph name="backslash" format="1">
  <advance width="426"/>
  <unicode hex="005C"/>
  <outline>
    <contour>
      <point x="117" y="793" type="line"/>
      <point x="307" y="-92" type="line"/>
      <point x="309" y="-91" type="line"/>
      <point x="119" y="794" type="line"/>
    </contour>
  </outline>
</glyph>
<glyph name="asciicircum" format="1">
  <advance width="434"/>
  <unicode hex="005E"/>
  <outline>
    <contour>
      <point x="212" y="817" type="line"/>
      <point x="74" y="527" type="line"/>
      <point x="76" y="527" type="line"/>
      <point x="213" y="815" type="line"/>
      <point x="350" y="527" type="line"/>
      <point x="352" y="527" type="line"/>
      <point x="214" y="817" type="line"/>
    </contour>
  </outline>
</glyph>
<glyph name="b" format="1">
  <advance width="460"/>
  <unicode hex="0062"/>
  <outline>
    <contour>
      <point x="181" y="527"/>
      <point x="138" y="481"/>
      <point x="103" y="420" type="curve"/>
      <point x="103" y="417" type="line"/>
      <point x="141" y="482"/>
      <point x="183" y="525"/>
      <point x="249" y="525" type="curve" smooth="yes"/>
      <point x="344" y="525"/>
      <point x="393" y="436"/>
      <point x="393" y="264" type="curve" smooth="yes"/>
      <point x="393" y="91"/>
      <point x="343" y="-7"/>
      <point x="246" y="-7" type="curve" smooth="yes"/>
      <point x="181" y="-7"/>
      <point x="137" y="37"/>
      <point x="103" y="103" type="curve"/>
      <point x="103" y="100" type="line"/>
      <point x="136" y="35"/>
      <point x="180" y="-9"/>
      <point x="246" y="-9" type="curve" smooth="yes"/>
      <point x="344" y="-9"/>
      <point x="395" y="89"/>
      <point x="395" y="264" type="curve" smooth="yes"/>
      <point x="395" y="438"/>
      <point x="344" y="527"/>
      <point x="249" y="527" type="curve" smooth="yes"/>
    </contour>
    <contour>
      <point x="102" y="730" type="line"/>
      <point x="102" y="0" type="line"/>
      <point x="104" y="0" type="line"/>
      <point x="104" y="101" type="line"/>
      <point x="104" y="730" type="line"/>
    </contour>
    <contour>
      <point x="237" y="727" type="move" name="top"/>
    </contour>
    <contour>
      <point x="233" y="0" type="move" name="bottom"/>
    </contour>
  </outline>
</glyph>
<glyph name="c" format="1">
  <advance width="379"/>
  <unicode hex="0063"/>
  <outline>
    <contour>
      <point x="127" y="527"/>
      <point x="65" y="436"/>
      <point x="65" y="256" type="curve" smooth="yes"/>
      <point x="65" y="76"/>
      <point x="135" y="-9"/>
      <point x="229" y="-9" type="curve" smooth="yes"/>
      <point x="279" y="-9"/>
      <point x="312" y="13"/>
      <point x="339" y="44" type="curve"/>
      <point x="337" y="45" type="line"/>
      <point x="310" y="14"/>
      <point x="277" y="-7"/>
      <point x="229" y="-7" type="curve" smooth="yes"/>
      <point x="136" y="-7"/>
      <point x="67" y="77"/>
      <point x="67" y="256" type="curve" smooth="yes"/>
      <point x="67" y="435"/>
      <point x="128" y="525"/>
      <point x="231" y="525" type="curve" smooth="yes"/>
      <point x="273" y="525"/>
      <point x="305" y="509"/>
      <point x="334" y="476" type="curve"/>
      <point x="336" y="477" type="line"/>
      <point x="307" y="510"/>
      <point x="274" y="527"/>
      <point x="231" y="527" type="curve" smooth="yes"/>
    </contour>
    <contour>
      <point x="230" y="517" type="move" name="top"/>
    </contour>
    <contour>
      <point x="233" y="-1" type="move" name="bottom"/>
    </contour>
  </outline>
</glyph>
<glyph name="e" format="1">
  <advance width="431"/>
  <unicode hex="0065"/>
  <outline>
    <contour>
      <point x="127" y="527"/>
      <point x="65" y="425"/>
      <point x="65" y="253" type="curve" smooth="yes"/>
      <point x="65" y="85"/>
      <point x="128" y="-9"/>
      <point x="226" y="-9" type="curve" smooth="yes"/>
      <point x="281" y="-9"/>
      <point x="315" y="13"/>
      <point x="352" y="50" type="curve"/>
      <point x="351" y="52" type="line"/>
      <point x="314" y="14"/>
      <point x="279" y="-7"/>
      <point x="226" y="-7" type="curve" smooth="yes"/>
      <point x="129" y="-7"/>
      <point x="67" y="86"/>
      <point x="67" y="253" type="curve"/>
      <point x="67" y="424"/>
      <point x="129" y="525"/>
      <point x="226" y="525" type="curve" smooth="yes"/>
      <point x="326" y="525"/>
      <point x="369" y="422"/>
      <point x="369" y="288" type="curve" smooth="yes"/>
      <point x="369" y="275"/>
      <point x="369" y="267"/>
      <point x="368" y="254" type="curve"/>
      <point x="66" y="254" type="line"/>
      <point x="66" y="252" type="line"/>
      <point x="370" y="252" type="line"/>
      <point x="371" y="266"/>
      <point x="371" y="274"/>
      <point x="371" y="288" type="curve" smooth="yes"/>
      <point x="371" y="423"/>
      <point x="327" y="527"/>
      <point x="226" y="527" type="curve" smooth="yes"/>
    </contour>
    <contour>
      <point x="298" y="4" type="move" name="ogonek"/>
    </contour>
    <contour>
      <point x="226" y="0" type="move" name="bottom"/>
    </contour>
    <contour>
      <point x="226" y="517" type="move" name="top"/>
    </contour>
  </outline>
</glyph>
<glyph name="f" format="1">
  <advance width="246"/>
  <unicode hex="0066"/>
  <outline>
    <contour>
      <point x="143" y="733"/>
      <point x="104" y="698"/>
      <point x="104" y="628" type="curve" smooth="yes"/>
      <point x="104" y="0" type="line"/>
      <point x="106" y="0" type="line"/>
      <point x="106" y="628" type="line" smooth="yes"/>
      <point x="106" y="696"/>
      <point x="144" y="731"/>
      <point x="196" y="731" type="curve" smooth="yes"/>
      <point x="232" y="731"/>
      <point x="261" y="717"/>
      <point x="286" y="698" type="curve"/>
      <point x="287" y="700" type="line"/>
      <point x="262" y="719"/>
      <point x="232" y="733"/>
      <point x="196" y="733" type="curve" smooth="yes"/>
    </contour>
    <contour>
      <point x="29" y="517" type="line"/>
      <point x="29" y="515" type="line"/>
      <point x="230" y="515" type="line"/>
      <point x="230" y="517" type="line"/>
    </contour>
    <contour>
      <point x="197" y="727" type="move" name="top"/>
    </contour>
    <contour>
      <point x="105" y="0" type="move" name="bottom"/>
    </contour>
  </outline>
</glyph>
<glyph name="h" format="1">
  <advance width="475"/>
  <unicode hex="0068"/>
  <outline>
    <contour>
      <point x="377" y="0" type="line"/>
      <point x="377" y="378" type="line" smooth="yes"/>
      <point x="377" y="467"/>
      <point x="345" y="527"/>
      <point x="267" y="527" type="curve" smooth="yes"/>
      <point x="195" y="527"/>
      <point x="142" y="475"/>
      <point x="103" y="389" type="curve"/>
      <point x="104" y="387" type="line"/>
      <point x="143" y="473"/>
      <point x="196" y="525"/>
      <point x="267" y="525" type="curve" smooth="yes"/>
      <point x="344" y="525"/>
      <point x="375" y="466"/>
      <point x="375" y="378" type="curve" smooth="yes"/>
      <point x="375" y="0" type="line"/>
    </contour>
    <contour>
      <point x="104" y="0" type="line"/>
      <point x="104" y="730" type="line"/>
      <point x="102" y="730" type="line"/>
      <point x="102" y="0" type="line"/>
    </contour>
    <contour>
      <point x="240" y="260" type="move" name="center"/>
    </contour>
    <contour>
      <point x="240" y="0" type="move" name="bottom"/>
    </contour>
    <contour>
      <point x="240" y="727" type="move" name="top"/>
    </contour>
  </outline>
</glyph>
<glyph name="k" format="1">
  <advance width="367"/>
  <unicode hex="006B"/>
  <outline>
    <contour>
      <point x="322" y="517" type="line"/>
      <point x="109" y="283" type="line"/>
      <point x="344" y="0" type="line"/>
      <point x="347" y="0" type="line"/>
      <point x="112" y="283" type="line"/>
      <point x="325" y="517" type="line"/>
    </contour>
    <contour>
      <point x="102" y="730" type="line"/>
      <point x="102" y="0" type="line"/>
      <point x="104" y="0" type="line"/>
      <point x="104" y="730" type="line"/>
    </contour>
    <contour>
      <point x="213" y="727" type="move" name="top"/>
    </contour>
    <contour>
      <point x="220" y="0" type="move" name="bottom"/>
    </contour>
  </outline>
</glyph>
<glyph name="l" format="1">
  <advance width="224"/>
  <unicode hex="006C"/>
  <outline>
    <contour>
      <point x="158" y="-9"/>
      <point x="169" y="-6"/>
      <point x="179" y="-1" type="curve"/>
      <point x="179" y="1" type="line"/>
      <point x="169" y="-4"/>
      <point x="158" y="-7"/>
      <point x="146" y="-7" type="curve" smooth="yes"/>
      <point x="114" y="-7"/>
      <point x="99" y="15"/>
      <point x="99" y="50" type="curve" smooth="yes"/>
      <point x="99" y="730" type="line"/>
      <point x="97" y="730" type="line"/>
      <point x="97" y="50" type="line" smooth="yes"/>
      <point x="97" y="14"/>
      <point x="113" y="-9"/>
      <point x="146" y="-9" type="curve" smooth="yes"/>
    </contour>
    <contour>
      <point x="141" y="0" type="move" name="bottom"/>
    </contour>
    <contour>
      <point x="98" y="730" type="move" name="top"/>
    </contour>
    <contour>
      <point x="148" y="727" type="move" name="topright"/>
    </contour>
    <contour>
      <point x="209" y="375" type="move" name="center"/>
    </contour>
  </outline>
</glyph>
<glyph name="m" format="1">
  <advance width="692"/>
  <unicode hex="006D"/>
  <outline>
    <contour>
      <point x="183" y="527"/>
      <point x="138" y="475"/>
      <point x="103" y="389" type="curve"/>
      <point x="104" y="387" type="line"/>
      <point x="139" y="473"/>
      <point x="184" y="525"/>
      <point x="247" y="525" type="curve" smooth="yes"/>
      <point x="315" y="525"/>
      <point x="347" y="464"/>
      <point x="347" y="383" type="curve" smooth="yes"/>
      <point x="347" y="0" type="line"/>
      <point x="349" y="0" type="line"/>
      <point x="349" y="388" type="line"/>
      <point x="349" y="389" type="line"/>
      <point x="347" y="473"/>
      <point x="311" y="527"/>
      <point x="247" y="527" type="curve" smooth="yes"/>
    </contour>
    <contour>
      <point x="102" y="517" type="line"/>
      <point x="102" y="0" type="line"/>
      <point x="104" y="0" type="line"/>
      <point x="104" y="389" type="line"/>
      <point x="104" y="517" type="line"/>
    </contour>
    <contour>
      <point x="428" y="527"/>
      <point x="383" y="475"/>
      <point x="348" y="389" type="curve"/>
      <point x="349" y="387" type="line"/>
      <point x="384" y="473"/>
      <point x="429" y="525"/>
      <point x="492" y="525" type="curve" smooth="yes"/>
      <point x="560" y="525"/>
      <point x="592" y="464"/>
      <point x="592" y="378" type="curve" smooth="yes"/>
      <point x="592" y="0" type="line"/>
      <point x="594" y="0" type="line"/>
      <point x="594" y="378" type="line" smooth="yes"/>
      <point x="594" y="465"/>
      <point x="561" y="527"/>
      <point x="492" y="527" type="curve" smooth="yes"/>
    </contour>
    <contour>
      <point x="347" y="517" type="move" name="top"/>
    </contour>
    <contour>
      <point x="347" y="0" type="move" name="bottom"/>
    </contour>
  </outline>
</glyph>
<glyph name="o" format="1">
  <advance width="457"/>
  <unicode hex="006F"/>
  <outline>
    <contour>
      <point x="131" y="527"/>
      <point x="65" y="446"/>
      <point x="65" y="258" type="curve" smooth="yes"/>
      <point x="65" y="76"/>
      <point x="127" y="-9"/>
      <point x="228" y="-9" type="curve" smooth="yes"/>
      <point x="329" y="-9"/>
      <point x="392" y="74"/>
      <point x="392" y="262" type="curve" smooth="yes"/>
      <point x="392" y="444"/>
      <point x="330" y="527"/>
      <point x="230" y="527" type="curve" smooth="yes"/>
    </contour>
    <contour>
      <point x="329" y="525"/>
      <point x="390" y="443"/>
      <point x="390" y="262" type="curve" smooth="yes"/>
      <point x="390" y="76"/>
      <point x="328" y="-7"/>
      <point x="228" y="-7" type="curve" smooth="yes"/>
      <point x="128" y="-7"/>
      <point x="67" y="77"/>
      <point x="67" y="258" type="curve" smooth="yes"/>
      <point x="67" y="444"/>
      <point x="132" y="525"/>
      <point x="230" y="525" type="curve" smooth="yes"/>
    </contour>
    <contour>
      <point x="288" y="0" type="move" name="ogonek"/>
    </contour>
    <contour>
      <point x="229" y="517" type="move" name="top"/>
    </contour>
    <contour>
      <point x="355" y="517" type="move" name="topright"/>
    </contour>
    <contour>
      <point x="229" y="0" type="move" name="bottom"/>
    </contour>
  </outline>
</glyph>
<glyph name="r" format="1">
  <advance width="295"/>
  <unicode hex="0072"/>
  <outline>
    <contour>
      <point x="170" y="527"/>
      <point x="130" y="484"/>
      <point x="103" y="372" type="curve"/>
      <point x="103" y="365" type="line"/>
      <point x="131" y="482"/>
      <point x="170" y="525"/>
      <point x="238" y="525" type="curve" smooth="yes"/>
      <point x="254" y="525"/>
      <point x="265" y="523"/>
      <point x="275" y="520" type="curve"/>
      <point x="275" y="522" type="line"/>
      <point x="265" y="525"/>
      <point x="254" y="527"/>
      <point x="238" y="527" type="curve" smooth="yes"/>
    </contour>
    <contour>
      <point x="102" y="517" type="line"/>
      <point x="102" y="0" type="line"/>
      <point x="104" y="0" type="line"/>
      <point x="104" y="371" type="line"/>
      <point x="104" y="372" type="line"/>
      <point x="104" y="517" type="line"/>
    </contour>
    <contour>
      <point x="188" y="517" type="move" name="top"/>
    </contour>
    <contour>
      <point x="103" y="0" type="move" name="bottom"/>
    </contour>
  </outline>
</glyph>
<glyph name="t" format="1">
  <advance width="264"/>
  <unicode hex="0074"/>
  <outline>
    <contour>
      <point x="96" y="651" type="line"/>
      <point x="96" y="93" type="line" smooth="yes"/>
      <point x="96" y="28"/>
      <point x="128" y="-9"/>
      <point x="181" y="-9" type="curve" smooth="yes"/>
      <point x="216" y="-9"/>
      <point x="238" y="4"/>
      <point x="258" y="19" type="curve"/>
      <point x="257" y="21" type="line"/>
      <point x="236" y="5"/>
      <point x="215" y="-7"/>
      <point x="181" y="-7" type="curve" smooth="yes"/>
      <point x="129" y="-7"/>
      <point x="98" y="29"/>
      <point x="98" y="93" type="curve" smooth="yes"/>
      <point x="98" y="651" type="line"/>
    </contour>
    <contour>
      <point x="25" y="517" type="line"/>
      <point x="25" y="515" type="line"/>
      <point x="218" y="515" type="line"/>
      <point x="218" y="517" type="line"/>
    </contour>
    <contour>
      <point x="185" y="0" type="move" name="bottom"/>
    </contour>
    <contour>
      <point x="97" y="651" type="move" name="top"/>
    </contour>
    <contour>
      <point x="129" y="730" type="move" name="topright"/>
    </contour>
    <contour>
      <point x="120" y="259" type="move" name="center"/>
    </contour>
  </outline>
</glyph>
<glyph name="u" format="1">
  <advance width="471"/>
  <unicode hex="0075"/>
  <outline>
    <contour>
      <point x="367" y="517" type="line"/>
      <point x="367" y="120" type="line"/>
      <point x="333" y="45"/>
      <point x="285" y="-7"/>
      <point x="216" y="-7" type="curve" smooth="yes"/>
      <point x="142" y="-7"/>
      <point x="100" y="48"/>
      <point x="100" y="134" type="curve" smooth="yes"/>
      <point x="100" y="517" type="line"/>
      <point x="98" y="517" type="line"/>
      <point x="98" y="134" type="line" smooth="yes"/>
      <point x="98" y="46"/>
      <point x="141" y="-9"/>
      <point x="216" y="-9" type="curve" smooth="yes"/>
      <point x="284" y="-9"/>
      <point x="333" y="40"/>
      <point x="367" y="116" type="curve"/>
      <point x="367" y="0" type="line"/>
      <point x="369" y="0" type="line"/>
      <point x="369" y="517" type="line"/>
    </contour>
    <contour>
      <point x="377" y="0" type="move" name="ogonek"/>
    </contour>
    <contour>
      <point x="237" y="517" type="move" name="top"/>
    </contour>
    <contour>
      <point x="377" y="517" type="move" name="topright"/>
    </contour>
    <contour>
      <point x="237" y="0" type="move" name="bottom"/>
    </contour>
  </outline>
</glyph>
<glyph name="v" format="1">
  <advance width="364"/>
  <unicode hex="0076"/>
  <outline>
    <contour>
      <point x="334" y="517" type="line"/>
      <point x="186" y="2" type="line"/>
      <point x="30" y="517" type="line"/>
      <point x="28" y="517" type="line"/>
      <point x="185" y="0" type="line"/>
      <point x="187" y="0" type="line"/>
      <point x="336" y="517" type="line"/>
    </contour>
    <contour>
      <point x="182" y="517" type="move" name="top"/>
    </contour>
    <contour>
      <point x="186" y="0" type="move" name="bottom"/>
    </contour>
  </outline>
</glyph>
<glyph name="w" format="1">
  <advance width="556"/>
  <unicode hex="0077"/>
  <outline>
    <contour>
      <point x="519" y="517" type="line"/>
      <point x="404" y="2" type="line"/>
      <point x="279" y="517" type="line"/>
      <point x="277" y="517" type="line"/>
      <point x="152" y="2" type="line"/>
      <point x="37" y="517" type="line"/>
      <point x="35" y="517" type="line"/>
      <point x="151" y="0" type="line"/>
      <point x="153" y="0" type="line"/>
      <point x="278" y="515" type="line"/>
      <point x="403" y="0" type="line"/>
      <point x="405" y="0" type="line"/>
      <point x="521" y="517" type="line"/>
    </contour>
    <contour>
      <point x="278" y="517" type="move" name="top"/>
    </contour>
    <contour>
      <point x="278" y="0" type="move" name="bottom"/>
    </contour>
  </outline>
</glyph>
<glyph name="y" format="1">
  <advance width="363"/>
  <unicode hex="0079"/>
  <outline>
    <contour>
      <point x="333" y="517" type="line"/>
      <point x="187" y="0" type="line"/>
      <point x="30" y="517" type="line"/>
      <point x="28" y="517" type="line"/>
      <point x="185" y="0" type="line"/>
      <point x="187" y="0" type="line"/>
      <point x="155" y="-112"/>
      <point x="137" y="-157"/>
      <point x="53" y="-187" type="curve"/>
      <point x="54" y="-189" type="line"/>
      <point x="139" y="-159"/>
      <point x="157" y="-112"/>
      <point x="189" y="0" type="curve" smooth="yes"/>
      <point x="335" y="517" type="line"/>
    </contour>
    <contour>
      <point x="182" y="517" type="move" name="top"/>
    </contour>
    <contour>
      <point x="189" y="-188" type="move" name="bottom"/>
    </contour>
  </outline>
</glyph>
<glyph name="z" format="1">
  <advance width="337"/>
  <unicode hex="007A"/>
  <outline>
    <contour>
      <point x="54" y="517" type="line"/>
      <point x="54" y="515" type="line"/>
      <point x="301" y="515" type="line"/>
      <point x="29" y="2" type="line"/>
      <point x="29" y="0" type="line"/>
      <point x="295" y="0" type="line"/>
      <point x="295" y="2" type="line"/>
      <point x="32" y="2" type="line"/>
      <point x="304" y="515" type="line"/>
      <point x="304" y="517" type="line"/>
    </contour>
    <contour>
      <point x="177" y="517" type="move" name="top"/>
    </contour>
    <contour>
      <point x="170" y="0" type="move" name="bottom"/>
    </contour>
  </outline>
</glyph>
<glyph name="braceleft" format="1">
  <advance width="267"/>
  <unicode hex="007B"/>
  <outline>
    <contour>
      <point x="149" y="808"/>
      <point x="123" y="782"/>
      <point x="123" y="714" type="curve" smooth="yes"/>
      <point x="123" y="427" type="line"/>
      <point x="123" y="375"/>
      <point x="98" y="350"/>
      <point x="61" y="350" type="curve"/>
      <point x="61" y="348" type="line"/>
      <point x="98" y="348"/>
      <point x="123" y="323"/>
      <point x="123" y="271" type="curve"/>
      <point x="123" y="-16" type="line" smooth="yes"/>
      <point x="123" y="-84"/>
      <point x="149" y="-110"/>
      <point x="189" y="-110" type="curve"/>
      <point x="189" y="-108" type="line"/>
      <point x="149" y="-108"/>
      <point x="125" y="-82"/>
      <point x="125" y="-15" type="curve" smooth="yes"/>
      <point x="125" y="271" type="line"/>
      <point x="125" y="320"/>
      <point x="102" y="349"/>
      <point x="63" y="349" type="curve"/>
      <point x="102" y="349"/>
      <point x="125" y="378"/>
      <point x="125" y="427" type="curve"/>
      <point x="125" y="713" type="line" smooth="yes"/>
      <point x="125" y="780"/>
      <point x="149" y="806"/>
      <point x="189" y="806" type="curve"/>
      <point x="189" y="808" type="line"/>
    </contour>
  </outline>
</glyph>
<glyph name="braceright" format="1">
  <advance width="267"/>
  <unicode hex="007D"/>
  <outline>
    <contour>
      <point x="78" y="806" type="line"/>
      <point x="118" y="806"/>
      <point x="142" y="780"/>
      <point x="142" y="713" type="curve" smooth="yes"/>
      <point x="142" y="427" type="line"/>
      <point x="142" y="378"/>
      <point x="165" y="349"/>
      <point x="204" y="349" type="curve"/>
      <point x="165" y="349"/>
      <point x="142" y="320"/>
      <point x="142" y="271" type="curve"/>
      <point x="142" y="-15" type="line" smooth="yes"/>
      <point x="142" y="-82"/>
      <point x="118" y="-108"/>
      <point x="78" y="-108" type="curve"/>
      <point x="78" y="-110" type="line"/>
      <point x="118" y="-110"/>
      <point x="144" y="-84"/>
      <point x="144" y="-16" type="curve" smooth="yes"/>
      <point x="144" y="271" type="line"/>
      <point x="144" y="323"/>
      <point x="169" y="348"/>
      <point x="206" y="348" type="curve"/>
      <point x="206" y="350" type="line"/>
      <point x="169" y="350"/>
      <point x="144" y="375"/>
      <point x="144" y="427" type="curve"/>
      <point x="144" y="714" type="line" smooth="yes"/>
      <point x="144" y="782"/>
      <point x="118" y="808"/>
      <point x="78" y="808" type="curve"/>
    </contour>
  </outline>
</glyph>
<glyph name="asciitilde" format="1">
  <advance width="371"/>
  <unicode hex="007E"/>
  <outline>
    <contour>
      <point x="274" y="291"/>
      <point x="292" y="313"/>
      <point x="302" y="336" type="curve"/>
      <point x="300" y="336" type="line"/>
      <point x="289" y="313"/>
      <point x="273" y="293"/>
      <point x="246" y="293" type="curve"/>
      <point x="206" y="293"/>
      <point x="169" y="348"/>
      <point x="127" y="348" type="curve"/>
      <point x="100" y="348"/>
      <point x="82" y="326"/>
      <point x="69" y="303" type="curve"/>
      <point x="71" y="303" type="line"/>
      <point x="85" y="326"/>
      <point x="101" y="346"/>
      <point x="127" y="346" type="curve" smooth="yes"/>
      <point x="168" y="346"/>
      <point x="205" y="291"/>
      <point x="246" y="291" type="curve" smooth="yes"/>
    </contour>
    <contour>
      <point x="295" y="332" type="move" name="_center"/>
    </contour>
  </outline>
</glyph>
<glyph name="exclamdown" format="1">
  <advance width="210"/>
  <unicode hex="00A1"/>
  <outline>
    <contour>
      <point x="104" y="254" type="line"/>
      <point x="104" y="-188" type="line"/>
      <point x="106" y="-188" type="line"/>
      <point x="106" y="254" type="line"/>
    </contour>
    <contour>
      <point x="101" y="439"/>
      <point x="98" y="436"/>
      <point x="98" y="432" type="curve" smooth="yes"/>
      <point x="98" y="428"/>
      <point x="101" y="425"/>
      <point x="105" y="425" type="curve" smooth="yes"/>
      <point x="109" y="425"/>
      <point x="112" y="428"/>
      <point x="112" y="432" type="curve" smooth="yes"/>
      <point x="112" y="436"/>
      <point x="109" y="439"/>
      <point x="105" y="439" type="curve" smooth="yes"/>
    </contour>
  </outline>
</glyph>
<glyph name="cent" format="1">
  <advance width="379"/>
  <unicode hex="00A2"/>
  <outline>
    <contour>
      <point x="230" y="672" type="line"/>
      <point x="230" y="526" type="line"/>
      <point x="232" y="526" type="line"/>
      <point x="232" y="672" type="line"/>
    </contour>
    <contour>
      <point x="225" y="-144" type="line"/>
      <point x="227" y="-144" type="line"/>
      <point x="227" y="-8" type="line"/>
      <point x="225" y="-8" type="line"/>
    </contour>
    <component base="c"/>
  </outline>
</glyph>
<glyph name="sterling" format="1">
  <advance width="403"/>
  <unicode hex="00A3"/>
  <outline>
    <contour>
      <point x="160" y="670"/>
      <point x="122" y="598"/>
      <point x="122" y="506" type="curve" smooth="yes"/>
      <point x="122" y="118" type="line" smooth="yes"/>
      <point x="122" y="51"/>
      <point x="102" y="23"/>
      <point x="57" y="2" type="curve"/>
      <point x="57" y="0" type="line"/>
      <point x="347" y="0" type="line"/>
      <point x="347" y="2" type="line"/>
      <point x="62" y="2" type="line"/>
      <point x="105" y="23"/>
      <point x="124" y="52"/>
      <point x="124" y="118" type="curve" smooth="yes"/>
      <point x="124" y="506" type="line" smooth="yes"/>
      <point x="124" y="597"/>
      <point x="162" y="668"/>
      <point x="242" y="668" type="curve" smooth="yes"/>
      <point x="289" y="668"/>
      <point x="322" y="646"/>
      <point x="348" y="608" type="curve"/>
      <point x="350" y="609" type="line"/>
      <point x="323" y="648"/>
      <point x="289" y="670"/>
      <point x="242" y="670" type="curve" smooth="yes"/>
    </contour>
    <contour>
      <point x="76" y="356" type="line"/>
      <point x="76" y="354" type="line"/>
      <point x="296" y="354" type="line"/>
      <point x="296" y="356" type="line"/>
    </contour>
  </outline>
</glyph>
<glyph name="currency" format="1">
  <advance width="460"/>
  <unicode hex="00A4"/>
  <outline>
    <contour>
      <point x="152" y="510"/>
      <point x="94" y="446"/>
      <point x="94" y="339" type="curve"/>
      <point x="94" y="231"/>
      <point x="154" y="170"/>
      <point x="229" y="170" type="curve"/>
      <point x="305" y="170"/>
      <point x="365" y="231"/>
      <point x="365" y="339" type="curve"/>
      <point x="365" y="446"/>
      <point x="308" y="510"/>
      <point x="229" y="510" type="curve"/>
    </contour>
    <contour>
      <point x="138" y="210" type="line"/>
      <point x="137" y="212" type="line"/>
      <point x="74" y="136" type="line"/>
      <point x="76" y="135" type="line"/>
    </contour>
    <contour>
      <point x="386" y="136" type="line"/>
      <point x="322" y="212" type="line"/>
      <point x="321" y="210" type="line"/>
      <point x="384" y="135" type="line"/>
    </contour>
    <contour>
      <point x="74" y="540" type="line"/>
      <point x="134" y="465" type="line"/>
      <point x="136" y="466" type="line"/>
      <point x="76" y="541" type="line"/>
    </contour>
    <contour>
      <point x="324" y="465" type="line"/>
      <point x="326" y="464" type="line"/>
      <point x="386" y="540" type="line"/>
      <point x="384" y="541" type="line"/>
    </contour>
    <contour>
      <point x="308" y="508"/>
      <point x="363" y="444"/>
      <point x="363" y="339" type="curve" smooth="yes"/>
      <point x="363" y="230"/>
      <point x="303" y="172"/>
      <point x="229" y="172" type="curve"/>
      <point x="156" y="172"/>
      <point x="96" y="230"/>
      <point x="96" y="339" type="curve" smooth="yes"/>
      <point x="96" y="445"/>
      <point x="152" y="508"/>
      <point x="229" y="508" type="curve"/>
    </contour>
  </outline>
</glyph>
<glyph name="yen" format="1">
  <advance width="384"/>
  <unicode hex="00A5"/>
  <outline>
    <contour>
      <point x="362" y="660" type="line"/>
      <point x="192" y="321" type="line"/>
      <point x="22" y="660" type="line"/>
      <point x="20" y="660" type="line"/>
      <point x="191" y="319" type="line"/>
      <point x="191" y="0" type="line"/>
      <point x="193" y="0" type="line"/>
      <point x="193" y="319" type="line"/>
      <point x="364" y="660" type="line"/>
    </contour>
    <contour>
      <point x="86" y="186" type="line"/>
      <point x="86" y="184" type="line"/>
      <point x="302" y="184" type="line"/>
      <point x="302" y="186" type="line"/>
    </contour>
    <contour>
      <point x="86" y="320" type="line"/>
      <point x="86" y="318" type="line"/>
      <point x="302" y="318" type="line"/>
      <point x="302" y="320" type="line"/>
    </contour>
  </outline>
</glyph>
<glyph name="brokenbar" format="1">
  <advance width="344"/>
  <unicode hex="00A6"/>
  <outline>
    <contour>
      <point x="171" y="800" type="line"/>
      <point x="171" y="443" type="line"/>
      <point x="173" y="443" type="line"/>
      <point x="173" y="800" type="line"/>
    </contour>
    <contour>
      <point x="171" y="262" type="line"/>
      <point x="171" y="-97" type="line"/>
      <point x="173" y="-97" type="line"/>
      <point x="173" y="262" type="line"/>
    </contour>
  </outline>
</glyph>
<glyph name="section" format="1">
  <advance width="435"/>
  <unicode hex="00A7"/>
  <outline>
    <contour>
      <point x="165" y="670"/>
      <point x="111" y="628"/>
      <point x="111" y="552" type="curve"/>
      <point x="111" y="493"/>
      <point x="135" y="463"/>
      <point x="230" y="424" type="curve"/>
      <point x="313" y="388"/>
      <point x="343" y="358"/>
      <point x="343" y="284" type="curve"/>
      <point x="343" y="224"/>
      <point x="313" y="184"/>
      <point x="273" y="157" type="curve"/>
      <point x="275" y="156" type="line"/>
      <point x="316" y="184"/>
      <point x="345" y="224"/>
      <point x="345" y="284" type="curve"/>
      <point x="345" y="359"/>
      <point x="314" y="390"/>
      <point x="230" y="426" type="curve"/>
      <point x="137" y="465"/>
      <point x="113" y="493"/>
      <point x="113" y="552" type="curve"/>
      <point x="113" y="627"/>
      <point x="166" y="668"/>
      <point x="226" y="668" type="curve"/>
      <point x="268" y="668"/>
      <point x="300" y="655"/>
      <point x="335" y="628" type="curve"/>
      <point x="336" y="630" type="line"/>
      <point x="300" y="657"/>
      <point x="268" y="670"/>
      <point x="226" y="670" type="curve"/>
    </contour>
    <contour>
      <point x="115" y="414"/>
      <point x="90" y="375"/>
      <point x="90" y="321" type="curve"/>
      <point x="90" y="248"/>
      <point x="125" y="220"/>
      <point x="211" y="185" type="curve"/>
      <point x="298" y="151"/>
      <point x="325" y="124"/>
      <point x="325" y="61" type="curve" smooth="yes"/>
      <point x="325" y="-13"/>
      <point x="277" y="-57"/>
      <point x="210" y="-57" type="curve"/>
      <point x="165" y="-57"/>
      <point x="130" y="-44"/>
      <point x="95" y="-16" type="curve"/>
      <point x="94" y="-18" type="line"/>
      <point x="129" y="-46"/>
      <point x="164" y="-59"/>
      <point x="210" y="-59" type="curve"/>
      <point x="278" y="-59"/>
      <point x="327" y="-14"/>
      <point x="327" y="61" type="curve" smooth="yes"/>
      <point x="327" y="125"/>
      <point x="300" y="153"/>
      <point x="211" y="187" type="curve"/>
      <point x="125" y="222"/>
      <point x="92" y="250"/>
      <point x="92" y="321" type="curve"/>
      <point x="92" y="375"/>
      <point x="117" y="413"/>
      <point x="169" y="454" type="curve"/>
      <point x="167" y="455" type="line"/>
    </contour>
  </outline>
</glyph>
<glyph name="copyright" format="1">
  <advance width="664"/>
  <unicode hex="00A9"/>
  <outline>
    <contour>
      <point x="205" y="711"/>
      <point x="113" y="611"/>
      <point x="113" y="435" type="curve" smooth="yes"/>
      <point x="113" y="256"/>
      <point x="205" y="159"/>
      <point x="332" y="159" type="curve"/>
      <point x="459" y="159"/>
      <point x="551" y="259"/>
      <point x="551" y="435" type="curve" smooth="yes"/>
      <point x="551" y="614"/>
      <point x="459" y="711"/>
      <point x="332" y="711" type="curve"/>
    </contour>
    <contour>
      <point x="284" y="602"/>
      <point x="227" y="558"/>
      <point x="227" y="437" type="curve" smooth="yes"/>
      <point x="227" y="323"/>
      <point x="273" y="271"/>
      <point x="330" y="271" type="curve"/>
      <point x="366" y="271"/>
      <point x="388" y="285"/>
      <point x="403" y="301" type="curve"/>
      <point x="402" y="303" type="line"/>
      <point x="386" y="287"/>
      <point x="366" y="273"/>
      <point x="330" y="273" type="curve"/>
      <point x="274" y="273"/>
      <point x="229" y="324"/>
      <point x="229" y="437" type="curve" smooth="yes"/>
      <point x="229" y="557"/>
      <point x="285" y="600"/>
      <point x="330" y="600" type="curve"/>
      <point x="361" y="600"/>
      <point x="379" y="588"/>
      <point x="393" y="574" type="curve"/>
      <point x="394" y="576" type="line"/>
      <point x="380" y="590"/>
      <point x="361" y="602"/>
      <point x="330" y="602" type="curve"/>
    </contour>
    <contour>
      <point x="458" y="709"/>
      <point x="549" y="613"/>
      <point x="549" y="435" type="curve" smooth="yes"/>
      <point x="549" y="260"/>
      <point x="458" y="161"/>
      <point x="332" y="161" type="curve"/>
      <point x="206" y="161"/>
      <point x="115" y="257"/>
      <point x="115" y="435" type="curve" smooth="yes"/>
      <point x="115" y="610"/>
      <point x="206" y="709"/>
      <point x="332" y="709" type="curve"/>
    </contour>
  </outline>
</glyph>
<glyph name="ordfeminine" format="1">
  <advance width="414"/>
  <unicode hex="00AA"/>
  <outline>
    <contour>
      <point x="170" y="680"/>
      <point x="140" y="672"/>
      <point x="104" y="655" type="curve"/>
      <point x="105" y="653" type="line"/>
      <point x="141" y="670"/>
      <point x="171" y="678"/>
      <point x="204" y="678" type="curve" smooth="yes"/>
      <point x="269" y="678"/>
      <point x="292" y="638"/>
      <point x="292" y="579" type="curve" smooth="yes"/>
      <point x="292" y="356" type="line"/>
      <point x="292" y="354" type="line"/>
      <point x="292" y="310"/>
      <point x="299" y="289"/>
      <point x="328" y="278" type="curve"/>
      <point x="329" y="280" type="line"/>
      <point x="300" y="290"/>
      <point x="294" y="313"/>
      <point x="294" y="358" type="curve" smooth="yes"/>
      <point x="294" y="579" type="line" smooth="yes"/>
      <point x="294" y="640"/>
      <point x="270" y="680"/>
      <point x="204" y="680" type="curve" smooth="yes"/>
    </contour>
    <contour>
      <point x="210" y="513" type="line" smooth="yes"/>
      <point x="130" y="513"/>
      <point x="80" y="470"/>
      <point x="80" y="394" type="curve" smooth="yes"/>
      <point x="80" y="327"/>
      <point x="115" y="278"/>
      <point x="179" y="278" type="curve" smooth="yes"/>
      <point x="236" y="278"/>
      <point x="269" y="309"/>
      <point x="292" y="355" type="curve"/>
      <point x="292" y="359" type="line"/>
      <point x="269" y="312"/>
      <point x="236" y="280"/>
      <point x="179" y="280" type="curve" smooth="yes"/>
      <point x="116" y="280"/>
      <point x="82" y="328"/>
      <point x="82" y="394" type="curve" smooth="yes"/>
      <point x="82" y="469"/>
      <point x="131" y="511"/>
      <point x="211" y="511" type="curve" smooth="yes"/>
      <point x="292" y="511" type="line"/>
      <point x="292" y="513" type="line"/>
    </contour>
    <component base="minus" xOffset="11" yOffset="-330"/>
  </outline>
</glyph>
<glyph name="registered" format="1">
  <advance width="520"/>
  <unicode hex="00AE"/>
  <outline>
    <contour>
      <point x="148" y="709"/>
      <point x="90" y="625"/>
      <point x="90" y="499" type="curve"/>
      <point x="90" y="373"/>
      <point x="156" y="294"/>
      <point x="260" y="294" type="curve"/>
      <point x="372" y="294"/>
      <point x="430" y="378"/>
      <point x="430" y="504" type="curve"/>
      <point x="430" y="630"/>
      <point x="364" y="709"/>
      <point x="260" y="709" type="curve"/>
    </contour>
    <contour>
      <point x="270" y="496" type="line"/>
      <point x="331" y="371" type="line"/>
      <point x="333" y="371" type="line"/>
      <point x="272" y="496" type="line"/>
    </contour>
    <contour>
      <point x="363" y="707"/>
      <point x="428" y="629"/>
      <point x="428" y="504" type="curve"/>
      <point x="428" y="379"/>
      <point x="371" y="296"/>
      <point x="260" y="296" type="curve"/>
      <point x="157" y="296"/>
      <point x="92" y="374"/>
      <point x="92" y="499" type="curve"/>
      <point x="92" y="624"/>
      <point x="149" y="707"/>
      <point x="260" y="707" type="curve"/>
    </contour>
    <contour>
      <point x="205" y="639" type="line"/>
      <point x="205" y="372" type="line"/>
      <point x="207" y="372" type="line"/>
      <point x="207" y="637" type="line"/>
      <point x="251" y="637" type="line"/>
      <point x="297" y="637"/>
      <point x="324" y="614"/>
      <point x="324" y="566" type="curve"/>
      <point x="324" y="519"/>
      <point x="298" y="497"/>
      <point x="266" y="497" type="curve"/>
      <point x="206" y="497" type="line"/>
      <point x="206" y="495" type="line"/>
      <point x="270" y="495" type="line"/>
      <point x="271" y="495" type="line"/>
      <point x="299" y="497"/>
      <point x="326" y="518"/>
      <point x="326" y="566" type="curve"/>
      <point x="326" y="616"/>
      <point x="297" y="639"/>
      <point x="251" y="639" type="curve"/>
    </contour>
  </outline>
</glyph>
<glyph name="degree" format="1">
  <advance width="412"/>
  <unicode hex="00B0"/>
  <outline>
    <contour>
      <point x="123" y="423"/>
      <point x="80" y="470"/>
      <point x="80" y="556" type="curve"/>
      <point x="80" y="638"/>
      <point x="122" y="688"/>
      <point x="181" y="688" type="curve"/>
      <point x="245" y="688"/>
      <point x="282" y="638"/>
      <point x="282" y="555" type="curve"/>
      <point x="282" y="470"/>
      <point x="245" y="423"/>
      <point x="181" y="423" type="curve"/>
    </contour>
    <contour>
      <point x="246" y="421"/>
      <point x="284" y="469"/>
      <point x="284" y="555" type="curve"/>
      <point x="284" y="639"/>
      <point x="246" y="690"/>
      <point x="181" y="690" type="curve"/>
      <point x="121" y="690"/>
      <point x="78" y="639"/>
      <point x="78" y="556" type="curve"/>
      <point x="78" y="469"/>
      <point x="122" y="421"/>
      <point x="181" y="421" type="curve"/>
    </contour>
  </outline>
</glyph>
<glyph name="paragraph" format="1">
  <advance width="559"/>
  <unicode hex="00B6"/>
  <outline>
    <contour>
      <point x="280" y="680" type="line"/>
      <point x="279" y="678" type="line"/>
      <point x="279" y="-190" type="line"/>
      <point x="281" y="-190" type="line"/>
      <point x="281" y="678" type="line"/>
      <point x="402" y="678" type="line"/>
      <point x="402" y="-190" type="line"/>
      <point x="404" y="-190" type="line"/>
      <point x="404" y="680" type="line"/>
    </contour>
    <contour>
      <point x="177" y="680"/>
      <point x="106" y="613"/>
      <point x="106" y="496" type="curve"/>
      <point x="106" y="399"/>
      <point x="152" y="312"/>
      <point x="280" y="312" type="curve"/>
      <point x="280" y="680" type="line"/>
    </contour>
  </outline>
</glyph>
<glyph name="questiondown" format="1">
  <advance width="383"/>
  <unicode hex="00BF"/>
  <outline>
    <contour>
      <point x="238" y="-192"/>
      <point x="281" y="-165"/>
      <point x="318" y="-112" type="curve"/>
      <point x="316" y="-110" type="line"/>
      <point x="280" y="-163"/>
      <point x="238" y="-190"/>
      <point x="182" y="-190" type="curve"/>
      <point x="115" y="-190"/>
      <point x="67" y="-136"/>
      <point x="67" y="-68" type="curve"/>
      <point x="67" y="76"/>
      <point x="219" y="54"/>
      <point x="219" y="217" type="curve"/>
      <point x="219" y="255" type="line"/>
      <point x="217" y="255" type="line"/>
      <point x="217" y="217" type="line"/>
      <point x="217" y="56"/>
      <point x="65" y="76"/>
      <point x="65" y="-68" type="curve"/>
      <point x="65" y="-137"/>
      <point x="115" y="-192"/>
      <point x="182" y="-192" type="curve"/>
    </contour>
    <contour>
      <point x="222" y="425"/>
      <point x="225" y="428"/>
      <point x="225" y="432" type="curve" smooth="yes"/>
      <point x="225" y="436"/>
      <point x="222" y="439"/>
      <point x="218" y="439" type="curve" smooth="yes"/>
      <point x="214" y="439"/>
      <point x="211" y="436"/>
      <point x="211" y="432" type="curve" smooth="yes"/>
      <point x="211" y="428"/>
      <point x="214" y="425"/>
      <point x="218" y="425" type="curve" smooth="yes"/>
    </contour>
  </outline>
</glyph>
<glyph name="AE" format="1">
  <advance width="615"/>
  <unicode hex="00C6"/>
  <outline>
    <contour>
      <point x="233" y="680" type="line"/>
      <point x="17" y="0" type="line"/>
      <point x="19" y="0" type="line"/>
      <point x="234" y="678" type="line"/>
      <point x="380" y="0" type="line"/>
      <point x="574" y="0" type="line"/>
      <point x="574" y="2" type="line"/>
      <point x="382" y="2" type="line"/>
      <point x="236" y="678" type="line"/>
      <point x="529" y="678" type="line"/>
      <point x="529" y="680" type="line"/>
    </contour>
    <contour>
      <point x="84" y="207" type="line"/>
      <point x="83" y="205" type="line"/>
      <point x="336" y="205" type="line"/>
      <point x="336" y="207" type="line"/>
    </contour>
    <contour>
      <point x="303" y="362" type="line"/>
      <point x="303" y="360" type="line"/>
      <point x="521" y="360" type="line"/>
      <point x="521" y="362" type="line"/>
    </contour>
    <contour>
      <point x="374" y="680" type="move" name="top"/>
    </contour>
    <contour>
      <point x="307" y="0" type="move" name="bottom"/>
    </contour>
  </outline>
</glyph>
<glyph name="Eth" format="1">
  <advance width="499"/>
  <unicode hex="00D0"/>
  <outline>
    <contour>
      <point x="102" y="354" type="line"/>
      <point x="25" y="354" type="line"/>
      <point x="25" y="352" type="line"/>
      <point x="265" y="352" type="line"/>
      <point x="265" y="354" type="line"/>
    </contour>
    <component base="D" xOffset="-4"/>
  </outline>
</glyph>
<glyph name="multiply" format="1">
  <advance width="392"/>
  <unicode hex="00D7"/>
  <outline>
    <contour>
      <point x="196" y="309" type="line"/>
      <point x="88" y="444" type="line"/>
      <point x="86" y="443" type="line"/>
      <point x="194" y="308" type="line"/>
      <point x="86" y="172" type="line"/>
      <point x="88" y="171" type="line"/>
      <point x="196" y="306" type="line"/>
      <point x="304" y="171" type="line"/>
      <point x="306" y="172" type="line"/>
      <point x="198" y="308" type="line"/>
      <point x="306" y="443" type="line"/>
      <point x="304" y="444" type="line"/>
    </contour>
  </outline>
</glyph>
<glyph name="Oslash" format="1">
  <advance width="564"/>
  <unicode hex="00D8"/>
  <outline>
    <contour>
      <point x="155" y="690"/>
      <point x="70" y="572"/>
      <point x="70" y="338" type="curve" smooth="yes"/>
      <point x="70" y="104"/>
      <point x="151" y="-9"/>
      <point x="282" y="-9" type="curve" smooth="yes"/>
      <point x="419" y="-9"/>
      <point x="494" y="105"/>
      <point x="494" y="340" type="curve" smooth="yes"/>
      <point x="494" y="578"/>
      <point x="414" y="690"/>
      <point x="282" y="690" type="curve" smooth="yes"/>
    </contour>
    <contour>
      <point x="413" y="688"/>
      <point x="492" y="576"/>
      <point x="492" y="340" type="curve" smooth="yes"/>
      <point x="492" y="107"/>
      <point x="418" y="-7"/>
      <point x="282" y="-7" type="curve" smooth="yes"/>
      <point x="152" y="-7"/>
      <point x="72" y="106"/>
      <point x="72" y="338" type="curve" smooth="yes"/>
      <point x="72" y="570"/>
      <point x="156" y="688"/>
      <point x="282" y="688" type="curve" smooth="yes"/>
    </contour>
    <contour>
      <point x="361" y="674" type="line"/>
      <point x="361" y="673" type="line"/>
      <point x="203" y="9" type="line"/>
      <point x="203" y="8" type="line"/>
      <point x="175" y="-102" type="line"/>
      <point x="177" y="-103" type="line"/>
      <point x="205" y="7" type="line"/>
      <point x="205" y="8" type="line"/>
      <point x="363" y="672" type="line"/>
      <point x="363" y="673" type="line"/>
      <point x="390" y="786" type="line"/>
      <point x="388" y="787" type="line"/>
    </contour>
    <contour>
      <point x="275" y="687" type="move" name="top"/>
    </contour>
    <contour>
      <point x="282" y="0" type="move" name="bottom"/>
    </contour>
  </outline>
</glyph>
<glyph name="Thorn" format="1">
  <advance width="447"/>
  <unicode hex="00DE"/>
  <outline>
    <contour>
      <point x="106" y="550" type="line"/>
      <point x="108" y="548" type="line"/>
      <point x="176" y="548" type="line" smooth="yes"/>
      <point x="336" y="548"/>
      <point x="397" y="491"/>
      <point x="397" y="351" type="curve" smooth="yes"/>
      <point x="397" y="210"/>
      <point x="322" y="156"/>
      <point x="174" y="156" type="curve" smooth="yes"/>
      <point x="107" y="156" type="line"/>
      <point x="107" y="154" type="line"/>
      <point x="174" y="154" type="line" smooth="yes"/>
      <point x="324" y="154"/>
      <point x="399" y="209"/>
      <point x="399" y="351" type="curve" smooth="yes"/>
      <point x="399" y="492"/>
      <point x="337" y="550"/>
      <point x="176" y="550" type="curve" smooth="yes"/>
    </contour>
    <contour>
      <point x="106" y="680" type="line"/>
      <point x="106" y="0" type="line"/>
      <point x="108" y="0" type="line"/>
      <point x="108" y="680" type="line"/>
    </contour>
    <contour>
      <point x="226" y="680" type="move" name="top"/>
    </contour>
    <contour>
      <point x="226" y="0" type="move" name="bottom"/>
    </contour>
  </outline>
</glyph>
<glyph name="germandbls" format="1">
  <advance width="467"/>
  <unicode hex="00DF"/>
  <outline>
    <contour>
      <point x="158" y="733"/>
      <point x="102" y="670"/>
      <point x="102" y="571" type="curve"/>
      <point x="102" y="0" type="line"/>
      <point x="104" y="0" type="line"/>
      <point x="104" y="571" type="line"/>
      <point x="104" y="669"/>
      <point x="159" y="731"/>
      <point x="237" y="731" type="curve"/>
      <point x="309" y="731"/>
      <point x="350" y="685"/>
      <point x="350" y="612" type="curve"/>
      <point x="350" y="507"/>
      <point x="251" y="490"/>
      <point x="251" y="416" type="curve"/>
      <point x="251" y="324"/>
      <point x="412" y="327"/>
      <point x="412" y="142" type="curve"/>
      <point x="412" y="49"/>
      <point x="372" y="-8"/>
      <point x="303" y="-8" type="curve"/>
      <point x="268" y="-8"/>
      <point x="248" y="2"/>
      <point x="229" y="15" type="curve"/>
      <point x="228" y="13" type="line"/>
      <point x="246" y="1"/>
      <point x="267" y="-10"/>
      <point x="303" y="-10" type="curve"/>
      <point x="373" y="-10"/>
      <point x="414" y="48"/>
      <point x="414" y="142" type="curve"/>
      <point x="414" y="328"/>
      <point x="253" y="325"/>
      <point x="253" y="416" type="curve"/>
      <point x="253" y="489"/>
      <point x="352" y="506"/>
      <point x="352" y="612" type="curve"/>
      <point x="352" y="686"/>
      <point x="310" y="733"/>
      <point x="237" y="733" type="curve"/>
    </contour>
  </outline>
</glyph>
<glyph name="ae" format="1">
  <advance width="688"/>
  <unicode hex="00E6"/>
  <outline>
    <contour>
      <point x="391" y="527"/>
      <point x="331" y="439"/>
      <point x="323" y="288" type="curve"/>
      <point x="322" y="253" type="line"/>
      <point x="322" y="75"/>
      <point x="385" y="-9"/>
      <point x="483" y="-9" type="curve" smooth="yes"/>
      <point x="538" y="-9"/>
      <point x="572" y="13"/>
      <point x="609" y="50" type="curve"/>
      <point x="608" y="52" type="line"/>
      <point x="571" y="14"/>
      <point x="536" y="-7"/>
      <point x="483" y="-7" type="curve" smooth="yes"/>
      <point x="387" y="-7"/>
      <point x="324" y="76"/>
      <point x="324" y="253" type="curve"/>
      <point x="324" y="424"/>
      <point x="385" y="525"/>
      <point x="483" y="525" type="curve" smooth="yes"/>
      <point x="583" y="525"/>
      <point x="626" y="432"/>
      <point x="626" y="288" type="curve" smooth="yes"/>
      <point x="626" y="275"/>
      <point x="626" y="267"/>
      <point x="625" y="254" type="curve"/>
      <point x="323" y="254" type="line"/>
      <point x="323" y="252" type="line"/>
      <point x="627" y="252" type="line"/>
      <point x="628" y="266"/>
      <point x="628" y="274"/>
      <point x="628" y="288" type="curve" smooth="yes"/>
      <point x="628" y="434"/>
      <point x="584" y="527"/>
      <point x="483" y="527" type="curve" smooth="yes"/>
    </contour>
    <contour>
      <point x="230" y="304" type="line" smooth="yes"/>
      <point x="119" y="304"/>
      <point x="57" y="246"/>
      <point x="57" y="145" type="curve" smooth="yes"/>
      <point x="57" y="56"/>
      <point x="101" y="-9"/>
      <point x="180" y="-9" type="curve" smooth="yes"/>
      <point x="251" y="-9"/>
      <point x="293" y="30"/>
      <point x="338" y="123" type="curve"/>
      <point x="337" y="125" type="line"/>
      <point x="293" y="35"/>
      <point x="252" y="-7"/>
      <point x="180" y="-7" type="curve" smooth="yes"/>
      <point x="102" y="-7"/>
      <point x="59" y="57"/>
      <point x="59" y="145" type="curve" smooth="yes"/>
      <point x="59" y="244"/>
      <point x="120" y="302"/>
      <point x="230" y="302" type="curve" smooth="yes"/>
      <point x="323" y="302" type="line"/>
      <point x="323" y="304" type="line"/>
    </contour>
    <contour>
      <point x="170" y="527"/>
      <point x="132" y="516"/>
      <point x="87" y="493" type="curve"/>
      <point x="87" y="491" type="line"/>
      <point x="133" y="514"/>
      <point x="170" y="525"/>
      <point x="208" y="525" type="curve" smooth="yes"/>
      <point x="292" y="525"/>
      <point x="322" y="466"/>
      <point x="322" y="372" type="curve" smooth="yes"/>
      <point x="322" y="253" type="line"/>
      <point x="324" y="253" type="line"/>
      <point x="324" y="372" type="line" smooth="yes"/>
      <point x="324" y="468"/>
      <point x="293" y="527"/>
      <point x="208" y="527" type="curve" smooth="yes"/>
    </contour>
    <contour>
      <point x="345" y="517" type="move" name="top"/>
    </contour>
    <contour>
      <point x="342" y="0" type="move" name="bottom"/>
    </contour>
  </outline>
</glyph>
<glyph name="eth" format="1">
  <advance width="443"/>
  <unicode hex="00F0"/>
  <outline>
    <contour>
      <point x="124" y="732" type="line"/>
      <point x="164" y="720"/>
      <point x="207" y="699"/>
      <point x="242" y="669" type="curve"/>
      <point x="326" y="596"/>
      <point x="368" y="491"/>
      <point x="371" y="335" type="curve"/>
      <point x="371" y="334" type="line"/>
      <point x="371" y="330"/>
      <point x="371" y="326"/>
      <point x="371" y="322" type="curve"/>
      <point x="371" y="83"/>
      <point x="316" y="-7"/>
      <point x="216" y="-7" type="curve" smooth="yes"/>
      <point x="123" y="-7"/>
      <point x="67" y="79"/>
      <point x="67" y="228" type="curve" smooth="yes"/>
      <point x="67" y="361"/>
      <point x="120" y="455"/>
      <point x="213" y="455" type="curve" smooth="yes"/>
      <point x="281" y="455"/>
      <point x="332" y="405"/>
      <point x="372" y="332" type="curve"/>
      <point x="372" y="335" type="line"/>
      <point x="333" y="407"/>
      <point x="282" y="457"/>
      <point x="213" y="457" type="curve" smooth="yes"/>
      <point x="118" y="457"/>
      <point x="65" y="361"/>
      <point x="65" y="228" type="curve" smooth="yes"/>
      <point x="65" y="78"/>
      <point x="122" y="-9"/>
      <point x="216" y="-9" type="curve" smooth="yes"/>
      <point x="318" y="-9"/>
      <point x="373" y="83"/>
      <point x="373" y="322" type="curve" smooth="yes"/>
      <point x="373" y="486"/>
      <point x="328" y="598"/>
      <point x="244" y="670" type="curve"/>
      <point x="209" y="701"/>
      <point x="165" y="722"/>
      <point x="124" y="734" type="curve"/>
    </contour>
    <contour>
      <point x="243" y="671" type="line"/>
      <point x="242" y="670" type="line"/>
      <point x="169" y="577" type="line"/>
      <point x="171" y="576" type="line"/>
      <point x="244" y="669" type="line"/>
      <point x="245" y="670" type="line"/>
      <point x="296" y="736" type="line"/>
      <point x="294" y="737" type="line"/>
    </contour>
    <contour>
      <point x="234" y="727" type="move" name="top"/>
    </contour>
    <contour>
      <point x="219" y="0" type="move" name="bottom"/>
    </contour>
  </outline>
</glyph>
<glyph name="oslash" format="1">
  <advance width="457"/>
  <unicode hex="00F8"/>
  <outline>
    <contour>
      <point x="131" y="527"/>
      <point x="65" y="446"/>
      <point x="65" y="258" type="curve" smooth="yes"/>
      <point x="65" y="76"/>
      <point x="127" y="-9"/>
      <point x="228" y="-9" type="curve" smooth="yes"/>
      <point x="329" y="-9"/>
      <point x="392" y="74"/>
      <point x="392" y="262" type="curve" smooth="yes"/>
      <point x="392" y="444"/>
      <point x="330" y="527"/>
      <point x="230" y="527" type="curve" smooth="yes"/>
    </contour>
    <contour>
      <point x="329" y="525"/>
      <point x="390" y="442"/>
      <point x="390" y="262" type="curve" smooth="yes"/>
      <point x="390" y="76"/>
      <point x="328" y="-7"/>
      <point x="228" y="-7" type="curve" smooth="yes"/>
      <point x="128" y="-7"/>
      <point x="67" y="78"/>
      <point x="67" y="258" type="curve" smooth="yes"/>
      <point x="67" y="444"/>
      <point x="132" y="525"/>
      <point x="230" y="525" type="curve" smooth="yes"/>
    </contour>
    <contour>
      <point x="295" y="512" type="line"/>
      <point x="295" y="511" type="line"/>
      <point x="160" y="9" type="line"/>
      <point x="160" y="8" type="line"/>
      <point x="127" y="-112" type="line"/>
      <point x="129" y="-112" type="line"/>
      <point x="162" y="7" type="line"/>
      <point x="162" y="8" type="line"/>
      <point x="296" y="510" type="line"/>
      <point x="296" y="511" type="line"/>
      <point x="329" y="630" type="line"/>
      <point x="327" y="630" type="line"/>
    </contour>
    <contour>
      <point x="229" y="517" type="move" name="top"/>
    </contour>
    <contour>
      <point x="229" y="0" type="move" name="bottom"/>
    </contour>
  </outline>
</glyph>
<glyph name="dcroat" format="1">
  <advance width="468"/>
  <unicode hex="0111"/>
  <outline>
    <contour>
      <point x="213" y="640" type="line"/>
      <point x="213" y="638" type="line"/>
      <point x="362" y="638" type="line"/>
      <point x="424" y="638" type="line"/>
      <point x="424" y="640" type="line"/>
    </contour>
    <component base="d"/>
  </outline>
</glyph>
<glyph name="Hbar" format="1">
  <advance width="547"/>
  <unicode hex="0126"/>
  <outline>
    <contour>
      <point x="434" y="528" type="line"/>
      <point x="69" y="528" type="line"/>
      <point x="69" y="526" type="line"/>
      <point x="113" y="526" type="line"/>
      <point x="478" y="526" type="line"/>
      <point x="478" y="528" type="line"/>
    </contour>
    <component base="H" xOffset="6"/>
  </outline>
</glyph>
<glyph name="dotlessi" format="1">
  <advance width="206"/>
  <unicode hex="0131"/>
  <outline>
    <contour>
      <point x="102" y="517" type="line"/>
      <point x="102" y="0" type="line"/>
      <point x="104" y="0" type="line"/>
      <point x="104" y="517" type="line"/>
    </contour>
    <contour>
      <point x="112" y="0" type="move" name="ogonek"/>
    </contour>
    <contour>
      <point x="103" y="0" type="move" name="bottom"/>
    </contour>
    <contour>
      <point x="103" y="517" type="move" name="top"/>
    </contour>
  </outline>
</glyph>
<glyph name="kgreenlandic" format="1">
  <advance width="367"/>
  <unicode hex="0138"/>
  <outline>
    <contour>
      <point x="322" y="517" type="line"/>
      <point x="109" y="273" type="line"/>
      <point x="344" y="0" type="line"/>
      <point x="347" y="0" type="line"/>
      <point x="112" y="273" type="line"/>
      <point x="325" y="517" type="line"/>
    </contour>
    <contour>
      <point x="102" y="517" type="line"/>
      <point x="102" y="0" type="line"/>
      <point x="104" y="0" type="line"/>
      <point x="104" y="517" type="line"/>
    </contour>
    <contour>
      <point x="183" y="517" type="move" name="top"/>
    </contour>
    <contour>
      <point x="183" y="0" type="move" name="bottom"/>
    </contour>
  </outline>
</glyph>
<glyph name="Lslash" format="1">
  <advance width="366"/>
  <unicode hex="0141"/>
  <outline>
    <contour>
      <point x="109" y="327" type="line"/>
      <point x="43" y="278" type="line"/>
      <point x="44" y="276" type="line"/>
      <point x="281" y="454" type="line"/>
      <point x="280" y="456" type="line"/>
    </contour>
    <component base="L" xOffset="2"/>
  </outline>
</glyph>
<glyph name="OE" format="1">
  <advance width="688"/>
  <unicode hex="0152"/>
  <outline>
    <contour>
      <point x="150" y="690"/>
      <point x="70" y="557"/>
      <point x="70" y="338" type="curve" smooth="yes"/>
      <point x="70" y="119"/>
      <point x="146" y="-9"/>
      <point x="266" y="-9" type="curve" smooth="yes"/>
      <point x="290" y="-9"/>
      <point x="309" y="-5"/>
      <point x="326" y="1" type="curve"/>
      <point x="419" y="37"/>
      <point x="470" y="156"/>
      <point x="470" y="361" type="curve" smooth="yes"/>
      <point x="470" y="525"/>
      <point x="420" y="642"/>
      <point x="327" y="679" type="curve"/>
      <point x="312" y="685"/>
      <point x="290" y="690"/>
      <point x="266" y="690" type="curve" smooth="yes"/>
    </contour>
    <contour>
      <point x="327" y="2" type="line"/>
      <point x="322" y="0" type="line"/>
      <point x="647" y="0" type="line"/>
      <point x="647" y="2" type="line"/>
    </contour>
    <contour>
      <point x="469" y="362" type="line"/>
      <point x="469" y="360" type="line"/>
      <point x="603" y="360" type="line"/>
      <point x="603" y="362" type="line"/>
    </contour>
    <contour>
      <point x="324" y="680" type="line"/>
      <point x="328" y="678" type="line"/>
      <point x="639" y="678" type="line"/>
      <point x="639" y="680" type="line"/>
    </contour>
    <contour>
      <point x="392" y="688"/>
      <point x="468" y="561"/>
      <point x="468" y="361" type="curve" smooth="yes"/>
      <point x="468" y="122"/>
      <point x="397" y="-7"/>
      <point x="266" y="-7" type="curve" smooth="yes"/>
      <point x="148" y="-7"/>
      <point x="72" y="121"/>
      <point x="72" y="338" type="curve" smooth="yes"/>
      <point x="72" y="555"/>
      <point x="151" y="688"/>
      <point x="266" y="688" type="curve" smooth="yes"/>
    </contour>
    <contour>
      <point x="344" y="680" type="move" name="top"/>
    </contour>
    <contour>
      <point x="344" y="0" type="move" name="bottom"/>
    </contour>
  </outline>
</glyph>
<glyph name="oe" format="1">
  <advance width="757"/>
  <unicode hex="0153"/>
  <outline>
    <contour>
      <point x="131" y="527"/>
      <point x="65" y="441"/>
      <point x="65" y="258" type="curve" smooth="yes"/>
      <point x="65" y="81"/>
      <point x="127" y="-9"/>
      <point x="229" y="-9" type="curve" smooth="yes"/>
      <point x="329" y="-9"/>
      <point x="392" y="89"/>
      <point x="392" y="262" type="curve" smooth="yes"/>
      <point x="392" y="429"/>
      <point x="330" y="527"/>
      <point x="230" y="527" type="curve" smooth="yes"/>
    </contour>
    <contour>
      <point x="329" y="525"/>
      <point x="390" y="427"/>
      <point x="390" y="262" type="curve" smooth="yes"/>
      <point x="390" y="91"/>
      <point x="328" y="-7"/>
      <point x="229" y="-7" type="curve" smooth="yes"/>
      <point x="128" y="-7"/>
      <point x="67" y="83"/>
      <point x="67" y="258" type="curve" smooth="yes"/>
      <point x="67" y="439"/>
      <point x="132" y="525"/>
      <point x="230" y="525" type="curve" smooth="yes"/>
    </contour>
    <contour>
      <point x="453" y="527"/>
      <point x="390" y="426"/>
      <point x="390" y="253" type="curve" smooth="yes"/>
      <point x="390" y="85"/>
      <point x="454" y="-9"/>
      <point x="551" y="-9" type="curve" smooth="yes"/>
      <point x="606" y="-9"/>
      <point x="641" y="13"/>
      <point x="678" y="50" type="curve"/>
      <point x="677" y="52" type="line"/>
      <point x="640" y="14"/>
      <point x="605" y="-7"/>
      <point x="551" y="-7" type="curve" smooth="yes"/>
      <point x="455" y="-7"/>
      <point x="393" y="86"/>
      <point x="392" y="253" type="curve"/>
      <point x="392" y="424"/>
      <point x="454" y="525"/>
      <point x="551" y="525" type="curve" smooth="yes"/>
      <point x="651" y="525"/>
      <point x="695" y="432"/>
      <point x="695" y="288" type="curve" smooth="yes"/>
      <point x="695" y="275"/>
      <point x="695" y="267"/>
      <point x="694" y="254" type="curve"/>
      <point x="392" y="254" type="line"/>
      <point x="392" y="252" type="line"/>
      <point x="696" y="252" type="line"/>
      <point x="697" y="266"/>
      <point x="697" y="274"/>
      <point x="697" y="288" type="curve" smooth="yes"/>
      <point x="697" y="434"/>
      <point x="652" y="527"/>
      <point x="551" y="527" type="curve" smooth="yes"/>
    </contour>
    <contour>
      <point x="391" y="517" type="move" name="top"/>
    </contour>
    <contour>
      <point x="392" y="0" type="move" name="bottom"/>
    </contour>
  </outline>
</glyph>
<glyph name="uni0184" format="1">
  <advance width="451"/>
  <unicode hex="0184"/>
  <outline>
    <contour>
      <point x="108" y="680" type="line"/>
      <point x="106" y="680" type="line"/>
      <point x="106" y="668" type="line"/>
      <point x="106" y="0" type="line"/>
      <point x="209" y="0" type="line" smooth="yes"/>
      <point x="336" y="0"/>
      <point x="401" y="71"/>
      <point x="401" y="210" type="curve" smooth="yes"/>
      <point x="401" y="334"/>
      <point x="337" y="399"/>
      <point x="206" y="399" type="curve" smooth="yes"/>
      <point x="107" y="399" type="line"/>
      <point x="107" y="397" type="line"/>
      <point x="206" y="397" type="line" smooth="yes"/>
      <point x="336" y="397"/>
      <point x="399" y="333"/>
      <point x="399" y="210" type="curve" smooth="yes"/>
      <point x="399" y="72"/>
      <point x="335" y="2"/>
      <point x="209" y="2" type="curve" smooth="yes"/>
      <point x="108" y="2" type="line"/>
    </contour>
    <contour>
      <point x="106" y="680" type="line"/>
      <point x="103" y="659"/>
      <point x="100" y="647"/>
      <point x="93" y="633" type="curve"/>
      <point x="106" y="628" type="line"/>
    </contour>
    <contour>
      <point x="225" y="680" type="move" name="top"/>
    </contour>
    <contour>
      <point x="225" y="0" type="move" name="bottom"/>
    </contour>
  </outline>
</glyph>
<glyph name="uni0185" format="1">
  <advance width="403"/>
  <unicode hex="0185"/>
  <outline>
    <contour>
      <point x="200" y="0" type="line" smooth="yes"/>
      <point x="305" y="0"/>
      <point x="358" y="57"/>
      <point x="358" y="171" type="curve" smooth="yes"/>
      <point x="358" y="268"/>
      <point x="316" y="328"/>
      <point x="200" y="328" type="curve" smooth="yes"/>
      <point x="103" y="328" type="line"/>
      <point x="103" y="326" type="line"/>
      <point x="200" y="326" type="line" smooth="yes"/>
      <point x="315" y="326"/>
      <point x="356" y="267"/>
      <point x="356" y="171" type="curve" smooth="yes"/>
      <point x="356" y="59"/>
      <point x="305" y="2"/>
      <point x="200" y="2" type="curve" smooth="yes"/>
      <point x="104" y="2" type="line"/>
      <point x="104" y="517" type="line"/>
      <point x="102" y="517" type="line"/>
      <point x="102" y="496" type="line"/>
      <point x="102" y="0" type="line"/>
    </contour>
    <contour>
      <point x="102" y="517" type="line"/>
      <point x="99" y="502"/>
      <point x="96" y="490"/>
      <point x="90" y="480" type="curve"/>
      <point x="103" y="475" type="line"/>
    </contour>
    <contour>
      <point x="202" y="517" type="move" name="top"/>
    </contour>
    <contour>
      <point x="202" y="0" type="move" name="bottom"/>
    </contour>
  </outline>
</glyph>
<glyph name="uni0186" format="1">
  <advance width="434"/>
  <unicode hex="0186"/>
  <outline>
    <contour>
      <point x="101" y="690"/>
      <point x="62" y="664"/>
      <point x="28" y="633" type="curve"/>
      <point x="29" y="631" type="line"/>
      <point x="63" y="662"/>
      <point x="102" y="688"/>
      <point x="165" y="688" type="curve" smooth="yes"/>
      <point x="283" y="688"/>
      <point x="362" y="585"/>
      <point x="362" y="339" type="curve" smooth="yes"/>
      <point x="362" y="105"/>
      <point x="278" y="-7"/>
      <point x="158" y="-7" type="curve" smooth="yes"/>
      <point x="92" y="-7"/>
      <point x="52" y="21"/>
      <point x="22" y="52" type="curve"/>
      <point x="21" y="50" type="line"/>
      <point x="51" y="19"/>
      <point x="91" y="-9"/>
      <point x="158" y="-9" type="curve" smooth="yes"/>
      <point x="279" y="-9"/>
      <point x="364" y="104"/>
      <point x="364" y="339" type="curve" smooth="yes"/>
      <point x="364" y="587"/>
      <point x="285" y="690"/>
      <point x="165" y="690" type="curve" smooth="yes"/>
    </contour>
    <contour>
      <point x="169" y="341" type="move" name="center"/>
    </contour>
    <contour>
      <point x="168" y="0" type="move" name="bottom"/>
    </contour>
    <contour>
      <point x="168" y="680" type="move" name="top"/>
    </contour>
  </outline>
</glyph>
<glyph name="uni0187" format="1">
  <advance width="434"/>
  <unicode hex="0187"/>
  <outline>
    <contour>
      <point x="157" y="690"/>
      <point x="70" y="577"/>
      <point x="70" y="339" type="curve" smooth="yes"/>
      <point x="70" y="114"/>
      <point x="155" y="-9"/>
      <point x="280" y="-9" type="curve" smooth="yes"/>
      <point x="347" y="-9"/>
      <point x="387" y="23"/>
      <point x="413" y="50" type="curve"/>
      <point x="412" y="52" type="line"/>
      <point x="386" y="25"/>
      <point x="346" y="-7"/>
      <point x="280" y="-7" type="curve" smooth="yes"/>
      <point x="157" y="-7"/>
      <point x="72" y="115"/>
      <point x="72" y="339" type="curve" smooth="yes"/>
      <point x="72" y="576"/>
      <point x="159" y="688"/>
      <point x="281" y="688" type="curve" smooth="yes"/>
      <point x="341" y="688"/>
      <point x="376" y="662"/>
      <point x="404" y="632" type="curve"/>
      <point x="406" y="633" type="line"/>
      <point x="405" y="634"/>
      <point x="405" y="635"/>
      <point x="404" y="635" type="curve"/>
      <point x="375" y="665"/>
      <point x="340" y="690"/>
      <point x="281" y="690" type="curve" smooth="yes"/>
    </contour>
    <contour>
      <point x="432" y="803"/>
      <point x="404" y="774"/>
      <point x="404" y="718" type="curve" smooth="yes"/>
      <point x="404" y="633" type="line"/>
      <point x="406" y="633" type="line"/>
      <point x="406" y="718" type="line" smooth="yes"/>
      <point x="406" y="773"/>
      <point x="433" y="801"/>
      <point x="473" y="801" type="curve" smooth="yes"/>
      <point x="503" y="801"/>
      <point x="521" y="789"/>
      <point x="537" y="773" type="curve"/>
      <point x="538" y="775" type="line"/>
      <point x="523" y="790"/>
      <point x="504" y="803"/>
      <point x="473" y="803" type="curve" smooth="yes"/>
    </contour>
    <contour>
      <point x="217" y="680" type="move" name="top"/>
    </contour>
    <contour>
      <point x="217" y="0" type="move" name="bottom"/>
    </contour>
  </outline>
</glyph>
<glyph name="uni0188" format="1">
  <advance width="379"/>
  <unicode hex="0188"/>
  <outline>
    <contour>
      <point x="127" y="527"/>
      <point x="65" y="436"/>
      <point x="65" y="256" type="curve" smooth="yes"/>
      <point x="65" y="76"/>
      <point x="135" y="-9"/>
      <point x="229" y="-9" type="curve" smooth="yes"/>
      <point x="279" y="-9"/>
      <point x="312" y="13"/>
      <point x="339" y="44" type="curve"/>
      <point x="337" y="45" type="line"/>
      <point x="310" y="14"/>
      <point x="277" y="-7"/>
      <point x="229" y="-7" type="curve" smooth="yes"/>
      <point x="136" y="-7"/>
      <point x="67" y="77"/>
      <point x="67" y="256" type="curve" smooth="yes"/>
      <point x="67" y="435"/>
      <point x="129" y="525"/>
      <point x="231" y="525" type="curve" smooth="yes"/>
      <point x="273" y="525"/>
      <point x="305" y="509"/>
      <point x="334" y="476" type="curve"/>
      <point x="336" y="477" type="line"/>
      <point x="336" y="477"/>
      <point x="335" y="478"/>
      <point x="335" y="478" type="curve"/>
      <point x="306" y="510"/>
      <point x="273" y="527"/>
      <point x="231" y="527" type="curve" smooth="yes"/>
    </contour>
    <contour>
      <point x="362" y="733"/>
      <point x="334" y="704"/>
      <point x="334" y="648" type="curve" smooth="yes"/>
      <point x="334" y="477" type="line"/>
      <point x="336" y="477" type="line"/>
      <point x="336" y="648" type="line" smooth="yes"/>
      <point x="336" y="703"/>
      <point x="363" y="731"/>
      <point x="403" y="731" type="curve" smooth="yes"/>
      <point x="433" y="731"/>
      <point x="451" y="719"/>
      <point x="467" y="703" type="curve"/>
      <point x="468" y="705" type="line"/>
      <point x="453" y="720"/>
      <point x="434" y="733"/>
      <point x="403" y="733" type="curve" smooth="yes"/>
    </contour>
    <contour>
      <point x="192" y="727" type="move" name="top"/>
    </contour>
    <contour>
      <point x="192" y="0" type="move" name="bottom"/>
    </contour>
  </outline>
</glyph>
<glyph name="uni018B" format="1">
  <advance width="466"/>
  <unicode hex="018B"/>
  <outline>
    <contour>
      <point x="114" y="678" type="line"/>
      <point x="358" y="678" type="line"/>
      <point x="359" y="680" type="line"/>
      <point x="114" y="680" type="line"/>
    </contour>
    <component base="uni0500" xOffset="15"/>
    <contour>
      <point x="234" y="680" type="move" name="top"/>
    </contour>
    <contour>
      <point x="234" y="0" type="move" name="bottom"/>
    </contour>
  </outline>
</glyph>
<glyph name="uni018D" format="1">
  <advance width="453"/>
  <unicode hex="018D"/>
  <outline>
    <contour>
      <point x="345" y="-34"/>
      <point x="317" y="-6"/>
      <point x="232" y="34" type="curve" smooth="yes"/>
      <point x="109" y="92"/>
      <point x="67" y="147"/>
      <point x="67" y="290" type="curve" smooth="yes"/>
      <point x="67" y="458"/>
      <point x="129" y="524"/>
      <point x="230" y="524" type="curve" smooth="yes"/>
      <point x="328" y="524"/>
      <point x="386" y="457"/>
      <point x="386" y="288" type="curve" smooth="yes"/>
      <point x="386" y="145"/>
      <point x="320" y="68"/>
      <point x="230" y="34" type="curve"/>
      <point x="232" y="33" type="line"/>
      <point x="323" y="67"/>
      <point x="388" y="145"/>
      <point x="388" y="288" type="curve" smooth="yes"/>
      <point x="388" y="458"/>
      <point x="329" y="526"/>
      <point x="230" y="526" type="curve" smooth="yes"/>
      <point x="128" y="526"/>
      <point x="65" y="459"/>
      <point x="65" y="290" type="curve" smooth="yes"/>
      <point x="65" y="145"/>
      <point x="108" y="91"/>
      <point x="230" y="33" type="curve" smooth="yes"/>
      <point x="315" y="-7"/>
      <point x="343" y="-34"/>
      <point x="343" y="-97" type="curve" smooth="yes"/>
      <point x="343" y="-163"/>
      <point x="296" y="-214"/>
      <point x="224" y="-214" type="curve" smooth="yes"/>
      <point x="179" y="-214"/>
      <point x="145" y="-200"/>
      <point x="112" y="-170" type="curve"/>
      <point x="110" y="-171" type="line"/>
      <point x="145" y="-202"/>
      <point x="178" y="-216"/>
      <point x="224" y="-216" type="curve" smooth="yes"/>
      <point x="298" y="-216"/>
      <point x="345" y="-164"/>
      <point x="345" y="-97" type="curve" smooth="yes"/>
    </contour>
    <contour>
      <point x="227" y="517" type="move" name="top"/>
    </contour>
    <contour>
      <point x="227" y="-188" type="move" name="bottom"/>
    </contour>
  </outline>
</glyph>
<glyph name="uni018E" format="1">
  <advance width="406"/>
  <unicode hex="018E"/>
  <outline>
    <contour>
      <point x="47" y="678" type="line"/>
      <point x="298" y="678" type="line"/>
      <point x="298" y="362" type="line"/>
      <point x="84" y="362" type="line"/>
      <point x="84" y="360" type="line"/>
      <point x="298" y="360" type="line"/>
      <point x="298" y="2" type="line"/>
      <point x="41" y="2" type="line"/>
      <point x="41" y="0" type="line"/>
      <point x="300" y="0" type="line"/>
      <point x="300" y="680" type="line"/>
      <point x="47" y="680" type="line"/>
    </contour>
    <contour>
      <point x="165" y="680" type="move" name="top"/>
    </contour>
    <contour>
      <point x="163" y="0" type="move" name="bottom"/>
    </contour>
  </outline>
</glyph>
<glyph name="uni0190" format="1">
  <advance width="416"/>
  <unicode hex="0190"/>
  <outline>
    <contour>
      <point x="120" y="690"/>
      <point x="71" y="621"/>
      <point x="71" y="531" type="curve" smooth="yes"/>
      <point x="71" y="426"/>
      <point x="133" y="377"/>
      <point x="199" y="372" type="curve"/>
      <point x="117" y="368"/>
      <point x="53" y="305"/>
      <point x="53" y="195" type="curve" smooth="yes"/>
      <point x="53" y="63"/>
      <point x="120" y="-9"/>
      <point x="220" y="-9" type="curve"/>
      <point x="290" y="-9"/>
      <point x="338" y="23"/>
      <point x="383" y="84" type="curve"/>
      <point x="381" y="85" type="line"/>
      <point x="337" y="25"/>
      <point x="289" y="-7"/>
      <point x="220" y="-7" type="curve"/>
      <point x="121" y="-7"/>
      <point x="55" y="65"/>
      <point x="55" y="195" type="curve" smooth="yes"/>
      <point x="55" y="303"/>
      <point x="119" y="371"/>
      <point x="212" y="371" type="curve" smooth="yes"/>
      <point x="259" y="371" type="line"/>
      <point x="259" y="373" type="line"/>
      <point x="215" y="373" type="line" smooth="yes"/>
      <point x="135" y="373"/>
      <point x="73" y="428"/>
      <point x="73" y="531" type="curve" smooth="yes"/>
      <point x="73" y="619"/>
      <point x="121" y="688"/>
      <point x="213" y="688" type="curve"/>
      <point x="278" y="688"/>
      <point x="320" y="658"/>
      <point x="361" y="603" type="curve"/>
      <point x="363" y="605" type="line"/>
      <point x="321" y="660"/>
      <point x="278" y="690"/>
      <point x="213" y="690" type="curve"/>
    </contour>
    <contour>
      <point x="208" y="680" type="move" name="top"/>
    </contour>
    <contour>
      <point x="208" y="0" type="move" name="bottom"/>
    </contour>
  </outline>
</glyph>
<glyph name="florin" format="1">
  <advance width="242"/>
  <unicode hex="0192"/>
  <outline>
    <contour>
      <point x="139" y="733"/>
      <point x="100" y="698"/>
      <point x="100" y="628" type="curve" smooth="yes"/>
      <point x="100" y="0" type="line"/>
      <point x="102" y="2" type="line"/>
      <point x="102" y="628" type="line" smooth="yes"/>
      <point x="102" y="696"/>
      <point x="140" y="731"/>
      <point x="192" y="731" type="curve" smooth="yes"/>
      <point x="228" y="731"/>
      <point x="257" y="717"/>
      <point x="282" y="698" type="curve"/>
      <point x="283" y="700" type="line"/>
      <point x="258" y="719"/>
      <point x="228" y="733"/>
      <point x="192" y="733" type="curve" smooth="yes"/>
    </contour>
    <contour>
      <point x="25" y="517" type="line"/>
      <point x="25" y="515" type="line"/>
      <point x="226" y="515" type="line"/>
      <point x="226" y="517" type="line"/>
    </contour>
    <contour>
      <point x="100" y="477" type="line"/>
      <point x="100" y="1" type="line" smooth="yes"/>
      <point x="100" y="-117"/>
      <point x="76" y="-153"/>
      <point x="20" y="-189" type="curve"/>
      <point x="21" y="-191" type="line"/>
      <point x="78" y="-154"/>
      <point x="102" y="-118"/>
      <point x="102" y="1" type="curve" smooth="yes"/>
      <point x="102" y="477" type="line"/>
    </contour>
  </outline>
</glyph>
<glyph name="uni0193" format="1">
  <advance width="439"/>
  <unicode hex="0193"/>
  <outline>
    <contour>
      <point x="178" y="690"/>
      <point x="70" y="582"/>
      <point x="70" y="345" type="curve" smooth="yes"/>
      <point x="70" y="114"/>
      <point x="156" y="-9"/>
      <point x="290" y="-9" type="curve" smooth="yes"/>
      <point x="347" y="-9"/>
      <point x="393" y="15"/>
      <point x="426" y="39" type="curve"/>
      <point x="426" y="342" type="line"/>
      <point x="300" y="342" type="line"/>
      <point x="301" y="340" type="line"/>
      <point x="424" y="340" type="line"/>
      <point x="424" y="40" type="line"/>
      <point x="393" y="17"/>
      <point x="348" y="-7"/>
      <point x="290" y="-7" type="curve" smooth="yes"/>
      <point x="156" y="-7"/>
      <point x="72" y="116"/>
      <point x="72" y="345" type="curve" smooth="yes"/>
      <point x="72" y="580"/>
      <point x="179" y="688"/>
      <point x="282" y="688" type="curve" smooth="yes"/>
      <point x="332" y="688"/>
      <point x="371" y="669"/>
      <point x="409" y="633" type="curve"/>
      <point x="411" y="635" type="line"/>
      <point x="411" y="635"/>
      <point x="410" y="635"/>
      <point x="410" y="635" type="curve"/>
      <point x="373" y="670"/>
      <point x="333" y="690"/>
      <point x="282" y="690" type="curve" smooth="yes"/>
    </contour>
    <contour>
      <point x="437" y="803"/>
      <point x="409" y="774"/>
      <point x="409" y="718" type="curve" smooth="yes"/>
      <point x="409" y="635" type="line"/>
      <point x="411" y="635" type="line"/>
      <point x="411" y="718" type="line" smooth="yes"/>
      <point x="411" y="773"/>
      <point x="438" y="801"/>
      <point x="478" y="801" type="curve" smooth="yes"/>
      <point x="508" y="801"/>
      <point x="526" y="789"/>
      <point x="542" y="773" type="curve"/>
      <point x="543" y="775" type="line"/>
      <point x="528" y="790"/>
      <point x="509" y="803"/>
      <point x="478" y="803" type="curve" smooth="yes"/>
    </contour>
    <contour>
      <point x="220" y="680" type="move" name="top"/>
    </contour>
    <contour>
      <point x="220" y="0" type="move" name="bottom"/>
    </contour>
  </outline>
</glyph>
<glyph name="uni0194" format="1">
  <advance width="442"/>
  <unicode hex="0194"/>
  <outline>
    <contour>
      <point x="258" y="-193"/>
      <point x="272" y="-165"/>
      <point x="272" y="-129" type="curve" smooth="yes"/>
      <point x="272" y="-80"/>
      <point x="253" y="-24"/>
      <point x="224" y="58" type="curve"/>
      <point x="223" y="60" type="line"/>
      <point x="37" y="680" type="line"/>
      <point x="35" y="680" type="line"/>
      <point x="222" y="58" type="line"/>
      <point x="223" y="56" type="line"/>
      <point x="251" y="-26"/>
      <point x="270" y="-80"/>
      <point x="270" y="-129" type="curve" smooth="yes"/>
      <point x="270" y="-164"/>
      <point x="257" y="-191"/>
      <point x="223" y="-191" type="curve"/>
      <point x="190" y="-191"/>
      <point x="176" y="-165"/>
      <point x="176" y="-129" type="curve" smooth="yes"/>
      <point x="176" y="-81"/>
      <point x="198" y="-25"/>
      <point x="223" y="56" type="curve"/>
      <point x="224" y="58" type="line"/>
      <point x="407" y="680" type="line"/>
      <point x="405" y="680" type="line"/>
      <point x="223" y="60" type="line"/>
      <point x="222" y="58" type="line"/>
      <point x="196" y="-23"/>
      <point x="174" y="-81"/>
      <point x="174" y="-129" type="curve" smooth="yes"/>
      <point x="174" y="-166"/>
      <point x="189" y="-193"/>
      <point x="223" y="-193" type="curve"/>
    </contour>
    <contour>
      <point x="221" y="680" type="move" name="top"/>
    </contour>
    <contour>
      <point x="221" y="-188" type="move" name="bottom"/>
    </contour>
  </outline>
</glyph>
<glyph name="uni0195" format="1">
  <advance width="733"/>
  <unicode hex="0195"/>
  <outline>
    <contour>
      <point x="583" y="-9"/>
      <point x="648" y="61"/>
      <point x="648" y="258" type="curve" smooth="yes"/>
      <point x="648" y="362"/>
      <point x="637" y="448"/>
      <point x="626" y="517" type="curve"/>
      <point x="624" y="517" type="line"/>
      <point x="635" y="448"/>
      <point x="646" y="362"/>
      <point x="646" y="258" type="curve" smooth="yes"/>
      <point x="646" y="62"/>
      <point x="582" y="-7"/>
      <point x="496" y="-7" type="curve" smooth="yes"/>
      <point x="424" y="-7"/>
      <point x="377" y="47"/>
      <point x="377" y="133" type="curve" smooth="yes"/>
      <point x="377" y="317" type="line"/>
      <point x="375" y="317" type="line"/>
      <point x="375" y="133" type="line" smooth="yes"/>
      <point x="375" y="45"/>
      <point x="423" y="-9"/>
      <point x="496" y="-9" type="curve" smooth="yes"/>
    </contour>
    <contour>
      <point x="104" y="0" type="line"/>
      <point x="104" y="730" type="line"/>
      <point x="102" y="730" type="line"/>
      <point x="102" y="0" type="line"/>
    </contour>
    <contour>
      <point x="377" y="300" type="line"/>
      <point x="377" y="378" type="line" smooth="yes"/>
      <point x="377" y="467"/>
      <point x="345" y="527"/>
      <point x="267" y="527" type="curve" smooth="yes"/>
      <point x="195" y="527"/>
      <point x="142" y="475"/>
      <point x="103" y="389" type="curve"/>
      <point x="104" y="387" type="line"/>
      <point x="143" y="473"/>
      <point x="196" y="525"/>
      <point x="267" y="525" type="curve" smooth="yes"/>
      <point x="344" y="525"/>
      <point x="375" y="466"/>
      <point x="375" y="378" type="curve" smooth="yes"/>
      <point x="375" y="300" type="line"/>
    </contour>
    <contour>
      <point x="365" y="727" type="move" name="top"/>
    </contour>
    <contour>
      <point x="365" y="0" type="move" name="bottom"/>
    </contour>
  </outline>
</glyph>
<glyph name="uni0196" format="1">
  <advance width="265"/>
  <unicode hex="0196"/>
  <outline>
    <contour>
      <point x="96" y="680" type="line"/>
      <point x="96" y="181" type="line"/>
      <point x="98" y="181" type="line"/>
      <point x="98" y="680" type="line"/>
    </contour>
    <component base="hookHELPER.case" xOffset="265" yOffset="183" xScale="-1"/>
    <contour>
      <point x="97" y="680" type="move" name="top"/>
    </contour>
    <contour>
      <point x="155" y="0" type="move" name="bottom"/>
    </contour>
  </outline>
</glyph>
<glyph name="uni0198" format="1">
  <advance width="457"/>
  <unicode hex="0198"/>
  <outline>
    <contour>
      <point x="106" y="680" type="line"/>
      <point x="106" y="1" type="line"/>
      <point x="108" y="1" type="line"/>
      <point x="108" y="680" type="line"/>
    </contour>
    <contour>
      <point x="401" y="0" type="line"/>
      <point x="113" y="366" type="line"/>
      <point x="297" y="630" type="line" smooth="yes"/>
      <point x="324" y="669"/>
      <point x="340" y="688"/>
      <point x="374" y="688" type="curve" smooth="yes"/>
      <point x="403" y="688"/>
      <point x="419" y="674"/>
      <point x="437" y="651" type="curve"/>
      <point x="439" y="652" type="line"/>
      <point x="421" y="675"/>
      <point x="404" y="690"/>
      <point x="374" y="690" type="curve" smooth="yes"/>
      <point x="339" y="690"/>
      <point x="321" y="669"/>
      <point x="294" y="630" type="curve" smooth="yes"/>
      <point x="110" y="366" type="line"/>
      <point x="398" y="0" type="line"/>
    </contour>
    <contour>
      <point x="221" y="680" type="move" name="top"/>
    </contour>
    <contour>
      <point x="221" y="0" type="move" name="bottom"/>
    </contour>
  </outline>
</glyph>
<glyph name="uni0199" format="1">
  <advance width="367"/>
  <unicode hex="0199"/>
  <outline>
    <contour>
      <point x="322" y="517" type="line"/>
      <point x="109" y="283" type="line"/>
      <point x="344" y="0" type="line"/>
      <point x="347" y="0" type="line"/>
      <point x="112" y="283" type="line"/>
      <point x="325" y="517" type="line"/>
    </contour>
    <contour>
      <point x="102" y="517" type="line"/>
      <point x="102" y="0" type="line"/>
      <point x="104" y="0" type="line"/>
      <point x="104" y="517" type="line"/>
    </contour>
    <component base="hookaboveHELPER" xOffset="67"/>
  </outline>
</glyph>
<glyph name="uni019B" format="1">
  <advance width="363"/>
  <unicode hex="019B"/>
  <outline>
    <contour>
      <point x="192" y="515" type="line"/>
      <point x="252" y="155"/>
      <point x="299" y="82"/>
      <point x="361" y="-1" type="curve"/>
      <point x="363" y="0" type="line"/>
      <point x="300" y="83"/>
      <point x="254" y="157"/>
      <point x="194" y="515" type="curve" smooth="yes"/>
      <point x="174" y="637"/>
      <point x="154" y="703"/>
      <point x="72" y="732" type="curve"/>
      <point x="72" y="730" type="line"/>
      <point x="154" y="700"/>
      <point x="171" y="636"/>
      <point x="192" y="517" type="curve"/>
      <point x="191" y="517" type="line"/>
      <point x="40" y="-2" type="line"/>
      <point x="42" y="-3" type="line"/>
    </contour>
    <contour>
      <point x="149" y="667" type="line"/>
      <point x="150" y="668" type="line"/>
      <point x="203" y="736" type="line"/>
      <point x="201" y="737" type="line"/>
      <point x="149" y="670" type="line"/>
      <point x="148" y="669" type="line"/>
      <point x="76" y="577" type="line"/>
      <point x="78" y="576" type="line"/>
    </contour>
    <contour>
      <point x="182" y="727" type="move" name="top"/>
    </contour>
    <contour>
      <point x="182" y="0" type="move" name="bottom"/>
    </contour>
  </outline>
</glyph>
<glyph name="uni019C" format="1">
  <advance width="750"/>
  <unicode hex="019C"/>
  <outline>
    <contour>
      <point x="560" y="-10"/>
      <point x="604" y="42"/>
      <point x="643" y="128" type="curve"/>
      <point x="642" y="130" type="line"/>
      <point x="603" y="44"/>
      <point x="559" y="-8"/>
      <point x="489" y="-8" type="curve" smooth="yes"/>
      <point x="418" y="-8"/>
      <point x="371" y="51"/>
      <point x="371" y="149" type="curve" smooth="yes"/>
      <point x="371" y="680" type="line"/>
      <point x="369" y="680" type="line"/>
      <point x="369" y="149" type="line" smooth="yes"/>
      <point x="369" y="50"/>
      <point x="417" y="-10"/>
      <point x="489" y="-10" type="curve" smooth="yes"/>
    </contour>
    <contour>
      <point x="644" y="0" type="line"/>
      <point x="644" y="680" type="line"/>
      <point x="642" y="680" type="line"/>
      <point x="642" y="128" type="line"/>
      <point x="642" y="0" type="line"/>
    </contour>
    <contour>
      <point x="286" y="-10"/>
      <point x="330" y="41"/>
      <point x="371" y="130" type="curve"/>
      <point x="370" y="132" type="line"/>
      <point x="328" y="42"/>
      <point x="285" y="-8"/>
      <point x="216" y="-8" type="curve" smooth="yes"/>
      <point x="145" y="-8"/>
      <point x="98" y="51"/>
      <point x="98" y="149" type="curve" smooth="yes"/>
      <point x="98" y="680" type="line"/>
      <point x="96" y="680" type="line"/>
      <point x="96" y="149" type="line" smooth="yes"/>
      <point x="96" y="50"/>
      <point x="144" y="-10"/>
      <point x="216" y="-10" type="curve" smooth="yes"/>
    </contour>
    <contour>
      <point x="374" y="680" type="move" name="top"/>
    </contour>
    <contour>
      <point x="374" y="0" type="move" name="bottom"/>
    </contour>
  </outline>
</glyph>
<glyph name="uni019D" format="1">
  <advance width="535"/>
  <unicode hex="019D"/>
  <outline>
    <contour>
      <point x="80" y="-192"/>
      <point x="108" y="-168"/>
      <point x="108" y="-113" type="curve" smooth="yes"/>
      <point x="108" y="1" type="line"/>
      <point x="106" y="1" type="line"/>
      <point x="106" y="-113" type="line" smooth="yes"/>
      <point x="106" y="-167"/>
      <point x="79" y="-190"/>
      <point x="41" y="-190" type="curve" smooth="yes"/>
      <point x="9" y="-190"/>
      <point x="-9" y="-178"/>
      <point x="-25" y="-162" type="curve"/>
      <point x="-26" y="-164" type="line"/>
      <point x="-11" y="-179"/>
      <point x="8" y="-192"/>
      <point x="41" y="-192" type="curve" smooth="yes"/>
    </contour>
    <component base="N"/>
  </outline>
</glyph>
<glyph name="uni019E" format="1">
  <advance width="475"/>
  <unicode hex="019E"/>
  <outline>
    <contour>
      <point x="375" y="1" type="line"/>
      <point x="375" y="-190" type="line"/>
      <point x="377" y="-190" type="line"/>
      <point x="377" y="1" type="line"/>
    </contour>
    <component base="n"/>
  </outline>
</glyph>
<glyph name="uni01A3" format="1">
  <advance width="596"/>
  <unicode hex="01A3"/>
  <outline>
    <contour>
      <point x="494" y="-191" type="line"/>
      <point x="494" y="422" type="line" smooth="yes"/>
      <point x="494" y="488"/>
      <point x="466" y="527"/>
      <point x="403" y="527" type="curve" smooth="yes"/>
      <point x="373" y="527"/>
      <point x="343" y="517"/>
      <point x="314" y="500" type="curve"/>
      <point x="316" y="499" type="line"/>
      <point x="345" y="516"/>
      <point x="374" y="525"/>
      <point x="403" y="525" type="curve" smooth="yes"/>
      <point x="465" y="525"/>
      <point x="492" y="487"/>
      <point x="492" y="422" type="curve" smooth="yes"/>
      <point x="492" y="-191" type="line"/>
    </contour>
    <contour>
      <point x="131" y="527"/>
      <point x="65" y="446"/>
      <point x="65" y="258" type="curve" smooth="yes"/>
      <point x="65" y="76"/>
      <point x="127" y="-9"/>
      <point x="228" y="-9" type="curve" smooth="yes"/>
      <point x="329" y="-9"/>
      <point x="392" y="74"/>
      <point x="392" y="262" type="curve" smooth="yes"/>
      <point x="392" y="444"/>
      <point x="330" y="527"/>
      <point x="230" y="527" type="curve" smooth="yes"/>
    </contour>
    <contour>
      <point x="329" y="525"/>
      <point x="390" y="443"/>
      <point x="390" y="262" type="curve" smooth="yes"/>
      <point x="390" y="76"/>
      <point x="328" y="-7"/>
      <point x="228" y="-7" type="curve" smooth="yes"/>
      <point x="128" y="-7"/>
      <point x="67" y="77"/>
      <point x="67" y="258" type="curve" smooth="yes"/>
      <point x="67" y="444"/>
      <point x="132" y="525"/>
      <point x="230" y="525" type="curve" smooth="yes"/>
    </contour>
    <contour>
      <point x="298" y="517" type="move" name="top"/>
    </contour>
    <contour>
      <point x="298" y="-188" type="move" name="bottom"/>
    </contour>
  </outline>
</glyph>
<glyph name="uni01A5" format="1">
  <advance width="460"/>
  <unicode hex="01A5"/>
  <outline>
    <contour>
      <point x="183" y="527"/>
      <point x="138" y="481"/>
      <point x="103" y="420" type="curve"/>
      <point x="103" y="417" type="line"/>
      <point x="141" y="482"/>
      <point x="185" y="525"/>
      <point x="251" y="525" type="curve" smooth="yes"/>
      <point x="344" y="525"/>
      <point x="393" y="439"/>
      <point x="393" y="264" type="curve" smooth="yes"/>
      <point x="393" y="88"/>
      <point x="343" y="-7"/>
      <point x="247" y="-7" type="curve" smooth="yes"/>
      <point x="183" y="-7"/>
      <point x="138" y="37"/>
      <point x="103" y="103" type="curve"/>
      <point x="103" y="100" type="line"/>
      <point x="136" y="36"/>
      <point x="182" y="-9"/>
      <point x="247" y="-9" type="curve" smooth="yes"/>
      <point x="344" y="-9"/>
      <point x="395" y="87"/>
      <point x="395" y="264" type="curve" smooth="yes"/>
      <point x="395" y="440"/>
      <point x="345" y="527"/>
      <point x="251" y="527" type="curve" smooth="yes"/>
    </contour>
    <contour>
      <point x="102" y="517" type="line"/>
      <point x="102" y="-190" type="line"/>
      <point x="104" y="-190" type="line"/>
      <point x="104" y="421" type="line"/>
      <point x="104" y="517" type="line"/>
    </contour>
    <component base="hookaboveHELPER" xOffset="67"/>
    <contour>
      <point x="232" y="727" type="move" name="top"/>
    </contour>
    <contour>
      <point x="232" y="-188" type="move" name="bottom"/>
    </contour>
  </outline>
</glyph>
<glyph name="uni01A6" format="1">
  <advance width="460"/>
  <unicode hex="01A6"/>
  <outline>
    <contour>
      <point x="415" y="-140" type="line"/>
      <point x="256" y="196" type="line"/>
      <point x="254" y="196" type="line"/>
      <point x="412" y="-140" type="line"/>
    </contour>
    <contour>
      <point x="108" y="0" type="line"/>
      <point x="108" y="680" type="line"/>
      <point x="106" y="680" type="line"/>
      <point x="106" y="0" type="line"/>
    </contour>
    <contour>
      <point x="230" y="194" type="line"/>
      <point x="323" y="194"/>
      <point x="395" y="247"/>
      <point x="395" y="366" type="curve" smooth="yes"/>
      <point x="395" y="470"/>
      <point x="350" y="540"/>
      <point x="209" y="540" type="curve" smooth="yes"/>
      <point x="106" y="540" type="line"/>
      <point x="108" y="538" type="line"/>
      <point x="209" y="538" type="line" smooth="yes"/>
      <point x="349" y="538"/>
      <point x="393" y="469"/>
      <point x="393" y="366" type="curve" smooth="yes"/>
      <point x="393" y="248"/>
      <point x="321" y="196"/>
      <point x="230" y="196" type="curve" smooth="yes"/>
      <point x="107" y="196" type="line"/>
      <point x="107" y="194" type="line"/>
    </contour>
    <contour>
      <point x="230" y="680" type="move" name="top"/>
    </contour>
    <contour>
      <point x="230" y="-188" type="move" name="bottom"/>
    </contour>
  </outline>
</glyph>
<glyph name="uni01A7" format="1">
  <advance width="442"/>
  <unicode hex="01A7"/>
  <outline>
    <contour>
      <point x="164" y="690"/>
      <point x="123" y="663"/>
      <point x="84" y="626" type="curve"/>
      <point x="85" y="624" type="line"/>
      <point x="124" y="662"/>
      <point x="166" y="688"/>
      <point x="232" y="688" type="curve" smooth="yes"/>
      <point x="316" y="688"/>
      <point x="368" y="628"/>
      <point x="368" y="545" type="curve" smooth="yes"/>
      <point x="368" y="455"/>
      <point x="334" y="414"/>
      <point x="221" y="370" type="curve" smooth="yes"/>
      <point x="115" y="329"/>
      <point x="65" y="284"/>
      <point x="65" y="171" type="curve" smooth="yes"/>
      <point x="65" y="64"/>
      <point x="131" y="-9"/>
      <point x="228" y="-9" type="curve" smooth="yes"/>
      <point x="304" y="-9"/>
      <point x="349" y="22"/>
      <point x="389" y="69" type="curve"/>
      <point x="388" y="71" type="line"/>
      <point x="348" y="24"/>
      <point x="304" y="-7"/>
      <point x="228" y="-7" type="curve" smooth="yes"/>
      <point x="133" y="-7"/>
      <point x="67" y="65"/>
      <point x="67" y="171" type="curve" smooth="yes"/>
      <point x="67" y="283"/>
      <point x="117" y="327"/>
      <point x="222" y="368" type="curve" smooth="yes"/>
      <point x="334" y="412"/>
      <point x="370" y="453"/>
      <point x="370" y="545" type="curve" smooth="yes"/>
      <point x="370" y="630"/>
      <point x="317" y="690"/>
      <point x="232" y="690" type="curve" smooth="yes"/>
    </contour>
    <contour>
      <point x="221" y="680" type="move" name="top"/>
    </contour>
    <contour>
      <point x="221" y="0" type="move" name="bottom"/>
    </contour>
  </outline>
</glyph>
<glyph name="uni01A8" format="1">
  <advance width="374"/>
  <unicode hex="01A8"/>
  <outline>
    <contour>
      <point x="141" y="527"/>
      <point x="105" y="509"/>
      <point x="69" y="475" type="curve"/>
      <point x="70" y="473" type="line"/>
      <point x="107" y="508"/>
      <point x="142" y="525"/>
      <point x="192" y="525" type="curve" smooth="yes"/>
      <point x="263" y="525"/>
      <point x="309" y="479"/>
      <point x="309" y="411" type="curve" smooth="yes"/>
      <point x="309" y="341"/>
      <point x="275" y="308"/>
      <point x="185" y="276" type="curve" smooth="yes"/>
      <point x="91" y="243"/>
      <point x="57" y="208"/>
      <point x="57" y="127" type="curve" smooth="yes"/>
      <point x="57" y="44"/>
      <point x="110" y="-9"/>
      <point x="189" y="-9" type="curve" smooth="yes"/>
      <point x="252" y="-9"/>
      <point x="292" y="19"/>
      <point x="325" y="57" type="curve"/>
      <point x="324" y="59" type="line"/>
      <point x="291" y="21"/>
      <point x="252" y="-7"/>
      <point x="189" y="-7" type="curve" smooth="yes"/>
      <point x="111" y="-7"/>
      <point x="59" y="46"/>
      <point x="59" y="127" type="curve" smooth="yes"/>
      <point x="59" y="208"/>
      <point x="93" y="241"/>
      <point x="186" y="274" type="curve" smooth="yes"/>
      <point x="276" y="306"/>
      <point x="311" y="339"/>
      <point x="311" y="411" type="curve" smooth="yes"/>
      <point x="311" y="480"/>
      <point x="264" y="527"/>
      <point x="192" y="527" type="curve" smooth="yes"/>
    </contour>
    <contour>
      <point x="187" y="517" type="move" name="top"/>
    </contour>
    <contour>
      <point x="187" y="0" type="move" name="bottom"/>
    </contour>
  </outline>
</glyph>
<glyph name="uni01AA" format="1">
  <advance width="211"/>
  <unicode hex="01AA"/>
  <outline>
    <contour>
      <point x="4" y="733"/>
      <point x="-25" y="699"/>
      <point x="-25" y="626" type="curve" smooth="yes"/>
      <point x="-25" y="555"/>
      <point x="3" y="526"/>
      <point x="44" y="526" type="curve" smooth="yes"/>
      <point x="72" y="526"/>
      <point x="93" y="539"/>
      <point x="108" y="554" type="curve"/>
      <point x="108" y="556" type="line"/>
      <point x="92" y="540"/>
      <point x="71" y="528"/>
      <point x="44" y="528" type="curve" smooth="yes"/>
      <point x="4" y="528"/>
      <point x="-23" y="556"/>
      <point x="-23" y="626" type="curve" smooth="yes"/>
      <point x="-23" y="698"/>
      <point x="5" y="731"/>
      <point x="47" y="731" type="curve" smooth="yes"/>
      <point x="84" y="731"/>
      <point x="107" y="705"/>
      <point x="107" y="646" type="curve" smooth="yes"/>
      <point x="107" y="0" type="line"/>
      <point x="109" y="0" type="line"/>
      <point x="109" y="646" type="line" smooth="yes"/>
      <point x="109" y="706"/>
      <point x="85" y="733"/>
      <point x="47" y="733" type="curve" smooth="yes"/>
    </contour>
    <component base="hookHELPER" xOffset="276" xScale="-1"/>
    <contour>
      <point x="108" y="727" type="move" name="top"/>
    </contour>
    <contour>
      <point x="108" y="-188" type="move" name="bottom"/>
    </contour>
  </outline>
</glyph>
<glyph name="uni01AB" format="1">
  <advance width="264"/>
  <unicode hex="01AB"/>
  <outline>
    <contour>
      <point x="230" y="-192"/>
      <point x="258" y="-168"/>
      <point x="258" y="-113" type="curve" smooth="yes"/>
      <point x="258" y="19" type="line"/>
      <point x="256" y="19" type="line"/>
      <point x="256" y="-113" type="line" smooth="yes"/>
      <point x="256" y="-167"/>
      <point x="229" y="-190"/>
      <point x="191" y="-190" type="curve" smooth="yes"/>
      <point x="159" y="-190"/>
      <point x="141" y="-178"/>
      <point x="125" y="-162" type="curve"/>
      <point x="124" y="-164" type="line"/>
      <point x="139" y="-179"/>
      <point x="158" y="-192"/>
      <point x="191" y="-192" type="curve" smooth="yes"/>
    </contour>
    <contour>
      <point x="96" y="651" type="line"/>
      <point x="96" y="93" type="line" smooth="yes"/>
      <point x="96" y="28"/>
      <point x="128" y="-9"/>
      <point x="181" y="-9" type="curve" smooth="yes"/>
      <point x="215" y="-9"/>
      <point x="238" y="4"/>
      <point x="257" y="19" type="curve"/>
      <point x="257" y="19"/>
      <point x="258" y="19"/>
      <point x="258" y="19" type="curve"/>
      <point x="256" y="20" type="line"/>
      <point x="236" y="5"/>
      <point x="215" y="-7"/>
      <point x="181" y="-7" type="curve" smooth="yes"/>
      <point x="129" y="-7"/>
      <point x="98" y="29"/>
      <point x="98" y="93" type="curve" smooth="yes"/>
      <point x="98" y="651" type="line"/>
    </contour>
    <contour>
      <point x="25" y="517" type="line"/>
      <point x="25" y="515" type="line"/>
      <point x="218" y="515" type="line"/>
      <point x="218" y="517" type="line"/>
    </contour>
    <contour>
      <point x="97" y="651" type="move" name="top"/>
    </contour>
    <contour>
      <point x="133" y="-188" type="move" name="bottom"/>
    </contour>
  </outline>
</glyph>
<glyph name="uni01AC" format="1">
  <advance width="403"/>
  <unicode hex="01AC"/>
  <outline>
    <contour>
      <point x="139" y="680" type="line"/>
      <point x="139" y="678" type="line"/>
      <point x="208" y="678" type="line"/>
      <point x="208" y="0" type="line"/>
      <point x="210" y="0" type="line"/>
      <point x="210" y="678" type="line"/>
      <point x="387" y="678" type="line"/>
      <point x="387" y="680" type="line"/>
    </contour>
    <contour>
      <point x="24" y="559"/>
      <point x="35" y="538"/>
      <point x="47" y="517" type="curve"/>
      <point x="49" y="518" type="line"/>
      <point x="36" y="540"/>
      <point x="26" y="560"/>
      <point x="26" y="595" type="curve" smooth="yes"/>
      <point x="26" y="648"/>
      <point x="52" y="678"/>
      <point x="115" y="678" type="curve" smooth="yes"/>
      <point x="144" y="678" type="line"/>
      <point x="144" y="680" type="line"/>
      <point x="115" y="680" type="line" smooth="yes"/>
      <point x="51" y="680"/>
      <point x="24" y="649"/>
      <point x="24" y="595" type="curve" smooth="yes"/>
    </contour>
    <contour>
      <point x="201" y="680" type="move" name="top"/>
    </contour>
    <contour>
      <point x="209" y="0" type="move" name="bottom"/>
    </contour>
  </outline>
</glyph>
<glyph name="uni01AD" format="1">
  <advance width="264"/>
  <unicode hex="01AD"/>
  <outline>
    <contour>
      <point x="216" y="-9"/>
      <point x="238" y="4"/>
      <point x="258" y="19" type="curve"/>
      <point x="257" y="21" type="line"/>
      <point x="236" y="5"/>
      <point x="215" y="-7"/>
      <point x="181" y="-7" type="curve" smooth="yes"/>
      <point x="129" y="-7"/>
      <point x="98" y="29"/>
      <point x="98" y="93" type="curve" smooth="yes"/>
      <point x="98" y="551" type="line"/>
      <point x="96" y="551" type="line"/>
      <point x="96" y="93" type="line" smooth="yes"/>
      <point x="96" y="28"/>
      <point x="128" y="-9"/>
      <point x="181" y="-9" type="curve" smooth="yes"/>
    </contour>
    <contour>
      <point x="218" y="515" type="line"/>
      <point x="218" y="517" type="line"/>
      <point x="25" y="517" type="line"/>
      <point x="25" y="515" type="line"/>
    </contour>
    <contour>
      <point x="98" y="520" type="line"/>
      <point x="98" y="631" type="line" smooth="yes"/>
      <point x="98" y="690"/>
      <point x="129" y="731"/>
      <point x="181" y="731" type="curve" smooth="yes"/>
      <point x="215" y="731"/>
      <point x="238" y="718"/>
      <point x="257" y="703" type="curve"/>
      <point x="258" y="705" type="line"/>
      <point x="238" y="720"/>
      <point x="215" y="733"/>
      <point x="181" y="733" type="curve" smooth="yes"/>
      <point x="128" y="733"/>
      <point x="96" y="692"/>
      <point x="96" y="631" type="curve" smooth="yes"/>
      <point x="96" y="520" type="line"/>
    </contour>
    <contour>
      <point x="133" y="727" type="move" name="top"/>
    </contour>
    <contour>
      <point x="133" y="0" type="move" name="bottom"/>
    </contour>
  </outline>
</glyph>
<glyph name="uni01B1" format="1">
  <advance width="564"/>
  <unicode hex="01B1"/>
  <outline>
    <contour>
      <point x="414" y="-10"/>
      <point x="494" y="101"/>
      <point x="494" y="307" type="curve" smooth="yes"/>
      <point x="494" y="525"/>
      <point x="424" y="631"/>
      <point x="360" y="678" type="curve"/>
      <point x="471" y="678" type="line"/>
      <point x="471" y="680" type="line"/>
      <point x="358" y="680" type="line"/>
      <point x="358" y="677" type="line"/>
      <point x="422" y="630"/>
      <point x="492" y="523"/>
      <point x="492" y="307" type="curve" smooth="yes"/>
      <point x="492" y="103"/>
      <point x="413" y="-8"/>
      <point x="283" y="-8" type="curve" smooth="yes"/>
      <point x="153" y="-8"/>
      <point x="72" y="103"/>
      <point x="72" y="305" type="curve"/>
      <point x="72" y="518"/>
      <point x="139" y="628"/>
      <point x="207" y="677" type="curve"/>
      <point x="207" y="680" type="line"/>
      <point x="94" y="680" type="line"/>
      <point x="94" y="678" type="line"/>
      <point x="205" y="678" type="line"/>
      <point x="137" y="629"/>
      <point x="70" y="520"/>
      <point x="70" y="305" type="curve" smooth="yes"/>
      <point x="70" y="101"/>
      <point x="152" y="-10"/>
      <point x="283" y="-10" type="curve" smooth="yes"/>
    </contour>
    <contour>
      <point x="282" y="680" type="move" name="top"/>
    </contour>
    <contour>
      <point x="282" y="0" type="move" name="bottom"/>
    </contour>
  </outline>
</glyph>
<glyph name="uni01B2" format="1">
  <advance width="515"/>
  <unicode hex="01B2"/>
  <outline>
    <contour>
      <point x="417" y="617" type="line"/>
      <point x="417" y="256" type="line" smooth="yes"/>
      <point x="417" y="79"/>
      <point x="348" y="-7"/>
      <point x="240" y="-7" type="curve" smooth="yes"/>
      <point x="148" y="-7"/>
      <point x="98" y="54"/>
      <point x="98" y="152" type="curve" smooth="yes"/>
      <point x="98" y="680" type="line"/>
      <point x="96" y="680" type="line"/>
      <point x="96" y="152" type="line" smooth="yes"/>
      <point x="96" y="53"/>
      <point x="146" y="-9"/>
      <point x="240" y="-9" type="curve" smooth="yes"/>
      <point x="349" y="-9"/>
      <point x="419" y="78"/>
      <point x="419" y="256" type="curve" smooth="yes"/>
      <point x="419" y="617" type="line"/>
    </contour>
    <contour>
      <point x="419" y="617" type="line"/>
      <point x="419" y="662"/>
      <point x="404" y="690"/>
      <point x="367" y="690" type="curve" smooth="yes"/>
      <point x="349" y="690"/>
      <point x="337" y="685"/>
      <point x="326" y="679" type="curve"/>
      <point x="327" y="677" type="line"/>
      <point x="337" y="683"/>
      <point x="350" y="688"/>
      <point x="367" y="688" type="curve" smooth="yes"/>
      <point x="403" y="688"/>
      <point x="417" y="660"/>
      <point x="417" y="617" type="curve"/>
    </contour>
    <contour>
      <point x="245" y="680" type="move" name="top"/>
    </contour>
    <contour>
      <point x="245" y="0" type="move" name="bottom"/>
    </contour>
  </outline>
</glyph>
<glyph name="uni01B3" format="1">
  <advance width="411"/>
  <unicode hex="01B3"/>
  <outline>
    <contour>
      <point x="198" y="0" type="line"/>
      <point x="198" y="271" type="line"/>
      <point x="335" y="621" type="line" smooth="yes"/>
      <point x="353" y="667"/>
      <point x="372" y="688"/>
      <point x="406" y="688" type="curve" smooth="yes"/>
      <point x="435" y="688"/>
      <point x="451" y="674"/>
      <point x="469" y="651" type="curve"/>
      <point x="471" y="652" type="line"/>
      <point x="453" y="675"/>
      <point x="436" y="690"/>
      <point x="406" y="690" type="curve" smooth="yes"/>
      <point x="371" y="690"/>
      <point x="351" y="668"/>
      <point x="333" y="622" type="curve" smooth="yes"/>
      <point x="197" y="273" type="line"/>
      <point x="22" y="680" type="line"/>
      <point x="20" y="680" type="line"/>
      <point x="196" y="271" type="line"/>
      <point x="196" y="0" type="line"/>
    </contour>
    <contour>
      <point x="207" y="680" type="move" name="top"/>
    </contour>
    <contour>
      <point x="197" y="0" type="move" name="bottom"/>
    </contour>
    <contour>
      <point x="15" y="680" type="move" name="topleft"/>
    </contour>
  </outline>
</glyph>
<glyph name="uni01B4" format="1">
  <advance width="358"/>
  <unicode hex="01B4"/>
  <outline>
    <contour>
      <point x="139" y="-159"/>
      <point x="157" y="-112"/>
      <point x="189" y="0" type="curve" smooth="yes"/>
      <point x="336" y="519" type="line" smooth="yes"/>
      <point x="345" y="550"/>
      <point x="357" y="563"/>
      <point x="381" y="563" type="curve" smooth="yes"/>
      <point x="393" y="563"/>
      <point x="403" y="560"/>
      <point x="413" y="555" type="curve"/>
      <point x="413" y="557" type="line"/>
      <point x="403" y="562"/>
      <point x="393" y="565"/>
      <point x="381" y="565" type="curve" smooth="yes"/>
      <point x="356" y="565"/>
      <point x="343" y="551"/>
      <point x="334" y="519" type="curve" smooth="yes"/>
      <point x="187" y="0" type="line"/>
      <point x="30" y="517" type="line"/>
      <point x="28" y="517" type="line"/>
      <point x="185" y="0" type="line"/>
      <point x="187" y="0" type="line"/>
      <point x="155" y="-112"/>
      <point x="137" y="-157"/>
      <point x="53" y="-187" type="curve"/>
      <point x="54" y="-189" type="line"/>
    </contour>
    <contour>
      <point x="186" y="517" type="move" name="top"/>
    </contour>
    <contour>
      <point x="186" y="-188" type="move" name="bottom"/>
    </contour>
  </outline>
</glyph>
<glyph name="uni01B5" format="1">
  <advance width="414"/>
  <unicode hex="01B5"/>
  <outline>
    <contour>
      <point x="67" y="680" type="line"/>
      <point x="67" y="678" type="line"/>
      <point x="371" y="678" type="line"/>
      <point x="37" y="2" type="line"/>
      <point x="37" y="0" type="line"/>
      <point x="359" y="0" type="line"/>
      <point x="359" y="2" type="line"/>
      <point x="39" y="2" type="line"/>
      <point x="373" y="678" type="line"/>
      <point x="373" y="680" type="line"/>
    </contour>
    <component base="hyphen" xOffset="26" yOffset="30" xScale="1.1"/>
    <contour>
      <point x="207" y="680" type="move" name="top"/>
    </contour>
    <contour>
      <point x="207" y="0" type="move" name="bottom"/>
    </contour>
  </outline>
</glyph>
<glyph name="uni01B6" format="1">
  <advance width="337"/>
  <unicode hex="01B6"/>
  <outline>
    <contour>
      <point x="54" y="517" type="line"/>
      <point x="54" y="515" type="line"/>
      <point x="302" y="515" type="line"/>
      <point x="29" y="2" type="line"/>
      <point x="29" y="0" type="line"/>
      <point x="295" y="0" type="line"/>
      <point x="295" y="2" type="line"/>
      <point x="31" y="2" type="line"/>
      <point x="304" y="515" type="line"/>
      <point x="304" y="517" type="line"/>
    </contour>
    <component base="hyphen" xOffset="9" yOffset="-45"/>
    <contour>
      <point x="168" y="517" type="move" name="top"/>
    </contour>
    <contour>
      <point x="168" y="0" type="move" name="bottom"/>
    </contour>
  </outline>
</glyph>
<glyph name="uni01B7" format="1">
  <advance width="381"/>
  <unicode hex="01B7"/>
  <outline>
    <contour>
      <point x="283" y="-9"/>
      <point x="340" y="63"/>
      <point x="340" y="179" type="curve" smooth="yes"/>
      <point x="340" y="309"/>
      <point x="280" y="363"/>
      <point x="161" y="363" type="curve"/>
      <point x="110" y="363" type="line"/>
      <point x="108" y="361" type="line"/>
      <point x="161" y="361" type="line" smooth="yes"/>
      <point x="279" y="361"/>
      <point x="338" y="308"/>
      <point x="338" y="179" type="curve" smooth="yes"/>
      <point x="338" y="64"/>
      <point x="282" y="-7"/>
      <point x="178" y="-7" type="curve" smooth="yes"/>
      <point x="106" y="-7"/>
      <point x="64" y="22"/>
      <point x="27" y="70" type="curve"/>
      <point x="25" y="69" type="line"/>
      <point x="62" y="21"/>
      <point x="105" y="-9"/>
      <point x="178" y="-9" type="curve" smooth="yes"/>
    </contour>
    <contour>
      <point x="108" y="361" type="line"/>
      <point x="111" y="363" type="line"/>
      <point x="317" y="678" type="line"/>
      <point x="317" y="680" type="line"/>
      <point x="31" y="680" type="line"/>
      <point x="31" y="678" type="line"/>
      <point x="314" y="678" type="line"/>
      <point x="108" y="363" type="line"/>
    </contour>
    <contour>
      <point x="174" y="680" type="move" name="top"/>
    </contour>
    <contour>
      <point x="191" y="0" type="move" name="bottom"/>
    </contour>
  </outline>
</glyph>
<glyph name="uni01B8" format="1">
  <advance width="381"/>
  <unicode hex="01B8"/>
  <outline>
    <contour>
      <point x="276" y="-9"/>
      <point x="319" y="21"/>
      <point x="356" y="69" type="curve"/>
      <point x="354" y="70" type="line"/>
      <point x="317" y="22"/>
      <point x="275" y="-7"/>
      <point x="200" y="-7" type="curve" smooth="yes"/>
      <point x="104" y="-7"/>
      <point x="43" y="60"/>
      <point x="43" y="171" type="curve" smooth="yes"/>
      <point x="43" y="304"/>
      <point x="102" y="361"/>
      <point x="220" y="361" type="curve" smooth="yes"/>
      <point x="273" y="361" type="line"/>
      <point x="271" y="363" type="line"/>
      <point x="220" y="363" type="line"/>
      <point x="101" y="363"/>
      <point x="41" y="305"/>
      <point x="41" y="171" type="curve" smooth="yes"/>
      <point x="41" y="59"/>
      <point x="103" y="-9"/>
      <point x="200" y="-9" type="curve" smooth="yes"/>
    </contour>
    <contour>
      <point x="67" y="678" type="line"/>
      <point x="350" y="678" type="line"/>
      <point x="350" y="680" type="line"/>
      <point x="64" y="680" type="line"/>
      <point x="64" y="678" type="line"/>
      <point x="270" y="363" type="line"/>
      <point x="273" y="361" type="line"/>
      <point x="273" y="363" type="line"/>
    </contour>
    <contour>
      <point x="190" y="680" type="move" name="top"/>
    </contour>
    <contour>
      <point x="190" y="0" type="move" name="bottom"/>
    </contour>
  </outline>
</glyph>
<glyph name="uni01B9" format="1">
  <advance width="360"/>
  <unicode hex="01B9"/>
  <outline>
    <contour>
      <point x="255" y="-192"/>
      <point x="298" y="-162"/>
      <point x="335" y="-114" type="curve"/>
      <point x="333" y="-113" type="line"/>
      <point x="296" y="-161"/>
      <point x="254" y="-190"/>
      <point x="188" y="-190" type="curve" smooth="yes"/>
      <point x="93" y="-190"/>
      <point x="35" y="-115"/>
      <point x="35" y="1" type="curve" smooth="yes"/>
      <point x="35" y="118"/>
      <point x="94" y="188"/>
      <point x="207" y="188" type="curve" smooth="yes"/>
      <point x="248" y="188" type="line"/>
      <point x="246" y="190" type="line"/>
      <point x="207" y="190" type="line"/>
      <point x="93" y="190"/>
      <point x="33" y="120"/>
      <point x="33" y="1" type="curve" smooth="yes"/>
      <point x="33" y="-117"/>
      <point x="92" y="-192"/>
      <point x="188" y="-192" type="curve" smooth="yes"/>
    </contour>
    <contour>
      <point x="59" y="515" type="line"/>
      <point x="322" y="515" type="line"/>
      <point x="322" y="517" type="line"/>
      <point x="57" y="517" type="line"/>
      <point x="57" y="515" type="line"/>
      <point x="246" y="190" type="line"/>
      <point x="248" y="188" type="line"/>
      <point x="248" y="190" type="line"/>
    </contour>
    <contour>
      <point x="180" y="517" type="move" name="top"/>
    </contour>
    <contour>
      <point x="180" y="-188" type="move" name="bottom"/>
    </contour>
  </outline>
</glyph>
<glyph name="uni01BA" format="1">
  <advance width="361"/>
  <unicode hex="01BA"/>
  <outline>
    <contour>
      <point x="125" y="-188" type="line"/>
      <point x="71" y="-173"/>
      <point x="43" y="-143"/>
      <point x="43" y="-98" type="curve" smooth="yes"/>
      <point x="43" y="-50"/>
      <point x="75" y="-22"/>
      <point x="176" y="-6" type="curve" smooth="yes"/>
      <point x="284" y="11"/>
      <point x="321" y="58"/>
      <point x="321" y="138" type="curve" smooth="yes"/>
      <point x="321" y="228"/>
      <point x="275" y="263"/>
      <point x="183" y="263" type="curve" smooth="yes"/>
      <point x="99" y="263" type="line"/>
      <point x="297" y="515" type="line"/>
      <point x="297" y="517" type="line"/>
      <point x="40" y="517" type="line"/>
      <point x="40" y="515" type="line"/>
      <point x="294" y="515" type="line"/>
      <point x="96" y="263" type="line"/>
      <point x="96" y="261" type="line"/>
      <point x="183" y="261" type="line" smooth="yes"/>
      <point x="274" y="261"/>
      <point x="319" y="227"/>
      <point x="319" y="138" type="curve" smooth="yes"/>
      <point x="319" y="59"/>
      <point x="283" y="13"/>
      <point x="176" y="-4" type="curve" smooth="yes"/>
      <point x="74" y="-20"/>
      <point x="41" y="-49"/>
      <point x="41" y="-98" type="curve" smooth="yes"/>
      <point x="41" y="-143"/>
      <point x="70" y="-174"/>
      <point x="124" y="-190" type="curve"/>
    </contour>
    <contour>
      <point x="169" y="517" type="move" name="top"/>
    </contour>
    <contour>
      <point x="180" y="-188" type="move" name="bottom"/>
    </contour>
  </outline>
</glyph>
<glyph name="uni01BD" format="1">
  <advance width="349"/>
  <unicode hex="01BD"/>
  <outline>
    <contour>
      <point x="79" y="517" type="line"/>
      <point x="79" y="281" type="line"/>
      <point x="81" y="281" type="line"/>
      <point x="108" y="304"/>
      <point x="139" y="318"/>
      <point x="178" y="318" type="curve" smooth="yes"/>
      <point x="249" y="318"/>
      <point x="287" y="265"/>
      <point x="287" y="166" type="curve" smooth="yes"/>
      <point x="287" y="58"/>
      <point x="244" y="-7"/>
      <point x="160" y="-7" type="curve" smooth="yes"/>
      <point x="116" y="-7"/>
      <point x="77" y="15"/>
      <point x="52" y="49" type="curve"/>
      <point x="50" y="48" type="line"/>
      <point x="77" y="13"/>
      <point x="115" y="-9"/>
      <point x="160" y="-9" type="curve" smooth="yes"/>
      <point x="245" y="-9"/>
      <point x="289" y="57"/>
      <point x="289" y="166" type="curve" smooth="yes"/>
      <point x="289" y="266"/>
      <point x="250" y="320"/>
      <point x="178" y="320" type="curve" smooth="yes"/>
      <point x="138" y="320"/>
      <point x="107" y="305"/>
      <point x="81" y="283" type="curve"/>
      <point x="81" y="515" type="line"/>
      <point x="276" y="515" type="line"/>
      <point x="276" y="517" type="line"/>
    </contour>
    <contour>
      <point x="174" y="517" type="move" name="top"/>
    </contour>
    <contour>
      <point x="174" y="0" type="move" name="bottom"/>
    </contour>
  </outline>
</glyph>
<glyph name="uni01BE" format="1">
  <advance width="396"/>
  <unicode hex="01BE"/>
  <outline>
    <contour>
      <point x="86" y="583" type="line"/>
      <point x="146" y="583" type="line"/>
      <point x="246" y="583" type="line"/>
      <point x="246" y="585" type="line"/>
      <point x="86" y="585" type="line"/>
    </contour>
    <component base="uni0296"/>
  </outline>
</glyph>
<glyph name="uni01BF" format="1">
  <advance width="460"/>
  <unicode hex="01BF"/>
  <outline>
    <contour>
      <point x="102" y="517" type="line"/>
      <point x="102" y="-190" type="line"/>
      <point x="104" y="-190" type="line"/>
      <point x="104" y="423" type="line"/>
      <point x="104" y="425" type="line"/>
      <point x="104" y="517" type="line"/>
    </contour>
    <contour>
      <point x="103" y="422" type="line"/>
      <point x="143" y="482"/>
      <point x="188" y="525"/>
      <point x="259" y="525" type="curve" smooth="yes"/>
      <point x="340" y="525"/>
      <point x="393" y="458"/>
      <point x="393" y="353" type="curve" smooth="yes"/>
      <point x="393" y="213"/>
      <point x="318" y="123"/>
      <point x="161" y="24" type="curve" smooth="yes"/>
      <point x="104" y="-12" type="line"/>
      <point x="104" y="-14" type="line"/>
      <point x="161" y="22" type="line" smooth="yes"/>
      <point x="319" y="122"/>
      <point x="395" y="212"/>
      <point x="395" y="353" type="curve" smooth="yes"/>
      <point x="395" y="459"/>
      <point x="341" y="527"/>
      <point x="259" y="527" type="curve" smooth="yes"/>
      <point x="187" y="527"/>
      <point x="142" y="483"/>
      <point x="103" y="425" type="curve"/>
    </contour>
    <contour>
      <point x="230" y="517" type="move" name="top"/>
    </contour>
    <contour>
      <point x="230" y="-188" type="move" name="bottom"/>
    </contour>
  </outline>
</glyph>
<glyph name="uni01C3" format="1">
  <advance width="226"/>
  <unicode hex="01C3"/>
  <outline>
    <contour>
      <point x="110" y="730" type="line"/>
      <point x="110" y="188" type="line"/>
      <point x="112" y="188" type="line"/>
      <point x="112" y="730" type="line"/>
    </contour>
    <contour>
      <point x="109" y="10"/>
      <point x="106" y="7"/>
      <point x="106" y="3" type="curve" smooth="yes"/>
      <point x="106" y="-1"/>
      <point x="109" y="-4"/>
      <point x="113" y="-4" type="curve" smooth="yes"/>
      <point x="117" y="-4"/>
      <point x="120" y="-1"/>
      <point x="120" y="3" type="curve" smooth="yes"/>
      <point x="120" y="7"/>
      <point x="117" y="10"/>
      <point x="113" y="10" type="curve" smooth="yes"/>
    </contour>
  </outline>
</glyph>
<glyph name="uni01E4" format="1">
  <advance width="501"/>
  <unicode hex="01E4"/>
  <outline>
    <contour>
      <point x="178" y="690"/>
      <point x="70" y="595"/>
      <point x="70" y="345" type="curve" smooth="yes"/>
      <point x="70" y="99"/>
      <point x="156" y="-9"/>
      <point x="287" y="-9" type="curve" smooth="yes"/>
      <point x="347" y="-9"/>
      <point x="393" y="15"/>
      <point x="426" y="39" type="curve"/>
      <point x="426" y="342" type="line"/>
      <point x="300" y="342" type="line"/>
      <point x="301" y="340" type="line"/>
      <point x="424" y="340" type="line"/>
      <point x="424" y="40" type="line"/>
      <point x="393" y="17"/>
      <point x="348" y="-7"/>
      <point x="287" y="-7" type="curve" smooth="yes"/>
      <point x="156" y="-7"/>
      <point x="72" y="101"/>
      <point x="72" y="345" type="curve" smooth="yes"/>
      <point x="72" y="595"/>
      <point x="179" y="688"/>
      <point x="279" y="688" type="curve" smooth="yes"/>
      <point x="333" y="688"/>
      <point x="372" y="669"/>
      <point x="410" y="633" type="curve"/>
      <point x="411" y="635" type="line"/>
      <point x="372" y="671"/>
      <point x="334" y="690"/>
      <point x="279" y="690" type="curve" smooth="yes"/>
    </contour>
    <contour>
      <point x="490" y="221" type="line"/>
      <point x="490" y="223" type="line"/>
      <point x="300" y="223" type="line"/>
      <point x="300" y="221" type="line"/>
    </contour>
    <contour>
      <point x="251" y="680" type="move" name="top"/>
    </contour>
    <contour>
      <point x="251" y="0" type="move" name="bottom"/>
    </contour>
  </outline>
</glyph>
<glyph name="uni01E5" format="1">
  <advance width="399"/>
  <unicode hex="01E5"/>
  <outline>
    <contour>
      <point x="348" y="534"/>
      <point x="326" y="527"/>
      <point x="198" y="527" type="curve" smooth="yes"/>
      <point x="119" y="527"/>
      <point x="61" y="464"/>
      <point x="61" y="357" type="curve" smooth="yes"/>
      <point x="61" y="282"/>
      <point x="95" y="238"/>
      <point x="132" y="215" type="curve"/>
      <point x="108" y="195"/>
      <point x="87" y="168"/>
      <point x="87" y="128" type="curve" smooth="yes"/>
      <point x="87" y="82"/>
      <point x="117" y="54"/>
      <point x="188" y="54" type="curve" smooth="yes"/>
      <point x="243" y="54" type="line" smooth="yes"/>
      <point x="323" y="54"/>
      <point x="369" y="10"/>
      <point x="369" y="-59" type="curve" smooth="yes"/>
      <point x="369" y="-135"/>
      <point x="316" y="-190"/>
      <point x="207" y="-190" type="curve" smooth="yes"/>
      <point x="96" y="-190"/>
      <point x="47" y="-157"/>
      <point x="47" y="-60" type="curve"/>
      <point x="45" y="-60" type="line"/>
      <point x="45" y="-158"/>
      <point x="94" y="-192"/>
      <point x="207" y="-192" type="curve" smooth="yes"/>
      <point x="318" y="-192"/>
      <point x="371" y="-136"/>
      <point x="371" y="-59" type="curve" smooth="yes"/>
      <point x="371" y="10"/>
      <point x="325" y="56"/>
      <point x="243" y="56" type="curve" smooth="yes"/>
      <point x="188" y="56" type="line" smooth="yes"/>
      <point x="118" y="56"/>
      <point x="89" y="83"/>
      <point x="89" y="128" type="curve" smooth="yes"/>
      <point x="89" y="165"/>
      <point x="108" y="194"/>
      <point x="134" y="214" type="curve"/>
      <point x="155" y="202"/>
      <point x="178" y="194"/>
      <point x="209" y="194" type="curve" smooth="yes"/>
      <point x="288" y="194"/>
      <point x="344" y="247"/>
      <point x="344" y="356" type="curve" smooth="yes"/>
      <point x="344" y="445"/>
      <point x="307" y="512"/>
      <point x="223" y="525" type="curve"/>
      <point x="310" y="525"/>
      <point x="349" y="531"/>
      <point x="380" y="542" type="curve"/>
      <point x="379" y="544" type="line"/>
    </contour>
    <contour>
      <point x="270" y="525"/>
      <point x="342" y="481"/>
      <point x="342" y="356" type="curve" smooth="yes"/>
      <point x="342" y="248"/>
      <point x="286" y="196"/>
      <point x="209" y="196" type="curve" smooth="yes"/>
      <point x="135" y="196"/>
      <point x="63" y="250"/>
      <point x="63" y="357" type="curve" smooth="yes"/>
      <point x="63" y="459"/>
      <point x="117" y="525"/>
      <point x="198" y="525" type="curve" smooth="yes"/>
    </contour>
    <component base="hyphen" xOffset="180" yOffset="-371"/>
    <contour>
      <point x="200" y="517" type="move" name="top"/>
    </contour>
    <contour>
      <point x="200" y="-188" type="move" name="bottom"/>
    </contour>
  </outline>
</glyph>
<glyph name="uni01F6" format="1">
  <advance width="785"/>
  <unicode hex="01F6"/>
  <outline>
    <contour>
      <point x="108" y="0" type="line"/>
      <point x="108" y="360" type="line"/>
      <point x="427" y="360" type="line"/>
      <point x="427" y="185" type="line"/>
      <point x="429" y="185" type="line"/>
      <point x="429" y="680" type="line"/>
      <point x="427" y="680" type="line"/>
      <point x="427" y="362" type="line"/>
      <point x="108" y="362" type="line"/>
      <point x="108" y="680" type="line"/>
      <point x="106" y="680" type="line"/>
      <point x="106" y="0" type="line"/>
    </contour>
    <contour>
      <point x="635" y="-9"/>
      <point x="700" y="61"/>
      <point x="700" y="258" type="curve" smooth="yes"/>
      <point x="700" y="362"/>
      <point x="689" y="448"/>
      <point x="678" y="517" type="curve"/>
      <point x="676" y="517" type="line"/>
      <point x="687" y="448"/>
      <point x="698" y="362"/>
      <point x="698" y="258" type="curve" smooth="yes"/>
      <point x="698" y="62"/>
      <point x="634" y="-7"/>
      <point x="548" y="-7" type="curve" smooth="yes"/>
      <point x="476" y="-7"/>
      <point x="429" y="47"/>
      <point x="429" y="133" type="curve" smooth="yes"/>
      <point x="429" y="517" type="line"/>
      <point x="427" y="517" type="line"/>
      <point x="427" y="133" type="line" smooth="yes"/>
      <point x="427" y="45"/>
      <point x="475" y="-9"/>
      <point x="548" y="-9" type="curve" smooth="yes"/>
    </contour>
    <contour>
      <point x="391" y="680" type="move" name="top"/>
    </contour>
    <contour>
      <point x="391" y="0" type="move" name="bottom"/>
    </contour>
  </outline>
</glyph>
<glyph name="uni01F7" format="1">
  <advance width="447"/>
  <unicode hex="01F7"/>
  <outline>
    <contour>
      <point x="107" y="597" type="line"/>
      <point x="142" y="644"/>
      <point x="187" y="688"/>
      <point x="257" y="688" type="curve" smooth="yes"/>
      <point x="341" y="688"/>
      <point x="397" y="621"/>
      <point x="397" y="515" type="curve" smooth="yes"/>
      <point x="397" y="377"/>
      <point x="315" y="319"/>
      <point x="204" y="273" type="curve" smooth="yes"/>
      <point x="108" y="233" type="line"/>
      <point x="108" y="231" type="line"/>
      <point x="204" y="271" type="line" smooth="yes"/>
      <point x="317" y="318"/>
      <point x="399" y="376"/>
      <point x="399" y="515" type="curve" smooth="yes"/>
      <point x="399" y="622"/>
      <point x="343" y="690"/>
      <point x="257" y="690" type="curve" smooth="yes"/>
      <point x="187" y="690"/>
      <point x="141" y="646"/>
      <point x="107" y="600" type="curve"/>
    </contour>
    <contour>
      <point x="106" y="680" type="line"/>
      <point x="106" y="0" type="line"/>
      <point x="108" y="0" type="line"/>
      <point x="108" y="680" type="line"/>
    </contour>
    <contour>
      <point x="226" y="680" type="move" name="top"/>
    </contour>
    <contour>
      <point x="226" y="0" type="move" name="bottom"/>
    </contour>
  </outline>
</glyph>
<glyph name="uni021C" format="1">
  <advance width="396"/>
  <unicode hex="021C"/>
  <outline>
    <contour>
      <point x="122" y="690"/>
      <point x="77" y="660"/>
      <point x="33" y="605" type="curve"/>
      <point x="34" y="603" type="line"/>
      <point x="78" y="658"/>
      <point x="122" y="688"/>
      <point x="187" y="688" type="curve"/>
      <point x="274" y="688"/>
      <point x="322" y="619"/>
      <point x="322" y="526" type="curve"/>
      <point x="322" y="418"/>
      <point x="260" y="363"/>
      <point x="181" y="363" type="curve" smooth="yes"/>
      <point x="136" y="363" type="line"/>
      <point x="136" y="361" type="line"/>
      <point x="183" y="361" type="line" smooth="yes"/>
      <point x="277" y="361"/>
      <point x="341" y="311"/>
      <point x="341" y="205" type="curve" smooth="yes"/>
      <point x="341" y="80"/>
      <point x="274" y="-7"/>
      <point x="55" y="-77" type="curve"/>
      <point x="55" y="-79" type="line"/>
      <point x="275" y="-9"/>
      <point x="343" y="78"/>
      <point x="343" y="205" type="curve" smooth="yes"/>
      <point x="343" y="313"/>
      <point x="279" y="359"/>
      <point x="196" y="362" type="curve"/>
      <point x="262" y="366"/>
      <point x="325" y="417"/>
      <point x="325" y="526" type="curve"/>
      <point x="325" y="621"/>
      <point x="275" y="690"/>
      <point x="187" y="690" type="curve"/>
    </contour>
    <contour>
      <point x="198" y="680" type="move" name="top"/>
    </contour>
    <contour>
      <point x="198" y="-188" type="move" name="bottom"/>
    </contour>
  </outline>
</glyph>
<glyph name="uni021D" format="1">
  <advance width="368"/>
  <unicode hex="021D"/>
  <outline>
    <contour>
      <point x="109" y="527"/>
      <point x="72" y="507"/>
      <point x="33" y="476" type="curve"/>
      <point x="34" y="474" type="line"/>
      <point x="73" y="505"/>
      <point x="109" y="525"/>
      <point x="165" y="525" type="curve"/>
      <point x="240" y="525"/>
      <point x="282" y="472"/>
      <point x="282" y="394" type="curve" smooth="yes"/>
      <point x="282" y="320"/>
      <point x="253" y="266"/>
      <point x="151" y="266" type="curve" smooth="yes"/>
      <point x="120" y="266" type="line"/>
      <point x="120" y="264" type="line"/>
      <point x="151" y="264" type="line" smooth="yes"/>
      <point x="262" y="264"/>
      <point x="301" y="224"/>
      <point x="301" y="148" type="curve" smooth="yes"/>
      <point x="301" y="43"/>
      <point x="242" y="-27"/>
      <point x="58" y="-77" type="curve"/>
      <point x="59" y="-79" type="line"/>
      <point x="243" y="-29"/>
      <point x="303" y="42"/>
      <point x="303" y="148" type="curve" smooth="yes"/>
      <point x="303" y="228"/>
      <point x="260" y="260"/>
      <point x="171" y="265" type="curve"/>
      <point x="253" y="272"/>
      <point x="284" y="317"/>
      <point x="284" y="394" type="curve" smooth="yes"/>
      <point x="284" y="474"/>
      <point x="241" y="527"/>
      <point x="165" y="527" type="curve"/>
    </contour>
    <contour>
      <point x="184" y="517" type="move" name="top"/>
    </contour>
    <contour>
      <point x="184" y="-188" type="move" name="bottom"/>
    </contour>
  </outline>
</glyph>
<glyph name="uni0221" format="1">
  <advance width="521"/>
  <unicode hex="0221"/>
  <outline>
    <contour>
      <point x="294" y="-9"/>
      <point x="333" y="40"/>
      <point x="361" y="102" type="curve"/>
      <point x="361" y="106" type="line"/>
      <point x="332" y="42"/>
      <point x="294" y="-7"/>
      <point x="221" y="-7" type="curve" smooth="yes"/>
      <point x="127" y="-7"/>
      <point x="67" y="82"/>
      <point x="67" y="257" type="curve" smooth="yes"/>
      <point x="67" y="422"/>
      <point x="125" y="525"/>
      <point x="227" y="525" type="curve" smooth="yes"/>
      <point x="297" y="525"/>
      <point x="340" y="471"/>
      <point x="361" y="418" type="curve"/>
      <point x="361" y="422" type="line"/>
      <point x="341" y="472"/>
      <point x="298" y="527"/>
      <point x="227" y="527" type="curve" smooth="yes"/>
      <point x="124" y="527"/>
      <point x="65" y="423"/>
      <point x="65" y="257" type="curve" smooth="yes"/>
      <point x="65" y="81"/>
      <point x="126" y="-9"/>
      <point x="221" y="-9" type="curve" smooth="yes"/>
    </contour>
    <contour>
      <point x="369" y="42" type="line"/>
      <point x="370" y="44" type="line"/>
      <point x="398" y="126"/>
      <point x="432" y="174"/>
      <point x="490" y="174" type="curve" smooth="yes"/>
      <point x="535" y="174"/>
      <point x="559" y="142"/>
      <point x="559" y="98" type="curve" smooth="yes"/>
      <point x="559" y="36"/>
      <point x="515" y="-7"/>
      <point x="457" y="-7" type="curve"/>
      <point x="399" y="-7"/>
      <point x="362" y="24"/>
      <point x="362" y="94" type="curve"/>
      <point x="360" y="94" type="line"/>
      <point x="360" y="23"/>
      <point x="398" y="-9"/>
      <point x="457" y="-9" type="curve"/>
      <point x="516" y="-9"/>
      <point x="561" y="35"/>
      <point x="561" y="98" type="curve" smooth="yes"/>
      <point x="561" y="143"/>
      <point x="536" y="176"/>
      <point x="490" y="176" type="curve" smooth="yes"/>
      <point x="431" y="176"/>
      <point x="397" y="128"/>
      <point x="369" y="46" type="curve"/>
      <point x="368" y="44" type="line"/>
      <point x="331" y="-49" type="line"/>
      <point x="333" y="-49" type="line"/>
    </contour>
    <contour>
      <point x="360" y="730" type="line"/>
      <point x="360" y="94" type="line"/>
      <point x="362" y="94" type="line"/>
      <point x="362" y="730" type="line"/>
    </contour>
    <contour>
      <point x="262" y="727" type="move" name="top"/>
    </contour>
    <contour>
      <point x="262" y="-188" type="move" name="bottom"/>
    </contour>
  </outline>
</glyph>
<glyph name="uni0222" format="1">
  <advance width="515"/>
  <unicode hex="0222"/>
  <outline>
    <contour>
      <point x="142" y="386"/>
      <point x="70" y="302"/>
      <point x="70" y="185" type="curve" smooth="yes"/>
      <point x="70" y="74"/>
      <point x="139" y="-9"/>
      <point x="257" y="-9" type="curve" smooth="yes"/>
      <point x="378" y="-9"/>
      <point x="445" y="75"/>
      <point x="445" y="189" type="curve" smooth="yes"/>
      <point x="445" y="307"/>
      <point x="377" y="386"/>
      <point x="257" y="386" type="curve" smooth="yes"/>
    </contour>
    <contour>
      <point x="376" y="384"/>
      <point x="443" y="305"/>
      <point x="443" y="189" type="curve" smooth="yes"/>
      <point x="443" y="77"/>
      <point x="377" y="-7"/>
      <point x="257" y="-7" type="curve" smooth="yes"/>
      <point x="140" y="-7"/>
      <point x="72" y="76"/>
      <point x="72" y="185" type="curve" smooth="yes"/>
      <point x="72" y="300"/>
      <point x="143" y="384"/>
      <point x="257" y="384" type="curve" smooth="yes"/>
    </contour>
    <contour>
      <point x="401" y="680" type="line"/>
      <point x="401" y="529" type="line" smooth="yes"/>
      <point x="401" y="449"/>
      <point x="371" y="386"/>
      <point x="258" y="386" type="curve" smooth="yes"/>
      <point x="144" y="386"/>
      <point x="115" y="449"/>
      <point x="115" y="529" type="curve" smooth="yes"/>
      <point x="115" y="680" type="line"/>
      <point x="113" y="680" type="line"/>
      <point x="113" y="529" type="line" smooth="yes"/>
      <point x="113" y="448"/>
      <point x="142" y="384"/>
      <point x="258" y="384" type="curve" smooth="yes"/>
      <point x="373" y="384"/>
      <point x="403" y="448"/>
      <point x="403" y="529" type="curve" smooth="yes"/>
      <point x="403" y="680" type="line"/>
    </contour>
    <contour>
      <point x="258" y="680" type="move" name="top"/>
    </contour>
    <contour>
      <point x="258" y="0" type="move" name="bottom"/>
    </contour>
  </outline>
</glyph>
<glyph name="uni0223" format="1">
  <advance width="451"/>
  <unicode hex="0223"/>
  <outline>
    <contour>
      <point x="129" y="412"/>
      <point x="65" y="336"/>
      <point x="65" y="198" type="curve" smooth="yes"/>
      <point x="65" y="67"/>
      <point x="126" y="-9"/>
      <point x="225" y="-9" type="curve" smooth="yes"/>
      <point x="327" y="-9"/>
      <point x="386" y="68"/>
      <point x="386" y="202" type="curve" smooth="yes"/>
      <point x="386" y="342"/>
      <point x="326" y="412"/>
      <point x="225" y="412" type="curve" smooth="yes"/>
    </contour>
    <contour>
      <point x="325" y="410"/>
      <point x="384" y="340"/>
      <point x="384" y="202" type="curve" smooth="yes"/>
      <point x="384" y="70"/>
      <point x="326" y="-7"/>
      <point x="225" y="-7" type="curve" smooth="yes"/>
      <point x="127" y="-7"/>
      <point x="67" y="69"/>
      <point x="67" y="198" type="curve" smooth="yes"/>
      <point x="67" y="334"/>
      <point x="130" y="410"/>
      <point x="225" y="410" type="curve" smooth="yes"/>
    </contour>
    <contour>
      <point x="352" y="727" type="line"/>
      <point x="352" y="550" type="line" smooth="yes"/>
      <point x="352" y="472"/>
      <point x="320" y="412"/>
      <point x="226" y="412" type="curve" smooth="yes"/>
      <point x="131" y="412"/>
      <point x="100" y="472"/>
      <point x="100" y="550" type="curve" smooth="yes"/>
      <point x="100" y="727" type="line"/>
      <point x="98" y="727" type="line"/>
      <point x="98" y="550" type="line" smooth="yes"/>
      <point x="98" y="471"/>
      <point x="129" y="410"/>
      <point x="226" y="410" type="curve" smooth="yes"/>
      <point x="321" y="410"/>
      <point x="354" y="471"/>
      <point x="354" y="550" type="curve" smooth="yes"/>
      <point x="354" y="727" type="line"/>
    </contour>
    <contour>
      <point x="225" y="727" type="move" name="top"/>
    </contour>
    <contour>
      <point x="225" y="0" type="move" name="bottom"/>
    </contour>
  </outline>
</glyph>
<glyph name="uni0224" format="1">
  <advance width="414"/>
  <unicode hex="0224"/>
  <outline>
    <contour>
      <point x="67" y="680" type="line"/>
      <point x="67" y="678" type="line"/>
      <point x="371" y="678" type="line"/>
      <point x="37" y="2" type="line"/>
      <point x="37" y="0" type="line"/>
      <point x="359" y="0" type="line"/>
      <point x="359" y="2" type="line"/>
      <point x="39" y="2" type="line"/>
      <point x="373" y="678" type="line"/>
      <point x="373" y="680" type="line"/>
    </contour>
    <contour>
      <point x="331" y="-192"/>
      <point x="359" y="-168"/>
      <point x="359" y="-113" type="curve" smooth="yes"/>
      <point x="359" y="1" type="line"/>
      <point x="357" y="1" type="line"/>
      <point x="357" y="-113" type="line" smooth="yes"/>
      <point x="357" y="-167"/>
      <point x="330" y="-190"/>
      <point x="292" y="-190" type="curve" smooth="yes"/>
      <point x="260" y="-190"/>
      <point x="242" y="-178"/>
      <point x="226" y="-162" type="curve"/>
      <point x="225" y="-164" type="line"/>
      <point x="240" y="-179"/>
      <point x="259" y="-192"/>
      <point x="292" y="-192" type="curve" smooth="yes"/>
    </contour>
    <contour>
      <point x="207" y="680" type="move" name="top"/>
    </contour>
    <contour>
      <point x="207" y="-188" type="move" name="bottom"/>
    </contour>
  </outline>
</glyph>
<glyph name="uni0225" format="1">
  <advance width="337"/>
  <unicode hex="0225"/>
  <outline>
    <contour>
      <point x="54" y="517" type="line"/>
      <point x="54" y="515" type="line"/>
      <point x="302" y="515" type="line"/>
      <point x="29" y="2" type="line"/>
      <point x="29" y="0" type="line"/>
      <point x="295" y="0" type="line"/>
      <point x="295" y="2" type="line"/>
      <point x="31" y="2" type="line"/>
      <point x="304" y="515" type="line"/>
      <point x="304" y="517" type="line"/>
    </contour>
    <contour>
      <point x="267" y="-192"/>
      <point x="295" y="-168"/>
      <point x="295" y="-113" type="curve" smooth="yes"/>
      <point x="295" y="1" type="line"/>
      <point x="293" y="1" type="line"/>
      <point x="293" y="-113" type="line" smooth="yes"/>
      <point x="293" y="-167"/>
      <point x="266" y="-190"/>
      <point x="228" y="-190" type="curve" smooth="yes"/>
      <point x="196" y="-190"/>
      <point x="178" y="-178"/>
      <point x="162" y="-162" type="curve"/>
      <point x="161" y="-164" type="line"/>
      <point x="176" y="-179"/>
      <point x="195" y="-192"/>
      <point x="228" y="-192" type="curve" smooth="yes"/>
    </contour>
    <contour>
      <point x="168" y="517" type="move" name="top"/>
    </contour>
    <contour>
      <point x="168" y="-188" type="move" name="bottom"/>
    </contour>
  </outline>
</glyph>
<glyph name="uni0234" format="1">
  <advance width="258"/>
  <unicode hex="0234"/>
  <outline>
    <contour>
      <point x="99" y="94" type="line"/>
      <point x="99" y="730" type="line"/>
      <point x="97" y="730" type="line"/>
      <point x="97" y="94" type="line"/>
    </contour>
    <contour>
      <point x="106" y="42" type="line"/>
      <point x="107" y="44" type="line"/>
      <point x="135" y="126"/>
      <point x="169" y="174"/>
      <point x="227" y="174" type="curve" smooth="yes"/>
      <point x="272" y="174"/>
      <point x="296" y="142"/>
      <point x="296" y="98" type="curve" smooth="yes"/>
      <point x="296" y="36"/>
      <point x="252" y="-7"/>
      <point x="194" y="-7" type="curve"/>
      <point x="136" y="-7"/>
      <point x="99" y="24"/>
      <point x="99" y="94" type="curve"/>
      <point x="97" y="94" type="line"/>
      <point x="97" y="23"/>
      <point x="135" y="-9"/>
      <point x="194" y="-9" type="curve"/>
      <point x="253" y="-9"/>
      <point x="298" y="35"/>
      <point x="298" y="98" type="curve" smooth="yes"/>
      <point x="298" y="143"/>
      <point x="273" y="176"/>
      <point x="227" y="176" type="curve" smooth="yes"/>
      <point x="168" y="176"/>
      <point x="134" y="128"/>
      <point x="106" y="46" type="curve"/>
      <point x="105" y="44" type="line"/>
      <point x="68" y="-49" type="line"/>
      <point x="70" y="-49" type="line"/>
    </contour>
    <contour>
      <point x="132" y="727" type="move" name="top"/>
    </contour>
    <contour>
      <point x="132" y="-188" type="move" name="bottom"/>
    </contour>
  </outline>
</glyph>
<glyph name="uni0235" format="1">
  <advance width="536"/>
  <unicode hex="0235"/>
  <outline>
    <contour>
      <point x="195" y="527"/>
      <point x="142" y="475"/>
      <point x="103" y="389" type="curve"/>
      <point x="104" y="387" type="line"/>
      <point x="143" y="473"/>
      <point x="196" y="525"/>
      <point x="267" y="525" type="curve" smooth="yes"/>
      <point x="344" y="525"/>
      <point x="375" y="466"/>
      <point x="375" y="378" type="curve" smooth="yes"/>
      <point x="375" y="94" type="line"/>
      <point x="377" y="94" type="line"/>
      <point x="377" y="378" type="line" smooth="yes"/>
      <point x="377" y="467"/>
      <point x="345" y="527"/>
      <point x="267" y="527" type="curve" smooth="yes"/>
    </contour>
    <contour>
      <point x="102" y="517" type="line"/>
      <point x="102" y="0" type="line"/>
      <point x="104" y="0" type="line"/>
      <point x="104" y="389" type="line"/>
      <point x="104" y="517" type="line"/>
    </contour>
    <contour>
      <point x="384" y="42" type="line"/>
      <point x="385" y="44" type="line"/>
      <point x="413" y="126"/>
      <point x="447" y="174"/>
      <point x="505" y="174" type="curve" smooth="yes"/>
      <point x="550" y="174"/>
      <point x="574" y="142"/>
      <point x="574" y="98" type="curve" smooth="yes"/>
      <point x="574" y="36"/>
      <point x="530" y="-7"/>
      <point x="472" y="-7" type="curve"/>
      <point x="414" y="-7"/>
      <point x="377" y="24"/>
      <point x="377" y="94" type="curve"/>
      <point x="375" y="94" type="line"/>
      <point x="375" y="23"/>
      <point x="413" y="-9"/>
      <point x="472" y="-9" type="curve"/>
      <point x="531" y="-9"/>
      <point x="576" y="35"/>
      <point x="576" y="98" type="curve" smooth="yes"/>
      <point x="576" y="143"/>
      <point x="551" y="176"/>
      <point x="505" y="176" type="curve" smooth="yes"/>
      <point x="446" y="176"/>
      <point x="412" y="128"/>
      <point x="384" y="46" type="curve"/>
      <point x="383" y="44" type="line"/>
      <point x="346" y="-49" type="line"/>
      <point x="348" y="-49" type="line"/>
    </contour>
    <contour>
      <point x="271" y="517" type="move" name="top"/>
    </contour>
    <contour>
      <point x="271" y="-188" type="move" name="bottom"/>
    </contour>
  </outline>
</glyph>
<glyph name="uni0236" format="1">
  <advance width="257"/>
  <unicode hex="0236"/>
  <outline>
    <contour>
      <point x="96" y="651" type="line"/>
      <point x="96" y="94" type="line"/>
      <point x="98" y="94" type="line"/>
      <point x="98" y="651" type="line"/>
    </contour>
    <contour>
      <point x="25" y="517" type="line"/>
      <point x="25" y="515" type="line"/>
      <point x="218" y="515" type="line"/>
      <point x="218" y="517" type="line"/>
    </contour>
    <contour>
      <point x="105" y="42" type="line"/>
      <point x="106" y="44" type="line"/>
      <point x="134" y="126"/>
      <point x="168" y="174"/>
      <point x="226" y="174" type="curve" smooth="yes"/>
      <point x="271" y="174"/>
      <point x="295" y="142"/>
      <point x="295" y="98" type="curve" smooth="yes"/>
      <point x="295" y="36"/>
      <point x="251" y="-7"/>
      <point x="193" y="-7" type="curve"/>
      <point x="135" y="-7"/>
      <point x="98" y="24"/>
      <point x="98" y="94" type="curve"/>
      <point x="96" y="94" type="line"/>
      <point x="96" y="23"/>
      <point x="134" y="-9"/>
      <point x="193" y="-9" type="curve"/>
      <point x="252" y="-9"/>
      <point x="297" y="35"/>
      <point x="297" y="98" type="curve" smooth="yes"/>
      <point x="297" y="143"/>
      <point x="272" y="176"/>
      <point x="226" y="176" type="curve" smooth="yes"/>
      <point x="167" y="176"/>
      <point x="133" y="128"/>
      <point x="105" y="46" type="curve"/>
      <point x="104" y="44" type="line"/>
      <point x="67" y="-49" type="line"/>
      <point x="69" y="-49" type="line"/>
    </contour>
    <contour>
      <point x="97" y="651" type="move" name="top"/>
    </contour>
    <contour>
      <point x="133" y="-188" type="move" name="bottom"/>
    </contour>
  </outline>
</glyph>
